<?xml version="1.0" encoding="UTF-8"?><svg xmlns="http://www.w3.org/2000/svg" xmlns:xlink="http://www.w3.org/1999/xlink" width="780.0" height="340.0" viewBox="130.0 93.0 780.0 340.0" version="1.1">
<rect x="130.0" y="93.0" width="780.0" height="340.0" fill="rgb(255,255,255)"/>
<g id="s1104424">
<polygon id="s1104424" points="339.99994,143.08592 419.99994,143.08592 419.99982,203.08586 339.99994,203.08592 " fill="none" stroke-width="2.0" stroke="rgb(0,0,0)"/>
<g id="t1104424">
<text xml:space="preserve" x="360.99994" y="179.36717" font-family="Sans,Helvetica" fill="rgb(0,0,0)" font-size="16">Inline</text>
</g>
</g>
<g id="s211108673">
<polygon id="s211108673" points="620.0,243.08595 719.9999,243.08595 719.9999,303.08597 620.0,303.08597 " fill="none" stroke-width="2.0" stroke="rgb(0,0,0)"/>
<g id="t211108673">
<text xml:space="preserve" x="669.99994" y="258.13284" font-family="Sans,Helvetica" fill="rgb(0,0,0)" font-size="16"/>
<text xml:space="preserve" x="633.49994" y="279.36722" font-family="Sans,Helvetica" fill="rgb(0,0,0)" font-size="16">Machinize</text>
<text xml:space="preserve" x="669.99994" y="300.6016" font-family="Sans,Helvetica" fill="rgb(0,0,0)" font-size="16"/>
</g>
</g>
<g id="s189898982">
<polygon id="s189898982" points="459.99994,143.08592 559.9999,143.08592 560.0,203.08586 459.99994,203.08592 " fill="none" stroke-width="2.0" stroke="rgb(0,0,0)"/>
<g id="t189898982">
<text xml:space="preserve" x="474.99997" y="179.36717" font-family="Sans,Helvetica" fill="rgb(0,0,0)" font-size="16">Build CFG</text>
</g>
</g>
<g id="s145475111">
<polygon id="s145475111" points="459.99994,243.08595 579.99963,243.08595 579.9999,303.0859 459.99994,303.08597 " fill="none" stroke-width="2.0" stroke="rgb(0,0,0)"/>
<g id="t145475111">
<text xml:space="preserve" x="501.99988" y="268.75003" font-family="Sans,Helvetica" fill="rgb(0,0,0)" font-size="16">Build</text>
<text xml:space="preserve" x="489.49988" y="289.9844" font-family="Sans,Helvetica" fill="rgb(0,0,0)" font-size="16">Live Info</text>
</g>
</g>
<g id="s11366612">
<polygon id="s11366612" points="299.99994,243.08595 419.99884,243.08595 419.99957,303.08597 299.99994,303.0858 " fill="none" stroke-width="2.0" stroke="rgb(0,0,0)"/>
<g id="t11366612">
<text xml:space="preserve" x="325.49976" y="268.75003" font-family="Sans,Helvetica" fill="rgb(0,0,0)" font-size="16">Build Live</text>
<text xml:space="preserve" x="333.49976" y="289.9844" font-family="Sans,Helvetica" fill="rgb(0,0,0)" font-size="16">Ranges</text>
</g>
</g>
<g id="s171037309">
<polygon id="s171037309" points="159.99994,243.08595 259.99982,243.08595 259.99994,303.08597 159.99994,303.08597 " fill="none" stroke-width="2.0" stroke="rgb(0,0,0)"/>
<g id="t171037309">
<text xml:space="preserve" x="185.99994" y="268.75003" font-family="Sans,Helvetica" fill="rgb(0,0,0)" font-size="16">Assign</text>
<text xml:space="preserve" x="177.49994" y="289.9844" font-family="Sans,Helvetica" fill="rgb(0,0,0)" font-size="16">Registers</text>
</g>
</g>
<g id="s252110194">
<polygon id="s252110194" points="159.99994,343.08597 259.99982,343.08597 259.99982,403.08597 159.99994,403.0859 " fill="none" stroke-width="2.0" stroke="rgb(0,0,0)"/>
<g id="t252110194">
<text xml:space="preserve" x="183.99988" y="379.36722" font-family="Sans,Helvetica" fill="rgb(0,0,0)" font-size="16">Rewrite</text>
</g>
</g>
<g id="s134520259">
<polygon id="s134520259" points="299.99994,343.08597 400.0,343.08597 400.0,403.08597 299.99994,403.08585 " fill="none" stroke-width="2.0" stroke="rgb(0,0,0)"/>
<g id="t134520259">
<text xml:space="preserve" x="318.49997" y="368.75003" font-family="Sans,Helvetica" fill="rgb(0,0,0)" font-size="16">Combine</text>
<text xml:space="preserve" x="330.99997" y="389.9844" font-family="Sans,Helvetica" fill="rgb(0,0,0)" font-size="16">Insns</text>
</g>
</g>
<g id="s165332544">
<polygon id="s165332544" points="440.0,343.08597 559.99976,343.08597 559.99976,403.08597 440.0,403.08597 " fill="none" stroke-width="2.0" stroke="rgb(0,0,0)"/>
<g id="t165332544">
<text xml:space="preserve" x="461.49988" y="368.75003" font-family="Sans,Helvetica" fill="rgb(0,0,0)" font-size="16">Dead Code</text>
<text xml:space="preserve" x="459.99988" y="389.9844" font-family="Sans,Helvetica" fill="rgb(0,0,0)" font-size="16">Elimination</text>
</g>
</g>
<g id="s924025">
<polygon id="s924025" points="600.0,343.08597 760.0,343.08597 759.9988,403.0856 600.0,403.08597 " fill="none" stroke-width="2.0" stroke="rgb(0,0,0)"/>
<g id="t924025">
<text xml:space="preserve" x="648.5" y="368.75003" font-family="Sans,Helvetica" fill="rgb(0,0,0)" font-size="16">Generate</text>
<text xml:space="preserve" x="629.5" y="389.9844" font-family="Sans,Helvetica" fill="rgb(0,0,0)" font-size="16">Machine Code</text>
</g>
</g>
<g id="s240772798">
<polygon id="s240772798" points="159.99994,143.08592 199.99988,143.08592 199.99994,203.08592 159.99997,203.08586 " fill="none" stroke-width="0.0" stroke="rgb(0,0,0)"/>
<g id="t240772798">
<text xml:space="preserve" x="165.99994" y="179.36717" font-family="Sans,Helvetica" fill="rgb(0,0,0)" font-size="16">MIR</text>
</g>
</g>
<g id="s92885791">
<polygon id="s92885791" points="800.0,343.08597 880.0,343.08597 879.9999,403.0858 800.0,403.08597 " fill="none" stroke-width="0.0" stroke="rgb(0,0,0)"/>
<g id="t92885791">
<text xml:space="preserve" x="809.5" y="368.75003" font-family="Sans,Helvetica" fill="rgb(0,0,0)" font-size="16">Machine</text>
<text xml:space="preserve" x="822.0" y="389.9844" font-family="Sans,Helvetica" fill="rgb(0,0,0)" font-size="16">Code</text>
</g>
</g>
<g id="s197527148">
<polygon id="s197527148" points="600.0,123.08595 719.9999,123.08595 720.00024,223.08583 600.0,223.08589 " fill="none" stroke-width="2.0" stroke="rgb(0,0,0)"/>
<g id="t197527148">
<text xml:space="preserve" x="637.0001" y="147.51561" font-family="Sans,Helvetica" fill="rgb(0,0,0)" font-size="16">Global</text>
<text xml:space="preserve" x="627.5001" y="168.74998" font-family="Sans,Helvetica" fill="rgb(0,0,0)" font-size="16">Common</text>
<text xml:space="preserve" x="628.5001" y="189.98436" font-family="Sans,Helvetica" fill="rgb(0,0,0)" font-size="16">Sub-Expr</text>
<text xml:space="preserve" x="618.0001" y="211.21873" font-family="Sans,Helvetica" fill="rgb(0,0,0)" font-size="16">Elimination </text>
</g>
</g>
<g id="s214815797">
<polygon id="s214815797" points="760.0,143.08592 880.0,143.08592 879.99976,203.08592 760.0,203.08586 " fill="none" stroke-width="2.0" stroke="rgb(0,0,0)"/>
<g id="t214815797">
<text xml:space="preserve" x="781.5" y="168.74998" font-family="Sans,Helvetica" fill="rgb(0,0,0)" font-size="16">Dead Code</text>
<text xml:space="preserve" x="780.0" y="189.98436" font-family="Sans,Helvetica" fill="rgb(0,0,0)" font-size="16">Elimination</text>
</g>
</g>
<g id="s4829386">
<polygon id="s4829386" points="760.0,223.08589 879.99963,223.08589 880.0,323.0858 760.0,323.08597 " fill="none" stroke-width="2.0" stroke="rgb(0,0,0)"/>
<g id="t4829386">
<text xml:space="preserve" x="795.5" y="247.51562" font-family="Sans,Helvetica" fill="rgb(0,0,0)" font-size="16">Sparse</text>
<text xml:space="preserve" x="779.5" y="268.75" font-family="Sans,Helvetica" fill="rgb(0,0,0)" font-size="16">Conditional</text>
<text xml:space="preserve" x="788.0" y="289.98438" font-family="Sans,Helvetica" fill="rgb(0,0,0)" font-size="16">Constant</text>
<text xml:space="preserve" x="776.5" y="311.21875" font-family="Sans,Helvetica" fill="rgb(0,0,0)" font-size="16">Propagation</text>
</g>
</g>
<g id="s158990907">
<polygon id="s158990907" points="219.99994,143.08592 299.99994,143.08592 299.99994,203.08592 219.99994,203.08586 " fill="none" stroke-width="2.0" stroke="rgb(0,0,0)"/>
<g id="t158990907">
<text xml:space="preserve" x="230.49994" y="179.36717" font-family="Sans,Helvetica" fill="rgb(0,0,0)" font-size="16">Simplify</text>
</g>
</g>
<g id="la7911172">
<path id="s7911172" d="M 819.9999,203.08592 819.9999,223.08589 " fill="none" stroke-width="2.0" stroke="rgb(0,0,0)"/>
<path id="s256401190" d="M 812.2693,213.90779 819.9999,223.08589 827.73047,213.90779 " fill="none" stroke-width="2.0" stroke="rgb(0,0,0)"/>
<g id="t7911172">
<text xml:space="preserve" x="823.9999" y="218.582" font-family="Sans,Helvetica" fill="rgb(0,0,0)" font-size="14"/>
</g>
</g>
<g id="la263749043">
<path id="s263749043" d="M 560.0,173.08589 600.0,173.08592 " fill="none" stroke-width="2.0" stroke="rgb(0,0,0)"/>
<path id="s204621671" d="M 590.8219,180.81653 600.0,173.08592 590.8219,165.3553 " fill="none" stroke-width="2.0" stroke="rgb(0,0,0)"/>
<g id="t263749043">
<text xml:space="preserve" x="580.0" y="165.29196" font-family="Sans,Helvetica" fill="rgb(0,0,0)" font-size="14"/>
</g>
</g>
<g id="la236795045">
<path id="s236795045" d="M 259.99982,373.08597 299.99994,373.0859 " fill="none" stroke-width="2.0" stroke="rgb(0,0,0)"/>
<path id="s64223508" d="M 290.82184,380.81653 299.99994,373.0859 290.8218,365.35532 " fill="none" stroke-width="2.0" stroke="rgb(0,0,0)"/>
<g id="t236795045">
<text xml:space="preserve" x="279.99988" y="365.292" font-family="Sans,Helvetica" fill="rgb(0,0,0)" font-size="14"/>
</g>
</g>
<g id="la172170584">
<path id="s172170584" d="M 419.9992,273.08597 459.99994,273.08597 " fill="none" stroke-width="2.0" stroke="rgb(0,0,0)"/>
<path id="s10311101" d="M 429.1773,265.35535 419.9992,273.08597 429.1773,280.8166 " fill="none" stroke-width="2.0" stroke="rgb(0,0,0)"/>
<g id="t172170584">
<text xml:space="preserve" x="439.99957" y="265.29202" font-family="Sans,Helvetica" fill="rgb(0,0,0)" font-size="14"/>
</g>
</g>
<g id="la100435735">
<path id="s100435735" d="M 759.9994,373.0858 800.0,373.08597 " fill="none" stroke-width="2.0" stroke="rgb(0,0,0)"/>
<path id="s93451011" d="M 790.82184,380.81653 800.0,373.08597 790.8219,365.35532 " fill="none" stroke-width="2.0" stroke="rgb(0,0,0)"/>
<g id="t100435735">
<text xml:space="preserve" x="779.9997" y="365.29193" font-family="Sans,Helvetica" fill="rgb(0,0,0)" font-size="14"/>
</g>
</g>
<g id="la201297698">
<path id="s201297698" d="M 419.99988,173.08589 459.99994,173.08592 " fill="none" stroke-width="2.0" stroke="rgb(0,0,0)"/>
<path id="s163960919" d="M 450.82184,180.81653 459.99994,173.08592 450.82184,165.3553 " fill="none" stroke-width="2.0" stroke="rgb(0,0,0)"/>
<g id="t201297698">
<text xml:space="preserve" x="439.9999" y="165.29196" font-family="Sans,Helvetica" fill="rgb(0,0,0)" font-size="14"/>
</g>
</g>
<g id="la244179612">
<path id="s244179612" d="M 209.99994,303.08597 209.99988,343.08597 " fill="none" stroke-width="2.0" stroke="rgb(0,0,0)"/>
<path id="s192008004" d="M 202.26927,333.90784 209.99988,343.08597 217.7305,333.90787 " fill="none" stroke-width="2.0" stroke="rgb(0,0,0)"/>
<g id="t244179612">
<text xml:space="preserve" x="213.99991" y="328.58206" font-family="Sans,Helvetica" fill="rgb(0,0,0)" font-size="14"/>
</g>
</g>
<g id="la85450874">
<path id="s85450874" d="M 199.99991,173.08592 199.99994,173.08592 199.99994,173.08589 219.99994,173.08589 " fill="none" stroke-width="2.0" stroke="rgb(0,0,0)"/>
<path id="s255076397" d="M 210.82184,180.8165 219.99994,173.08589 210.82184,165.35529 " fill="none" stroke-width="2.0" stroke="rgb(0,0,0)"/>
<g id="t85450874">
<text xml:space="preserve" x="209.99991" y="165.29195" font-family="Sans,Helvetica" fill="rgb(0,0,0)" font-size="14"/>
</g>
</g>
<g id="la205608173">
<path id="s205608173" d="M 299.99994,173.08592 339.99994,173.08592 " fill="none" stroke-width="2.0" stroke="rgb(0,0,0)"/>
<path id="s222364002" d="M 330.82184,180.81653 339.99994,173.08592 330.82184,165.35532 " fill="none" stroke-width="2.0" stroke="rgb(0,0,0)"/>
<g id="t205608173">
<text xml:space="preserve" x="319.99994" y="165.29198" font-family="Sans,Helvetica" fill="rgb(0,0,0)" font-size="14"/>
</g>
</g>
<g id="la70468111">
<path id="s70468111" d="M 259.99988,273.08597 299.99994,273.08585 " fill="none" stroke-width="2.0" stroke="rgb(0,0,0)"/>
<path id="s115712755" d="M 269.17795,265.35532 259.99988,273.08597 269.178,280.81656 " fill="none" stroke-width="2.0" stroke="rgb(0,0,0)"/>
<g id="t70468111">
<text xml:space="preserve" x="279.9999" y="265.29196" font-family="Sans,Helvetica" fill="rgb(0,0,0)" font-size="14"/>
</g>
</g>
<g id="la55328624">
<path id="s55328624" d="M 720.0,173.08589 760.0,173.08592 " fill="none" stroke-width="2.0" stroke="rgb(0,0,0)"/>
<path id="s39754672" d="M 750.8219,180.81653 760.0,173.08592 750.8219,165.3553 " fill="none" stroke-width="2.0" stroke="rgb(0,0,0)"/>
<g id="t55328624">
<text xml:space="preserve" x="740.0" y="165.29196" font-family="Sans,Helvetica" fill="rgb(0,0,0)" font-size="14"/>
</g>
</g>
<g id="la19626862">
<path id="s19626862" d="M 579.99976,273.0859 620.0,273.08597 " fill="none" stroke-width="2.0" stroke="rgb(0,0,0)"/>
<path id="s265820713" d="M 589.17786,265.35532 579.99976,273.0859 589.17786,280.81653 " fill="none" stroke-width="2.0" stroke="rgb(0,0,0)"/>
<g id="t19626862">
<text xml:space="preserve" x="599.9999" y="265.292" font-family="Sans,Helvetica" fill="rgb(0,0,0)" font-size="14"/>
</g>
</g>
<g id="la194281137">
<path id="s194281137" d="M 400.0,373.08597 440.0,373.08597 " fill="none" stroke-width="2.0" stroke="rgb(0,0,0)"/>
<path id="s196202926" d="M 430.8219,380.8166 440.0,373.08597 430.8219,365.35535 " fill="none" stroke-width="2.0" stroke="rgb(0,0,0)"/>
<g id="t194281137">
<text xml:space="preserve" x="420.0" y="365.29202" font-family="Sans,Helvetica" fill="rgb(0,0,0)" font-size="14"/>
</g>
</g>
<g id="la57365225">
<path id="s57365225" d="M 719.9999,273.08597 760.0,273.08597 " fill="none" stroke-width="2.0" stroke="rgb(0,0,0)"/>
<path id="s53312335" d="M 729.178,265.35535 719.9999,273.08597 729.178,280.8166 " fill="none" stroke-width="2.0" stroke="rgb(0,0,0)"/>
<g id="t57365225">
<text xml:space="preserve" x="739.99994" y="265.29202" font-family="Sans,Helvetica" fill="rgb(0,0,0)" font-size="14"/>
</g>
</g>
<g id="la179965846">
<path id="s179965846" d="M 559.99976,373.08597 600.0,373.08597 " fill="none" stroke-width="2.0" stroke="rgb(0,0,0)"/>
<path id="s67748572" d="M 590.8219,380.8166 600.0,373.08597 590.8219,365.35535 " fill="none" stroke-width="2.0" stroke="rgb(0,0,0)"/>
<g id="t179965846">
<text xml:space="preserve" x="579.9999" y="365.29202" font-family="Sans,Helvetica" fill="rgb(0,0,0)" font-size="14"/>
</g>
</g>
</svg>
