<?xml version="1.0" encoding="UTF-8"?><svg xmlns="http://www.w3.org/2000/svg" xmlns:xlink="http://www.w3.org/1999/xlink" width="799.0" height="680.0" viewBox="130.0 70.0 799.0 680.0" version="1.1">
<rect x="130.0" y="70.0" width="799.0" height="680.0" fill="rgb(255,255,255)"/>
<g id="s174885842">
<polygon id="s174885842" points="340.0,120.0 420.0,120.0 419.99988,179.99994 340.0,180.0 " fill="rgb(220,237,200)" stroke-width="2.0" stroke="rgb(0,0,0)"/>
<g id="t174885842">
<text xml:space="preserve" x="361.0" y="156.28125" font-family="Sans,Helvetica" fill="rgb(0,0,0)" font-size="16">Inline</text>
</g>
</g>
<g id="s155038883">
<polygon id="s155038883" points="320.0,380.00003 440.00006,380.00003 440.00006,440.0 320.0,440.0 " fill="rgb(220,237,200)" stroke-width="2.0" stroke="rgb(0,0,0)"/>
<g id="t155038883">
<text xml:space="preserve" x="380.00003" y="395.04688" font-family="Sans,Helvetica" fill="rgb(0,0,0)" font-size="16"/>
<text xml:space="preserve" x="343.50003" y="416.28125" font-family="Sans,Helvetica" fill="rgb(0,0,0)" font-size="16">Machinize</text>
<text xml:space="preserve" x="380.00003" y="437.51562" font-family="Sans,Helvetica" fill="rgb(0,0,0)" font-size="16"/>
</g>
</g>
<g id="s90293152">
<polygon id="s90293152" points="459.99997,120.0 560.0,120.0 560.0001,179.99994 459.99997,180.0 " fill="rgb(220,237,200)" stroke-width="2.0" stroke="rgb(0,0,0)"/>
<g id="t90293152">
<text xml:space="preserve" x="475.00006" y="156.28125" font-family="Sans,Helvetica" fill="rgb(0,0,0)" font-size="16">Build CFG</text>
</g>
</g>
<g id="s33241945">
<polygon id="s33241945" points="640.0,380.0 739.9996,380.0 739.99994,440.0 640.0,440.0 " fill="rgb(220,237,200)" stroke-width="2.0" stroke="rgb(0,0,0)"/>
<g id="t33241945">
<text xml:space="preserve" x="672.0" y="405.66406" font-family="Sans,Helvetica" fill="rgb(0,0,0)" font-size="16">Build</text>
<text xml:space="preserve" x="659.5" y="426.89844" font-family="Sans,Helvetica" fill="rgb(0,0,0)" font-size="16">Live Info</text>
</g>
</g>
<g id="s65245982">
<polygon id="s65245982" points="800.0,380.0 899.99915,380.0 899.9999,440.00003 800.0,439.99973 " fill="rgb(220,237,200)" stroke-width="2.0" stroke="rgb(0,0,0)"/>
<g id="t65245982">
<text xml:space="preserve" x="815.49994" y="405.66406" font-family="Sans,Helvetica" fill="rgb(0,0,0)" font-size="16">Build Live</text>
<text xml:space="preserve" x="823.49994" y="426.89844" font-family="Sans,Helvetica" fill="rgb(0,0,0)" font-size="16">Ranges</text>
</g>
</g>
<g id="s99416063">
<polygon id="s99416063" points="800.0,500.0 899.99976,500.0 899.9999,579.99976 800.0,580.0 " fill="rgb(220,237,200)" stroke-width="2.0" stroke="rgb(0,0,0)"/>
<g id="t99416063">
<text xml:space="preserve" x="825.99994" y="535.66406" font-family="Sans,Helvetica" fill="rgb(0,0,0)" font-size="16">Assign</text>
<text xml:space="preserve" x="817.49994" y="556.89844" font-family="Sans,Helvetica" fill="rgb(0,0,0)" font-size="16">Registers</text>
</g>
</g>
<g id="s128940492">
<polygon id="s128940492" points="680.0,500.0 759.9999,500.0 759.9999,580.0 680.0,579.9997 " fill="rgb(220,237,200)" stroke-width="2.0" stroke="rgb(0,0,0)"/>
<g id="t128940492">
<text xml:space="preserve" x="693.99994" y="546.28125" font-family="Sans,Helvetica" fill="rgb(0,0,0)" font-size="16">Rewrite</text>
</g>
</g>
<g id="s211498005">
<polygon id="s211498005" points="400.0,500.00003 500.00015,500.00003 499.9999,579.99976 400.0,580.0 " fill="rgb(178,235,242)" stroke-width="2.0" stroke="rgb(0,0,0)"/>
<g id="t211498005">
<text xml:space="preserve" x="411.50006" y="535.66406" font-family="Sans,Helvetica" fill="rgb(0,0,0)" font-size="16">Dead Code</text>
<text xml:space="preserve" x="410.00006" y="556.89844" font-family="Sans,Helvetica" fill="rgb(0,0,0)" font-size="16">Elimination</text>
</g>
</g>
<g id="s87147306">
<polygon id="s87147306" points="260.0,500.0 360.00006,500.0 359.99957,579.99976 260.0,580.0 " fill="rgb(220,237,200)" stroke-width="2.0" stroke="rgb(0,0,0)"/>
<g id="t87147306">
<text xml:space="preserve" x="278.50003" y="525.0469" font-family="Sans,Helvetica" fill="rgb(0,0,0)" font-size="16">Generate</text>
<text xml:space="preserve" x="279.50003" y="546.28125" font-family="Sans,Helvetica" fill="rgb(0,0,0)" font-size="16">Machine</text>
<text xml:space="preserve" x="292.00003" y="567.5156" font-family="Sans,Helvetica" fill="rgb(0,0,0)" font-size="16">Code</text>
</g>
</g>
<g id="s203625755">
<polygon id="s203625755" points="160.0,120.0 199.99994,120.0 200.0,180.0 160.00003,179.99994 " fill="none" stroke-width="0.0" stroke="rgb(0,0,0)"/>
<g id="t203625755">
<text xml:space="preserve" x="166.0" y="156.28125" font-family="Sans,Helvetica" fill="rgb(0,0,0)" font-size="16">MIR</text>
</g>
</g>
<g id="s155215544">
<polygon id="s155215544" points="160.0,500.0 240.0,500.0 239.99988,579.99963 160.0,580.0 " fill="none" stroke-width="0.0" stroke="rgb(0,0,0)"/>
<g id="t155215544">
<text xml:space="preserve" x="169.5" y="535.66406" font-family="Sans,Helvetica" fill="rgb(0,0,0)" font-size="16">Machine</text>
<text xml:space="preserve" x="182.0" y="556.89844" font-family="Sans,Helvetica" fill="rgb(0,0,0)" font-size="16">Code</text>
</g>
</g>
<g id="s168295569">
<polygon id="s168295569" points="600.0,100.0 719.9999,100.0 720.00024,199.99988 600.0,199.99994 " fill="rgb(144,202,249)" stroke-width="2.0" stroke="rgb(0,0,0)"/>
<g id="t168295569">
<text xml:space="preserve" x="637.0001" y="124.42966" font-family="Sans,Helvetica" fill="rgb(0,0,0)" font-size="16">Global</text>
<text xml:space="preserve" x="627.5001" y="145.66403" font-family="Sans,Helvetica" fill="rgb(0,0,0)" font-size="16">Common</text>
<text xml:space="preserve" x="628.5001" y="166.8984" font-family="Sans,Helvetica" fill="rgb(0,0,0)" font-size="16">Sub-Expr</text>
<text xml:space="preserve" x="620.0001" y="188.13278" font-family="Sans,Helvetica" fill="rgb(0,0,0)" font-size="16">Elimination</text>
</g>
</g>
<g id="s226551798">
<polygon id="s226551798" points="760.0,120.0 880.0,120.0 879.99976,180.0 760.0,179.99994 " fill="rgb(144,202,249)" stroke-width="2.0" stroke="rgb(0,0,0)"/>
<g id="t226551798">
<text xml:space="preserve" x="781.5" y="145.66406" font-family="Sans,Helvetica" fill="rgb(0,0,0)" font-size="16">Dead Code</text>
<text xml:space="preserve" x="780.0" y="166.89844" font-family="Sans,Helvetica" fill="rgb(0,0,0)" font-size="16">Elimination</text>
</g>
</g>
<g id="s80996343">
<polygon id="s80996343" points="160.00002,360.0 279.99976,360.0 280.00012,459.99985 160.00002,460.0001 " fill="rgb(144,202,249)" stroke-width="2.0" stroke="rgb(0,0,0)"/>
<g id="t80996343">
<text xml:space="preserve" x="195.50006" y="384.42975" font-family="Sans,Helvetica" fill="rgb(0,0,0)" font-size="16">Sparse</text>
<text xml:space="preserve" x="179.50006" y="405.66412" font-family="Sans,Helvetica" fill="rgb(0,0,0)" font-size="16">Conditional</text>
<text xml:space="preserve" x="188.00006" y="426.8985" font-family="Sans,Helvetica" fill="rgb(0,0,0)" font-size="16">Constant</text>
<text xml:space="preserve" x="176.50006" y="448.13287" font-family="Sans,Helvetica" fill="rgb(0,0,0)" font-size="16">Propagation</text>
</g>
</g>
<g id="s250689124">
<polygon id="s250689124" points="220.00002,120.0 300.0,120.0 300.0,180.0 220.00002,179.99994 " fill="rgb(220,237,200)" stroke-width="2.0" stroke="rgb(0,0,0)"/>
<g id="t250689124">
<text xml:space="preserve" x="230.5" y="156.28125" font-family="Sans,Helvetica" fill="rgb(0,0,0)" font-size="16">Simplify</text>
</g>
</g>
<g id="s10408141">
<polygon id="s10408141" points="540.0,500.0 639.99976,500.0 640.0,580.0 540.0,579.9997 " fill="rgb(178,235,242)" stroke-width="2.0" stroke="rgb(0,0,0)"/>
<g id="t10408141">
<text xml:space="preserve" x="558.5" y="535.66406" font-family="Sans,Helvetica" fill="rgb(0,0,0)" font-size="16">Combine</text>
<text xml:space="preserve" x="571.0" y="556.89844" font-family="Sans,Helvetica" fill="rgb(0,0,0)" font-size="16">Insns</text>
</g>
</g>
<g id="s46894466">
<polygon id="s46894466" points="760.0,220.0 879.99884,220.0 880.0,319.99988 760.0,320.0 " fill="rgb(209,196,233)" stroke-width="2.0" stroke="rgb(0,0,0)"/>
<g id="t46894466">
<text xml:space="preserve" x="787.0" y="255.04688" font-family="Sans,Helvetica" fill="rgb(0,0,0)" font-size="16">Reaching</text>
<text xml:space="preserve" x="781.5" y="276.28125" font-family="Sans,Helvetica" fill="rgb(0,0,0)" font-size="16">Definitions</text>
<text xml:space="preserve" x="790.0" y="297.51562" font-family="Sans,Helvetica" fill="rgb(0,0,0)" font-size="16">Analysis</text>
</g>
</g>
<g id="s173345939">
<polygon id="s173345939" points="620.0,240.0 719.9998,240.0 720.0,300.0 620.0,300.0 " fill="rgb(209,196,233)" stroke-width="2.0" stroke="rgb(0,0,0)"/>
<g id="t173345939">
<text xml:space="preserve" x="641.0" y="265.66406" font-family="Sans,Helvetica" fill="rgb(0,0,0)" font-size="16">Variable</text>
<text xml:space="preserve" x="634.0" y="286.89844" font-family="Sans,Helvetica" fill="rgb(0,0,0)" font-size="16">Renaming</text>
</g>
</g>
<g id="s213734608">
<polygon id="s213734608" points="460.0,240.0 579.99976,240.0 579.99976,300.0 460.0,299.9999 " fill="rgb(209,196,233)" stroke-width="2.0" stroke="rgb(0,0,0)"/>
<g id="t213734608">
<text xml:space="preserve" x="480.49988" y="276.28125" font-family="Sans,Helvetica" fill="rgb(0,0,0)" font-size="16">Find Loops</text>
</g>
</g>
<g id="s89435337">
<polygon id="s89435337" points="320.0,220.0 419.99997,220.0 420.0,320.0 320.0,319.99976 " fill="rgb(209,196,233)" stroke-width="2.0" stroke="rgb(0,0,0)"/>
<g id="t89435337">
<text xml:space="preserve" x="337.0" y="255.04688" font-family="Sans,Helvetica" fill="rgb(0,0,0)" font-size="16">Reaching</text>
<text xml:space="preserve" x="331.5" y="276.28125" font-family="Sans,Helvetica" fill="rgb(0,0,0)" font-size="16">Definitions</text>
<text xml:space="preserve" x="340.0" y="297.51562" font-family="Sans,Helvetica" fill="rgb(0,0,0)" font-size="16">Analysis</text>
</g>
</g>
<g id="s237567950">
<polygon id="s237567950" points="160.00002,220.0 279.99994,220.0 280.0,320.0 160.00002,319.99994 " fill="rgb(209,196,233)" stroke-width="2.0" stroke="rgb(0,0,0)"/>
<g id="t237567950">
<text xml:space="preserve" x="200.0" y="255.04688" font-family="Sans,Helvetica" fill="rgb(0,0,0)" font-size="16">Loop </text>
<text xml:space="preserve" x="189.0" y="276.28125" font-family="Sans,Helvetica" fill="rgb(0,0,0)" font-size="16">Invariant</text>
<text xml:space="preserve" x="173.0" y="297.51562" font-family="Sans,Helvetica" fill="rgb(0,0,0)" font-size="16">Code Motion </text>
</g>
</g>
<g id="s213507823">
<polygon id="s213507823" points="479.99997,380.0 600.0001,380.0 600.0001,439.99994 479.99997,440.0 " fill="rgb(220,237,200)" stroke-width="2.0" stroke="rgb(0,0,0)"/>
<g id="t213507823">
<text xml:space="preserve" x="500.50006" y="416.28125" font-family="Sans,Helvetica" fill="rgb(0,0,0)" font-size="16">Find Loops</text>
</g>
</g>
<g id="s44964249">
<polygon id="s44964249" points="580.0,600.0 719.9984,600.0 720.0,719.9932 580.0,720.0 " fill="none" stroke-width="0.0" stroke="rgb(0,0,0)"/>
<g id="t44964249">
<text xml:space="preserve" x="585.0" y="623.8125" font-family="Sans,Helvetica" fill="rgb(0,0,0)" font-size="16">-O0</text>
<text xml:space="preserve" x="585.0" y="645.0469" font-family="Sans,Helvetica" fill="rgb(0,0,0)" font-size="16">-O1</text>
<text xml:space="preserve" x="585.0" y="666.28125" font-family="Sans,Helvetica" fill="rgb(0,0,0)" font-size="16">-O2 default</text>
<text xml:space="preserve" x="585.0" y="687.5156" font-family="Sans,Helvetica" fill="rgb(0,0,0)" font-size="16">-O3</text>
<text xml:space="preserve" x="585.0" y="708.75" font-family="Sans,Helvetica" fill="rgb(0,0,0)" font-size="16"/>
</g>
</g>
<g id="s103398515">
<polygon id="s103398515" points="219.99998,600.0 499.9953,600.0 499.99994,719.9999 219.99998,720.0 " fill="none" stroke-width="0.0" stroke="rgb(0,0,0)"/>
<g id="t103398515">
<text xml:space="preserve" x="238.49994" y="666.28125" font-family="Sans,Helvetica" fill="rgb(0,0,0)" font-size="16">Optimizations added on each level</text>
</g>
</g>
<g id="la149614076">
<path id="s149614076" d="M 300.0,150.0 340.0,150.0 " fill="none" stroke-width="2.0" stroke="rgb(0,0,0)"/>
<path id="s28688031" d="M 330.8219,157.7306 340.0,150.0 330.8219,142.26938 " fill="none" stroke-width="2.0" stroke="rgb(0,0,0)"/>
<g id="t149614076">
<text xml:space="preserve" x="320.0" y="142.20605" font-family="Sans,Helvetica" fill="rgb(0,0,0)" font-size="14"/>
</g>
</g>
<g id="la225594501">
<path id="s225594501" d="M 720.00006,149.99994 760.0,149.99997 " fill="none" stroke-width="2.0" stroke="rgb(0,0,0)"/>
<path id="s179366837" d="M 750.8219,157.73058 760.0,149.99997 750.8219,142.26935 " fill="none" stroke-width="2.0" stroke="rgb(0,0,0)"/>
<g id="t225594501">
<text xml:space="preserve" x="740.0" y="142.20601" font-family="Sans,Helvetica" fill="rgb(0,0,0)" font-size="14"/>
</g>
</g>
<g id="la14240474">
<path id="s14240474" d="M 199.99997,150.0 200.0,150.0 200.0,149.99997 220.00002,149.99997 " fill="none" stroke-width="2.0" stroke="rgb(0,0,0)"/>
<path id="s136557130" d="M 210.82191,157.73058 220.00002,149.99997 210.82191,142.26935 " fill="none" stroke-width="2.0" stroke="rgb(0,0,0)"/>
<g id="t14240474">
<text xml:space="preserve" x="209.99997" y="142.20602" font-family="Sans,Helvetica" fill="rgb(0,0,0)" font-size="14"/>
</g>
</g>
<g id="la267352843">
<path id="s267352843" d="M 560.00006,149.99997 600.0,149.99997 " fill="none" stroke-width="2.0" stroke="rgb(0,0,0)"/>
<path id="s113354171" d="M 590.8219,157.73058 600.0,149.99997 590.8219,142.26935 " fill="none" stroke-width="2.0" stroke="rgb(0,0,0)"/>
<g id="t267352843">
<text xml:space="preserve" x="580.0" y="142.20602" font-family="Sans,Helvetica" fill="rgb(0,0,0)" font-size="14"/>
</g>
</g>
<g id="la100068840">
<path id="s100068840" d="M 419.99994,149.99997 459.99997,150.0 " fill="none" stroke-width="2.0" stroke="rgb(0,0,0)"/>
<path id="s177519320" d="M 450.82187,157.7306 459.99997,150.0 450.82187,142.26938 " fill="none" stroke-width="2.0" stroke="rgb(0,0,0)"/>
<g id="t100068840">
<text xml:space="preserve" x="439.99994" y="141.66405" font-family="Sans,Helvetica" fill="rgb(0,0,0)" font-size="16"/>
</g>
</g>
<g id="la1059841">
<path id="s1059841" d="M 719.9999,270.0 760.0,269.9999 " fill="none" stroke-width="2.0" stroke="rgb(0,0,0)"/>
<path id="s223448625" d="M 729.178,262.26938 719.9999,270.0 729.178,277.7306 " fill="none" stroke-width="2.0" stroke="rgb(0,0,0)"/>
<g id="t1059841">
<text xml:space="preserve" x="739.99994" y="261.66403" font-family="Sans,Helvetica" fill="rgb(0,0,0)" font-size="16"/>
</g>
</g>
<g id="la236010150">
<path id="s236010150" d="M 579.99976,270.0 620.0,270.0 " fill="none" stroke-width="2.0" stroke="rgb(0,0,0)"/>
<path id="s267561238" d="M 589.17786,262.26938 579.99976,270.0 589.17786,277.73062 " fill="none" stroke-width="2.0" stroke="rgb(0,0,0)"/>
<g id="t236010150">
<text xml:space="preserve" x="599.9999" y="261.66406" font-family="Sans,Helvetica" fill="rgb(0,0,0)" font-size="16"/>
</g>
</g>
<g id="la261668071">
<path id="s261668071" d="M 420.0,270.0 460.0,269.99994 " fill="none" stroke-width="2.0" stroke="rgb(0,0,0)"/>
<path id="s115008151" d="M 429.1781,262.26938 420.0,270.0 429.17813,277.7306 " fill="none" stroke-width="2.0" stroke="rgb(0,0,0)"/>
<g id="t261668071">
<text xml:space="preserve" x="440.0" y="261.66403" font-family="Sans,Helvetica" fill="rgb(0,0,0)" font-size="16"/>
</g>
</g>
<g id="la255918228">
<path id="s255918228" d="M 320.0,269.99988 279.99997,270.0 " fill="none" stroke-width="2.0" stroke="rgb(0,0,0)"/>
<path id="s67546244" d="M 289.17804,262.26935 279.99997,270.0 289.1781,277.7306 " fill="none" stroke-width="2.0" stroke="rgb(0,0,0)"/>
<g id="t255918228">
<text xml:space="preserve" x="300.0" y="261.664" font-family="Sans,Helvetica" fill="rgb(0,0,0)" font-size="16"/>
</g>
</g>
<g id="la55740221">
<path id="s55740221" d="M 819.9999,179.99997 819.9994,220.0 " fill="none" stroke-width="2.0" stroke="rgb(0,0,0)"/>
<path id="s25156717" d="M 812.26886,210.8218 819.9994,220.0 827.7301,210.82199 " fill="none" stroke-width="2.0" stroke="rgb(0,0,0)"/>
<g id="t55740221">
<text xml:space="preserve" x="823.99963" y="206.28123" font-family="Sans,Helvetica" fill="rgb(0,0,0)" font-size="16"/>
</g>
</g>
<g id="la92691250">
<path id="s92691250" d="M 220.0,319.99997 219.99988,360.0 " fill="none" stroke-width="2.0" stroke="rgb(0,0,0)"/>
<path id="s31998114" d="M 212.26929,350.82187 219.99988,360.0 227.73051,350.82193 " fill="none" stroke-width="2.0" stroke="rgb(0,0,0)"/>
<g id="t92691250">
<text xml:space="preserve" x="223.99994" y="346.28125" font-family="Sans,Helvetica" fill="rgb(0,0,0)" font-size="16"/>
</g>
</g>
<g id="la78266499">
<path id="s78266499" d="M 739.99976,410.0 800.0,409.99988 " fill="none" stroke-width="2.0" stroke="rgb(0,0,0)"/>
<path id="s48304435" d="M 790.8219,417.7305 800.0,409.99988 790.8219,402.2693 " fill="none" stroke-width="2.0" stroke="rgb(0,0,0)"/>
<g id="t78266499">
<text xml:space="preserve" x="769.9999" y="401.664" font-family="Sans,Helvetica" fill="rgb(0,0,0)" font-size="16"/>
</g>
</g>
<g id="la74945024">
<path id="s74945024" d="M 849.99994,439.99988 849.9999,500.0 " fill="none" stroke-width="2.0" stroke="rgb(0,0,0)"/>
<path id="s226757872" d="M 842.2693,490.8219 849.9999,500.0 857.7305,490.8219 " fill="none" stroke-width="2.0" stroke="rgb(0,0,0)"/>
<g id="t74945024">
<text xml:space="preserve" x="853.99994" y="476.2812" font-family="Sans,Helvetica" fill="rgb(0,0,0)" font-size="16"/>
</g>
</g>
<g id="la23419449">
<path id="s23419449" d="M 759.9999,540.0 800.0,540.0 " fill="none" stroke-width="2.0" stroke="rgb(0,0,0)"/>
<path id="s248173161" d="M 769.178,532.2694 759.9999,540.0 769.178,547.7306 " fill="none" stroke-width="2.0" stroke="rgb(0,0,0)"/>
<g id="t23419449">
<text xml:space="preserve" x="779.99994" y="531.66406" font-family="Sans,Helvetica" fill="rgb(0,0,0)" font-size="16"/>
</g>
</g>
<g id="la180025470">
<path id="s180025470" d="M 500.00003,539.9999 540.0,539.9999 " fill="none" stroke-width="2.0" stroke="rgb(0,0,0)"/>
<path id="s246269166" d="M 509.17813,532.2693 500.00003,539.9999 509.17813,547.73047 " fill="none" stroke-width="2.0" stroke="rgb(0,0,0)"/>
<g id="t180025470">
<text xml:space="preserve" x="520.0" y="531.66394" font-family="Sans,Helvetica" fill="rgb(0,0,0)" font-size="16"/>
</g>
</g>
<g id="la147218911">
<path id="s147218911" d="M 639.9999,540.0 680.0,539.9999 " fill="none" stroke-width="2.0" stroke="rgb(0,0,0)"/>
<path id="s1150351" d="M 649.178,532.26935 639.9999,540.0 649.178,547.7306 " fill="none" stroke-width="2.0" stroke="rgb(0,0,0)"/>
<g id="t147218911">
<text xml:space="preserve" x="659.99994" y="531.664" font-family="Sans,Helvetica" fill="rgb(0,0,0)" font-size="16"/>
</g>
</g>
<g id="la264490540">
<path id="s264490540" d="M 359.99982,539.9999 400.0,540.0 " fill="none" stroke-width="2.0" stroke="rgb(0,0,0)"/>
<path id="s204802076" d="M 369.17795,532.2693 359.99982,539.9999 369.1779,547.7305 " fill="none" stroke-width="2.0" stroke="rgb(0,0,0)"/>
<g id="t264490540">
<text xml:space="preserve" x="379.9999" y="531.664" font-family="Sans,Helvetica" fill="rgb(0,0,0)" font-size="16"/>
</g>
</g>
<g id="la20472053">
<path id="s20472053" d="M 239.99994,539.9998 260.0,540.0 " fill="none" stroke-width="2.0" stroke="rgb(0,0,0)"/>
<path id="s213199909" d="M 249.17812,532.2693 239.99994,539.9998 249.17798,547.7305 " fill="none" stroke-width="2.0" stroke="rgb(0,0,0)"/>
<g id="t20472053">
<text xml:space="preserve" x="249.99997" y="531.66394" font-family="Sans,Helvetica" fill="rgb(0,0,0)" font-size="16"/>
</g>
</g>
<g id="la84549258">
<path id="s84549258" d="M 440.00006,410.0 479.99997,410.0 " fill="none" stroke-width="2.0" stroke="rgb(0,0,0)"/>
<path id="s104153594" d="M 470.82187,417.73062 479.99997,410.0 470.82187,402.26938 " fill="none" stroke-width="2.0" stroke="rgb(0,0,0)"/>
<g id="t84549258">
<text xml:space="preserve" x="460.0" y="401.66406" font-family="Sans,Helvetica" fill="rgb(0,0,0)" font-size="16"/>
</g>
</g>
<g id="la56179963">
<path id="s56179963" d="M 600.0001,409.99997 640.0,410.0 " fill="none" stroke-width="2.0" stroke="rgb(0,0,0)"/>
<path id="s2323371" d="M 630.8219,417.7306 640.0,410.0 630.8219,402.26938 " fill="none" stroke-width="2.0" stroke="rgb(0,0,0)"/>
<g id="t56179963">
<text xml:space="preserve" x="620.00006" y="401.66403" font-family="Sans,Helvetica" fill="rgb(0,0,0)" font-size="16"/>
</g>
</g>
<g id="la45457688">
<path id="s45457688" d="M 279.99994,409.99994 320.0,410.0 " fill="none" stroke-width="2.0" stroke="rgb(0,0,0)"/>
<path id="s228100616" d="M 310.82187,417.7306 320.0,410.0 310.8219,402.26938 " fill="none" stroke-width="2.0" stroke="rgb(0,0,0)"/>
<g id="t45457688">
<text xml:space="preserve" x="299.99997" y="401.66403" font-family="Sans,Helvetica" fill="rgb(0,0,0)" font-size="16"/>
</g>
</g>
<g id="la66842766">
<path id="s66842766" d="M 499.99792,659.9999 580.0,660.0 " fill="none" stroke-width="2.0" stroke="rgb(144,202,249)"/>
</g>
<g id="la56586835">
<path id="s56586835" d="M 499.99835,679.99994 580.0,680.0 " fill="none" stroke-width="2.0" stroke="rgb(209,196,233)"/>
</g>
<g id="la61548432">
<path id="s61548432" d="M 499.99698,639.99994 580.0,640.0 " fill="none" stroke-width="2.0" stroke="rgb(178,235,242)"/>
</g>
<g id="la256764041">
<path id="s256764041" d="M 499.99603,619.99994 580.0,620.0 " fill="none" stroke-width="2.0" stroke="rgb(220,237,200)"/>
</g>
</svg>
