<?xml version="1.0" encoding="UTF-8"?><svg xmlns="http://www.w3.org/2000/svg" xmlns:xlink="http://www.w3.org/1999/xlink" width="960.0" height="542.0" viewBox="-30.0 47.0 960.0 542.0" version="1.1">
<rect x="-30.0" y="47.0" width="960.0" height="542.0" fill="rgb(255,255,255)"/>
<g id="s5149974">
<polygon id="s5149974" points="200.00002,100.0 280.00003,100.0 279.99994,139.99994 200.00002,140.0 " fill="rgb(220,237,200)" stroke-width="2.0" stroke="rgb(0,0,0)"/>
<g id="t5149974">
<text xml:space="preserve" x="221.00003" y="126.28125" font-family="Sans,Helvetica" fill="rgb(0,0,0)" font-size="16">Inline</text>
</g>
</g>
<g id="s132538007">
<polygon id="s132538007" points="120.00001,320.0 240.0,320.0 239.99994,380.0 120.00001,379.9996 " fill="rgb(220,237,200)" stroke-width="2.0" stroke="rgb(0,0,0)"/>
<g id="t132538007">
<text xml:space="preserve" x="180.0" y="335.04688" font-family="Sans,Helvetica" fill="rgb(0,0,0)" font-size="16"/>
<text xml:space="preserve" x="143.5" y="356.28125" font-family="Sans,Helvetica" fill="rgb(0,0,0)" font-size="16">Machinize</text>
<text xml:space="preserve" x="180.0" y="377.51562" font-family="Sans,Helvetica" fill="rgb(0,0,0)" font-size="16"/>
</g>
</g>
<g id="s229800068">
<polygon id="s229800068" points="319.99997,100.0 419.99985,100.0 419.99997,139.99992 319.99997,140.0 " fill="rgb(144,202,249)" stroke-width="2.0" stroke="rgb(0,0,0)"/>
<g id="t229800068">
<text xml:space="preserve" x="334.99997" y="126.28125" font-family="Sans,Helvetica" fill="rgb(0,0,0)" font-size="16">Build CFG</text>
</g>
</g>
<g id="s265140333">
<polygon id="s265140333" points="420.00003,320.0 499.99988,320.0 500.0,380.0 420.00003,379.99994 " fill="rgb(220,237,200)" stroke-width="2.0" stroke="rgb(0,0,0)"/>
<g id="t265140333">
<text xml:space="preserve" x="442.0" y="345.66406" font-family="Sans,Helvetica" fill="rgb(0,0,0)" font-size="16">Build</text>
<text xml:space="preserve" x="429.5" y="366.89844" font-family="Sans,Helvetica" fill="rgb(0,0,0)" font-size="16">Live Info</text>
</g>
</g>
<g id="s169274530">
<polygon id="s169274530" points="540.0,320.0 640.0,320.0 640.0,380.0 540.0,379.9996 " fill="rgb(178,235,242)" stroke-width="2.0" stroke="rgb(0,0,0)"/>
<g id="t169274530">
<text xml:space="preserve" x="555.5" y="345.66406" font-family="Sans,Helvetica" fill="rgb(0,0,0)" font-size="16">Build Live</text>
<text xml:space="preserve" x="563.5" y="366.89844" font-family="Sans,Helvetica" fill="rgb(0,0,0)" font-size="16">Ranges</text>
</g>
</g>
<g id="s254299443">
<polygon id="s254299443" points="680.0,320.0 779.99994,320.0 780.0,379.99994 680.0,380.0 " fill="rgb(220,237,200)" stroke-width="2.0" stroke="rgb(0,0,0)"/>
<g id="t254299443">
<text xml:space="preserve" x="706.0" y="345.66406" font-family="Sans,Helvetica" fill="rgb(0,0,0)" font-size="16">Assign</text>
<text xml:space="preserve" x="697.5" y="366.89844" font-family="Sans,Helvetica" fill="rgb(0,0,0)" font-size="16">Registers</text>
</g>
</g>
<g id="s69245168">
<polygon id="s69245168" points="820.0,320.0 900.0,320.0 899.9995,379.99963 820.0,380.0 " fill="rgb(220,237,200)" stroke-width="2.0" stroke="rgb(0,0,0)"/>
<g id="t69245168">
<text xml:space="preserve" x="834.0" y="356.28125" font-family="Sans,Helvetica" fill="rgb(0,0,0)" font-size="16">Rewrite</text>
</g>
</g>
<g id="s169504361">
<polygon id="s169504361" points="679.99994,420.0 780.0,420.0 779.9995,479.99878 679.99994,480.0 " fill="rgb(178,235,242)" stroke-width="2.0" stroke="rgb(0,0,0)"/>
<g id="t169504361">
<text xml:space="preserve" x="691.5" y="445.66406" font-family="Sans,Helvetica" fill="rgb(0,0,0)" font-size="16">Dead Code</text>
<text xml:space="preserve" x="690.0" y="466.89844" font-family="Sans,Helvetica" fill="rgb(0,0,0)" font-size="16">Elimination</text>
</g>
</g>
<g id="s152776942">
<polygon id="s152776942" points="520.0,420.0 640.0,420.0 639.99963,479.99994 520.0,480.0 " fill="rgb(220,237,200)" stroke-width="2.0" stroke="rgb(0,0,0)"/>
<g id="t152776942">
<text xml:space="preserve" x="548.5" y="445.66406" font-family="Sans,Helvetica" fill="rgb(0,0,0)" font-size="16">Generate</text>
<text xml:space="preserve" x="529.5" y="466.89844" font-family="Sans,Helvetica" fill="rgb(0,0,0)" font-size="16">Machine Code</text>
</g>
</g>
<g id="s261130639">
<polygon id="s261130639" points="-3.2123336E-13,100.0 39.999928,100.0 40.0,140.0 1.7794384E-5,139.99991 " fill="none" stroke-width="0.0" stroke="rgb(0,0,0)"/>
<g id="t261130639">
<text xml:space="preserve" x="6.0" y="126.28125" font-family="Sans,Helvetica" fill="rgb(0,0,0)" font-size="16">MIR</text>
</g>
</g>
<g id="s235820060">
<polygon id="s235820060" points="400.0,420.0 479.99982,420.0 479.99976,480.0 400.0,479.99982 " fill="none" stroke-width="0.0" stroke="rgb(0,0,0)"/>
<g id="t235820060">
<text xml:space="preserve" x="409.4999" y="445.66406" font-family="Sans,Helvetica" fill="rgb(0,0,0)" font-size="16">Machine</text>
<text xml:space="preserve" x="421.9999" y="466.89844" font-family="Sans,Helvetica" fill="rgb(0,0,0)" font-size="16">Code</text>
</g>
</g>
<g id="s56789029">
<polygon id="s56789029" points="460.0,80.0 579.9998,80.0 580.0,159.99994 460.0,160.0 " fill="rgb(144,202,249)" stroke-width="2.0" stroke="rgb(0,0,0)"/>
<g id="t56789029">
<text xml:space="preserve" x="497.0" y="94.42969" font-family="Sans,Helvetica" fill="rgb(0,0,0)" font-size="16">Global</text>
<text xml:space="preserve" x="487.5" y="115.66406" font-family="Sans,Helvetica" fill="rgb(0,0,0)" font-size="16">Common</text>
<text xml:space="preserve" x="488.5" y="136.89844" font-family="Sans,Helvetica" fill="rgb(0,0,0)" font-size="16">Sub-Expr</text>
<text xml:space="preserve" x="480.0" y="158.13281" font-family="Sans,Helvetica" fill="rgb(0,0,0)" font-size="16">Elimination</text>
</g>
</g>
<g id="s135097850">
<polygon id="s135097850" points="620.0,80.0 740.0,80.0 739.99963,160.0 620.0,159.99988 " fill="rgb(144,202,249)" stroke-width="2.0" stroke="rgb(0,0,0)"/>
<g id="t135097850">
<text xml:space="preserve" x="641.5" y="115.66406" font-family="Sans,Helvetica" fill="rgb(0,0,0)" font-size="16">Dead Code</text>
<text xml:space="preserve" x="640.0" y="136.89844" font-family="Sans,Helvetica" fill="rgb(0,0,0)" font-size="16">Elimination</text>
</g>
</g>
<g id="s244723627">
<polygon id="s244723627" points="99.99999,200.0 259.99957,200.0 259.99994,279.99976 100.00001,280.0 " fill="rgb(144,202,249)" stroke-width="2.0" stroke="rgb(0,0,0)"/>
<g id="t244723627">
<text xml:space="preserve" x="112.99997" y="225.04688" font-family="Sans,Helvetica" fill="rgb(0,0,0)" font-size="16">Sparse Conditional</text>
<text xml:space="preserve" x="147.99997" y="246.28125" font-family="Sans,Helvetica" fill="rgb(0,0,0)" font-size="16">Constant</text>
<text xml:space="preserve" x="136.49997" y="267.51562" font-family="Sans,Helvetica" fill="rgb(0,0,0)" font-size="16">Propagation</text>
</g>
</g>
<g id="s29005320">
<polygon id="s29005320" points="80.00001,100.0 160.0,100.0 160.0,140.0 80.00001,139.99992 " fill="rgb(220,237,200)" stroke-width="2.0" stroke="rgb(0,0,0)"/>
<g id="t29005320">
<text xml:space="preserve" x="90.5" y="126.28125" font-family="Sans,Helvetica" fill="rgb(0,0,0)" font-size="16">Simplify</text>
</g>
</g>
<g id="s140018081">
<polygon id="s140018081" points="820.0,420.0 900.0,420.0 900.0,479.99982 820.0,480.0 " fill="rgb(178,235,242)" stroke-width="2.0" stroke="rgb(0,0,0)"/>
<g id="t140018081">
<text xml:space="preserve" x="828.5" y="445.66406" font-family="Sans,Helvetica" fill="rgb(0,0,0)" font-size="16">Combine</text>
<text xml:space="preserve" x="841.0" y="466.89844" font-family="Sans,Helvetica" fill="rgb(0,0,0)" font-size="16">Insns</text>
</g>
</g>
<g id="s146042822">
<polygon id="s146042822" points="780.0,80.0 899.9987,80.0 900.0,159.99991 780.0,160.0 " fill="rgb(209,196,233)" stroke-width="2.0" stroke="rgb(0,0,0)"/>
<g id="t146042822">
<text xml:space="preserve" x="807.0" y="105.046875" font-family="Sans,Helvetica" fill="rgb(0,0,0)" font-size="16">Reaching</text>
<text xml:space="preserve" x="801.5" y="126.28125" font-family="Sans,Helvetica" fill="rgb(0,0,0)" font-size="16">Definitions</text>
<text xml:space="preserve" x="810.0" y="147.51562" font-family="Sans,Helvetica" fill="rgb(0,0,0)" font-size="16">Analysis</text>
</g>
</g>
<g id="s134617991">
<polygon id="s134617991" points="780.0,200.0 900.0,200.0 900.0,280.0 780.0,280.0 " fill="rgb(209,196,233)" stroke-width="2.0" stroke="rgb(0,0,0)"/>
<g id="t134617991">
<text xml:space="preserve" x="811.0" y="235.66406" font-family="Sans,Helvetica" fill="rgb(0,0,0)" font-size="16">Variable</text>
<text xml:space="preserve" x="804.0" y="256.89844" font-family="Sans,Helvetica" fill="rgb(0,0,0)" font-size="16">Renaming</text>
</g>
</g>
<g id="s140970676">
<polygon id="s140970676" points="620.0,200.0 739.9998,200.0 740.0,280.0 620.0,279.99988 " fill="rgb(209,196,233)" stroke-width="2.0" stroke="rgb(0,0,0)"/>
<g id="t140970676">
<text xml:space="preserve" x="640.5" y="246.28125" font-family="Sans,Helvetica" fill="rgb(0,0,0)" font-size="16">Find Loops</text>
</g>
</g>
<g id="s73045725">
<polygon id="s73045725" points="480.0,200.0 580.0,200.0 579.99963,280.0 480.0,279.99973 " fill="rgb(209,196,233)" stroke-width="2.0" stroke="rgb(0,0,0)"/>
<g id="t73045725">
<text xml:space="preserve" x="497.0" y="225.04688" font-family="Sans,Helvetica" fill="rgb(0,0,0)" font-size="16">Reaching</text>
<text xml:space="preserve" x="491.5" y="246.28125" font-family="Sans,Helvetica" fill="rgb(0,0,0)" font-size="16">Definitions</text>
<text xml:space="preserve" x="500.0" y="267.51562" font-family="Sans,Helvetica" fill="rgb(0,0,0)" font-size="16">Analysis</text>
</g>
</g>
<g id="s7848530">
<polygon id="s7848530" points="320.0,200.0 439.99994,200.0 440.0,280.0 320.0,279.99994 " fill="rgb(209,196,233)" stroke-width="2.0" stroke="rgb(0,0,0)"/>
<g id="t7848530">
<text xml:space="preserve" x="360.0" y="225.04688" font-family="Sans,Helvetica" fill="rgb(0,0,0)" font-size="16">Loop </text>
<text xml:space="preserve" x="349.0" y="246.28125" font-family="Sans,Helvetica" fill="rgb(0,0,0)" font-size="16">Invariant</text>
<text xml:space="preserve" x="333.0" y="267.51562" font-family="Sans,Helvetica" fill="rgb(0,0,0)" font-size="16">Code Motion </text>
</g>
</g>
<g id="s228518179">
<polygon id="s228518179" points="280.0,320.0 379.99985,320.0 380.0,379.99997 280.0,380.0 " fill="rgb(178,235,242)" stroke-width="2.0" stroke="rgb(0,0,0)"/>
<g id="t228518179">
<text xml:space="preserve" x="290.5" y="356.28125" font-family="Sans,Helvetica" fill="rgb(0,0,0)" font-size="16">Find Loops</text>
</g>
</g>
<g id="s197402144">
<polygon id="s197402144" points="200.00002,440.0 299.99878,440.0 300.00012,559.99347 200.00002,560.0 " fill="none" stroke-width="0.0" stroke="rgb(0,0,0)"/>
<g id="t197402144">
<text xml:space="preserve" x="205.0" y="463.8125" font-family="Sans,Helvetica" fill="rgb(0,0,0)" font-size="16">-O0</text>
<text xml:space="preserve" x="205.0" y="485.04688" font-family="Sans,Helvetica" fill="rgb(0,0,0)" font-size="16">-O1</text>
<text xml:space="preserve" x="205.0" y="506.28125" font-family="Sans,Helvetica" fill="rgb(0,0,0)" font-size="16">-O2 default</text>
<text xml:space="preserve" x="205.0" y="527.5156" font-family="Sans,Helvetica" fill="rgb(0,0,0)" font-size="16">-O3</text>
<text xml:space="preserve" x="205.0" y="548.75" font-family="Sans,Helvetica" fill="rgb(0,0,0)" font-size="16"/>
</g>
</g>
<g id="s7259097">
<polygon id="s7259097" points="39.999996,440.0 139.99802,440.0 139.99973,560.0 39.999996,559.9997 " fill="none" stroke-width="0.0" stroke="rgb(0,0,0)"/>
<g id="t7259097">
<text xml:space="preserve" x="40.499863" y="474.4297" font-family="Sans,Helvetica" fill="rgb(0,0,0)" font-size="16">Optimizations</text>
<text xml:space="preserve" x="67.99986" y="495.66406" font-family="Sans,Helvetica" fill="rgb(0,0,0)" font-size="16">added</text>
<text xml:space="preserve" x="61.999863" y="516.89844" font-family="Sans,Helvetica" fill="rgb(0,0,0)" font-size="16">on each</text>
<text xml:space="preserve" x="71.99986" y="538.1328" font-family="Sans,Helvetica" fill="rgb(0,0,0)" font-size="16">level:</text>
</g>
</g>
<g id="la28029342">
<path id="s28029342" d="M 160.00003,120.0 200.00002,120.0 " fill="none" stroke-width="2.0" stroke="rgb(0,0,0)"/>
<path id="s73534937" d="M 190.82191,127.73061 200.00002,120.0 190.82191,112.26939 " fill="none" stroke-width="2.0" stroke="rgb(0,0,0)"/>
<g id="t28029342">
<text xml:space="preserve" x="180.00003" y="112.206055" font-family="Sans,Helvetica" fill="rgb(0,0,0)" font-size="14"/>
</g>
</g>
<g id="la74249343">
<path id="s74249343" d="M 579.9999,119.99997 620.0,119.99994 " fill="none" stroke-width="2.0" stroke="rgb(0,0,0)"/>
<path id="s28987007" d="M 610.8219,127.73056 620.0,119.99994 610.8219,112.26933 " fill="none" stroke-width="2.0" stroke="rgb(0,0,0)"/>
<g id="t74249343">
<text xml:space="preserve" x="599.99994" y="112.20601" font-family="Sans,Helvetica" fill="rgb(0,0,0)" font-size="14"/>
</g>
</g>
<g id="la236780620">
<path id="s236780620" d="M 419.99988,119.99997 460.0,120.000015 " fill="none" stroke-width="2.0" stroke="rgb(0,0,0)"/>
<path id="s91770444" d="M 450.8219,127.73062 460.0,120.000015 450.8219,112.269394 " fill="none" stroke-width="2.0" stroke="rgb(0,0,0)"/>
<g id="t236780620">
<text xml:space="preserve" x="439.99994" y="112.20605" font-family="Sans,Helvetica" fill="rgb(0,0,0)" font-size="14"/>
</g>
</g>
<g id="la100582549">
<path id="s100582549" d="M 279.99994,119.99997 319.99997,120.0 " fill="none" stroke-width="2.0" stroke="rgb(0,0,0)"/>
<path id="s115125909" d="M 310.82187,127.730606 319.99997,120.0 310.82187,112.26938 " fill="none" stroke-width="2.0" stroke="rgb(0,0,0)"/>
<g id="t100582549">
<text xml:space="preserve" x="299.99994" y="111.66405" font-family="Sans,Helvetica" fill="rgb(0,0,0)" font-size="16"/>
</g>
</g>
<g id="la228411818">
<path id="s228411818" d="M 840.0001,200.0 840.0,159.99995 " fill="none" stroke-width="2.0" stroke="rgb(0,0,0)"/>
<path id="s90565546" d="M 832.2695,190.82191 840.0001,200.0 847.7307,190.82187 " fill="none" stroke-width="2.0" stroke="rgb(0,0,0)"/>
<g id="t228411818">
<text xml:space="preserve" x="844.00006" y="186.28122" font-family="Sans,Helvetica" fill="rgb(0,0,0)" font-size="16"/>
</g>
</g>
<g id="la199645595">
<path id="s199645595" d="M 739.99994,240.0 780.0,240.0 " fill="none" stroke-width="2.0" stroke="rgb(0,0,0)"/>
<path id="s162485147" d="M 749.17804,232.2694 739.99994,240.0 749.17804,247.7306 " fill="none" stroke-width="2.0" stroke="rgb(0,0,0)"/>
<g id="t199645595">
<text xml:space="preserve" x="760.0" y="231.66406" font-family="Sans,Helvetica" fill="rgb(0,0,0)" font-size="16"/>
</g>
</g>
<g id="la155423032">
<path id="s155423032" d="M 579.9998,240.0 620.0,239.99995 " fill="none" stroke-width="2.0" stroke="rgb(0,0,0)"/>
<path id="s131896" d="M 589.1779,232.26938 579.9998,240.0 589.1779,247.7306 " fill="none" stroke-width="2.0" stroke="rgb(0,0,0)"/>
<g id="t155423032">
<text xml:space="preserve" x="599.9999" y="231.66403" font-family="Sans,Helvetica" fill="rgb(0,0,0)" font-size="16"/>
</g>
</g>
<g id="la22287633">
<path id="s22287633" d="M 480.0,239.99986 440.0,240.0 " fill="none" stroke-width="2.0" stroke="rgb(0,0,0)"/>
<path id="s52862737" d="M 449.17807,232.26936 440.0,240.0 449.17813,247.73058 " fill="none" stroke-width="2.0" stroke="rgb(0,0,0)"/>
<g id="t22287633">
<text xml:space="preserve" x="460.0" y="231.664" font-family="Sans,Helvetica" fill="rgb(0,0,0)" font-size="16"/>
</g>
</g>
<g id="la190731894">
<path id="s190731894" d="M 739.9998,120.0 780.0,120.0 " fill="none" stroke-width="2.0" stroke="rgb(0,0,0)"/>
<path id="s68098166" d="M 770.8219,127.73061 780.0,120.0 770.8219,112.26939 " fill="none" stroke-width="2.0" stroke="rgb(0,0,0)"/>
<g id="t190731894">
<text xml:space="preserve" x="759.9999" y="111.66406" font-family="Sans,Helvetica" fill="rgb(0,0,0)" font-size="16"/>
</g>
</g>
<g id="la180810871">
<path id="s180810871" d="M 320.0,239.99997 259.99976,239.99988 " fill="none" stroke-width="2.0" stroke="rgb(0,0,0)"/>
<path id="s86347383" d="M 269.1779,232.26929 259.99976,239.99988 269.17786,247.7305 " fill="none" stroke-width="2.0" stroke="rgb(0,0,0)"/>
<g id="t180810871">
<text xml:space="preserve" x="289.99988" y="231.66399" font-family="Sans,Helvetica" fill="rgb(0,0,0)" font-size="16"/>
</g>
</g>
<g id="la3967204">
<path id="s3967204" d="M 499.99994,350.0 540.0,349.99982 " fill="none" stroke-width="2.0" stroke="rgb(0,0,0)"/>
<path id="s158341860" d="M 530.8219,357.73047 540.0,349.99982 530.82184,342.26926 " fill="none" stroke-width="2.0" stroke="rgb(0,0,0)"/>
<g id="t3967204">
<text xml:space="preserve" x="520.0" y="341.66397" font-family="Sans,Helvetica" fill="rgb(0,0,0)" font-size="16"/>
</g>
</g>
<g id="la265548109">
<path id="s265548109" d="M 640.0,350.0 680.0,350.0 " fill="none" stroke-width="2.0" stroke="rgb(0,0,0)"/>
<path id="s222632781" d="M 670.8219,357.73062 680.0,350.0 670.8219,342.26938 " fill="none" stroke-width="2.0" stroke="rgb(0,0,0)"/>
<g id="t265548109">
<text xml:space="preserve" x="660.0" y="341.66406" font-family="Sans,Helvetica" fill="rgb(0,0,0)" font-size="16"/>
</g>
</g>
<g id="la256992258">
<path id="s256992258" d="M 820.0,350.00003 780.0,349.99997 " fill="none" stroke-width="2.0" stroke="rgb(0,0,0)"/>
<path id="s256656898" d="M 810.8219,357.73062 820.0,350.00003 810.8219,342.2694 " fill="none" stroke-width="2.0" stroke="rgb(0,0,0)"/>
<g id="t256992258">
<text xml:space="preserve" x="800.0" y="341.66406" font-family="Sans,Helvetica" fill="rgb(0,0,0)" font-size="16"/>
</g>
</g>
<g id="la229400851">
<path id="s229400851" d="M 779.99976,449.9994 820.0,450.0 " fill="none" stroke-width="2.0" stroke="rgb(0,0,0)"/>
<path id="s140155667" d="M 789.178,442.26892 779.99976,449.9994 789.17773,457.73013 " fill="none" stroke-width="2.0" stroke="rgb(0,0,0)"/>
<g id="t229400851">
<text xml:space="preserve" x="799.9999" y="441.66376" font-family="Sans,Helvetica" fill="rgb(0,0,0)" font-size="16"/>
</g>
</g>
<g id="la262885200">
<path id="s262885200" d="M 860.0,420.0 859.99976,379.99982 " fill="none" stroke-width="2.0" stroke="rgb(0,0,0)"/>
<path id="s226885968" d="M 852.26935,410.82193 860.0,420.0 867.7305,410.82184 " fill="none" stroke-width="2.0" stroke="rgb(0,0,0)"/>
<g id="t262885200">
<text xml:space="preserve" x="863.9999" y="406.28116" font-family="Sans,Helvetica" fill="rgb(0,0,0)" font-size="16"/>
</g>
</g>
<g id="la100357449">
<path id="s100357449" d="M 639.9998,449.99997 679.99994,450.0 " fill="none" stroke-width="2.0" stroke="rgb(0,0,0)"/>
<path id="s173350729" d="M 649.1779,442.26938 639.9998,449.99997 649.1779,457.7306 " fill="none" stroke-width="2.0" stroke="rgb(0,0,0)"/>
<g id="t100357449">
<text xml:space="preserve" x="659.9999" y="441.66403" font-family="Sans,Helvetica" fill="rgb(0,0,0)" font-size="16"/>
</g>
</g>
<g id="la259374670">
<path id="s259374670" d="M 479.9998,450.0 520.0,450.0 " fill="none" stroke-width="2.0" stroke="rgb(0,0,0)"/>
<path id="s20758606" d="M 489.1779,442.26938 479.9998,450.0 489.1779,457.73062 " fill="none" stroke-width="2.0" stroke="rgb(0,0,0)"/>
<g id="t259374670">
<text xml:space="preserve" x="499.99988" y="441.66406" font-family="Sans,Helvetica" fill="rgb(0,0,0)" font-size="16"/>
</g>
</g>
<g id="la57801583">
<path id="s57801583" d="M 239.99997,350.0 280.0,350.0 " fill="none" stroke-width="2.0" stroke="rgb(0,0,0)"/>
<path id="s63559023" d="M 270.8219,357.73062 280.0,350.0 270.8219,342.26938 " fill="none" stroke-width="2.0" stroke="rgb(0,0,0)"/>
<g id="t57801583">
<text xml:space="preserve" x="260.0" y="341.66406" font-family="Sans,Helvetica" fill="rgb(0,0,0)" font-size="16"/>
</g>
</g>
<g id="la150868092">
<path id="s150868092" d="M 379.99994,350.0 420.00003,349.99997 " fill="none" stroke-width="2.0" stroke="rgb(0,0,0)"/>
<path id="s248636028" d="M 410.82193,357.7306 420.00003,349.99997 410.82193,342.26938 " fill="none" stroke-width="2.0" stroke="rgb(0,0,0)"/>
<g id="t150868092">
<text xml:space="preserve" x="400.0" y="341.66406" font-family="Sans,Helvetica" fill="rgb(0,0,0)" font-size="16"/>
</g>
</g>
<g id="la152763653">
<path id="s152763653" d="M 179.99997,279.99988 180.0,320.0 " fill="none" stroke-width="2.0" stroke="rgb(0,0,0)"/>
<path id="s172451589" d="M 172.26938,310.8219 180.0,320.0 187.7306,310.8219 " fill="none" stroke-width="2.0" stroke="rgb(0,0,0)"/>
<g id="t152763653">
<text xml:space="preserve" x="183.99998" y="306.2812" font-family="Sans,Helvetica" fill="rgb(0,0,0)" font-size="16"/>
</g>
</g>
<g id="la7565658">
<path id="s7565658" d="M 39.99994,119.999985 80.00001,119.99997 " fill="none" stroke-width="2.0" stroke="rgb(0,0,0)"/>
<path id="s78156634" d="M 70.82191,127.73058 80.00001,119.99997 70.8219,112.26936 " fill="none" stroke-width="2.0" stroke="rgb(0,0,0)"/>
<g id="t7565658">
<text xml:space="preserve" x="59.999973" y="111.66404" font-family="Sans,Helvetica" fill="rgb(0,0,0)" font-size="16"/>
</g>
</g>
<g id="la55369611">
<path id="s55369611" d="M 139.99887,500.0 200.00002,500.0 " fill="none" stroke-width="2.0" stroke="rgb(144,202,249)"/>
<g id="t55369611">
<text xml:space="preserve" x="169.99945" y="491.66406" font-family="Sans,Helvetica" fill="rgb(0,0,0)" font-size="16"/>
</g>
</g>
<g id="la72988776">
<path id="s72988776" d="M 139.99858,480.0 200.00002,480.0 " fill="none" stroke-width="2.0" stroke="rgb(178,235,242)"/>
<g id="t72988776">
<text xml:space="preserve" x="169.9993" y="471.66406" font-family="Sans,Helvetica" fill="rgb(0,0,0)" font-size="16"/>
</g>
</g>
<g id="la148071553">
<path id="s148071553" d="M 139.9983,460.0 200.00002,460.0 " fill="none" stroke-width="2.0" stroke="rgb(220,237,200)"/>
<g id="t148071553">
<text xml:space="preserve" x="169.99916" y="451.66406" font-family="Sans,Helvetica" fill="rgb(0,0,0)" font-size="16"/>
</g>
</g>
<g id="la124209446">
<path id="s124209446" d="M 139.99916,520.0 200.00002,520.0 " fill="none" stroke-width="2.0" stroke="rgb(209,196,233)"/>
<g id="t124209446">
<text xml:space="preserve" x="169.99959" y="511.66406" font-family="Sans,Helvetica" fill="rgb(0,0,0)" font-size="16"/>
</g>
</g>
</svg>
