<?xml version="1.0" encoding="UTF-8"?><svg xmlns="http://www.w3.org/2000/svg" xmlns:xlink="http://www.w3.org/1999/xlink" width="800.0" height="760.0" viewBox="130.0 50.0 800.0 760.0" version="1.1">
<rect x="130.0" y="50.0" width="800.0" height="760.0" fill="rgb(255,255,255)"/>
<g id="s255400765">
<polygon id="s255400765" points="340.0,100.0 420.0,100.0 419.99988,159.99994 340.0,160.0 " fill="rgb(220,237,200)" stroke-width="2.0" stroke="rgb(0,0,0)"/>
<g id="t255400765">
<text xml:space="preserve" x="361.0" y="136.28125" font-family="Sans,Helvetica" fill="rgb(0,0,0)" font-size="16">Inline</text>
</g>
</g>
<g id="s264986418">
<polygon id="s264986418" points="320.0,360.0 440.00006,360.0 440.00006,419.99997 320.0,419.99976 " fill="rgb(220,237,200)" stroke-width="2.0" stroke="rgb(0,0,0)"/>
<g id="t264986418">
<text xml:space="preserve" x="380.00003" y="375.04688" font-family="Sans,Helvetica" fill="rgb(0,0,0)" font-size="16"/>
<text xml:space="preserve" x="343.50003" y="396.28125" font-family="Sans,Helvetica" fill="rgb(0,0,0)" font-size="16">Machinize</text>
<text xml:space="preserve" x="380.00003" y="417.51562" font-family="Sans,Helvetica" fill="rgb(0,0,0)" font-size="16"/>
</g>
</g>
<g id="s54850691">
<polygon id="s54850691" points="459.99997,100.0 560.0,100.0 560.0001,159.99994 459.99997,160.0 " fill="rgb(144,202,249)" stroke-width="2.0" stroke="rgb(0,0,0)"/>
<g id="t54850691">
<text xml:space="preserve" x="475.00006" y="136.28125" font-family="Sans,Helvetica" fill="rgb(0,0,0)" font-size="16">Build CFG</text>
</g>
</g>
<g id="s120468992">
<polygon id="s120468992" points="640.00006,360.0 739.99976,360.0 740.0,420.0 640.00006,419.9999 " fill="rgb(178,235,242)" stroke-width="2.0" stroke="rgb(0,0,0)"/>
<g id="t120468992">
<text xml:space="preserve" x="672.0" y="385.66406" font-family="Sans,Helvetica" fill="rgb(0,0,0)" font-size="16">Build</text>
<text xml:space="preserve" x="659.5" y="406.89844" font-family="Sans,Helvetica" fill="rgb(0,0,0)" font-size="16">Live Info</text>
</g>
</g>
<g id="s119615033">
<polygon id="s119615033" points="780.0,360.0 899.9996,360.0 900.0,420.0 780.0,419.99963 " fill="rgb(178,235,242)" stroke-width="2.0" stroke="rgb(0,0,0)"/>
<g id="t119615033">
<text xml:space="preserve" x="805.5" y="385.66406" font-family="Sans,Helvetica" fill="rgb(0,0,0)" font-size="16">Build Live</text>
<text xml:space="preserve" x="813.5" y="406.89844" font-family="Sans,Helvetica" fill="rgb(0,0,0)" font-size="16">Ranges</text>
</g>
</g>
<g id="s239877246">
<polygon id="s239877246" points="780.0,460.0 899.9993,460.0 900.0,519.99994 780.0,520.0 " fill="rgb(178,235,242)" stroke-width="2.0" stroke="rgb(0,0,0)"/>
<g id="t239877246">
<text xml:space="preserve" x="816.0" y="485.66406" font-family="Sans,Helvetica" fill="rgb(0,0,0)" font-size="16">Assign</text>
<text xml:space="preserve" x="807.5" y="506.89844" font-family="Sans,Helvetica" fill="rgb(0,0,0)" font-size="16">Registers</text>
</g>
</g>
<g id="s140006879">
<polygon id="s140006879" points="780.0,560.0 900.0,560.0 899.9997,640.0 780.0,639.9998 " fill="rgb(178,235,242)" stroke-width="2.0" stroke="rgb(0,0,0)"/>
<g id="t140006879">
<text xml:space="preserve" x="814.0" y="606.28125" font-family="Sans,Helvetica" fill="rgb(0,0,0)" font-size="16">Rewrite</text>
</g>
</g>
<g id="s127036397">
<polygon id="s127036397" points="480.0,560.0 600.0,560.0 599.9996,640.0 480.0,639.99994 " fill="rgb(178,235,242)" stroke-width="2.0" stroke="rgb(0,0,0)"/>
<g id="t127036397">
<text xml:space="preserve" x="501.5" y="595.66406" font-family="Sans,Helvetica" fill="rgb(0,0,0)" font-size="16">Dead Code</text>
<text xml:space="preserve" x="500.0" y="616.89844" font-family="Sans,Helvetica" fill="rgb(0,0,0)" font-size="16">Elimination</text>
</g>
</g>
<g id="s110348804">
<polygon id="s110348804" points="320.0,560.0 440.0,560.0 439.99954,639.9999 320.0,640.0 " fill="rgb(220,237,200)" stroke-width="2.0" stroke="rgb(0,0,0)"/>
<g id="t110348804">
<text xml:space="preserve" x="348.5" y="585.0469" font-family="Sans,Helvetica" fill="rgb(0,0,0)" font-size="16">Generate</text>
<text xml:space="preserve" x="349.5" y="606.28125" font-family="Sans,Helvetica" fill="rgb(0,0,0)" font-size="16">Machine</text>
<text xml:space="preserve" x="362.0" y="627.5156" font-family="Sans,Helvetica" fill="rgb(0,0,0)" font-size="16">Code</text>
</g>
</g>
<g id="s21017132">
<polygon id="s21017132" points="160.0,100.0 199.99994,100.0 200.0,160.0 160.00003,159.99994 " fill="none" stroke-width="0.0" stroke="rgb(0,0,0)"/>
<g id="t21017132">
<text xml:space="preserve" x="166.0" y="136.28125" font-family="Sans,Helvetica" fill="rgb(0,0,0)" font-size="16">MIR</text>
</g>
</g>
<g id="s210262562">
<polygon id="s210262562" points="160.0,560.0 260.0,560.0 259.99988,640.0 160.0,639.99994 " fill="none" stroke-width="0.0" stroke="rgb(0,0,0)"/>
<g id="t210262562">
<text xml:space="preserve" x="179.5" y="595.66406" font-family="Sans,Helvetica" fill="rgb(0,0,0)" font-size="16">Machine</text>
<text xml:space="preserve" x="192.0" y="616.89844" font-family="Sans,Helvetica" fill="rgb(0,0,0)" font-size="16">Code</text>
</g>
</g>
<g id="s148731125">
<polygon id="s148731125" points="600.0,80.0 719.9999,80.0 720.00024,179.99988 600.0,179.99994 " fill="rgb(144,202,249)" stroke-width="2.0" stroke="rgb(0,0,0)"/>
<g id="t148731125">
<text xml:space="preserve" x="637.0001" y="104.42966" font-family="Sans,Helvetica" fill="rgb(0,0,0)" font-size="16">Global</text>
<text xml:space="preserve" x="627.5001" y="125.66403" font-family="Sans,Helvetica" fill="rgb(0,0,0)" font-size="16">Common</text>
<text xml:space="preserve" x="628.5001" y="146.8984" font-family="Sans,Helvetica" fill="rgb(0,0,0)" font-size="16">Sub-Expr</text>
<text xml:space="preserve" x="620.0001" y="168.13278" font-family="Sans,Helvetica" fill="rgb(0,0,0)" font-size="16">Elimination</text>
</g>
</g>
<g id="s174826122">
<polygon id="s174826122" points="760.0,100.0 880.0,100.0 879.99976,160.0 760.0,159.99994 " fill="rgb(144,202,249)" stroke-width="2.0" stroke="rgb(0,0,0)"/>
<g id="t174826122">
<text xml:space="preserve" x="781.5" y="125.66406" font-family="Sans,Helvetica" fill="rgb(0,0,0)" font-size="16">Dead Code</text>
<text xml:space="preserve" x="780.0" y="146.89844" font-family="Sans,Helvetica" fill="rgb(0,0,0)" font-size="16">Elimination</text>
</g>
</g>
<g id="s202797307">
<polygon id="s202797307" points="160.0,340.00003 279.99976,340.00003 280.00012,439.99988 160.0,440.00012 " fill="rgb(144,202,249)" stroke-width="2.0" stroke="rgb(0,0,0)"/>
<g id="t202797307">
<text xml:space="preserve" x="195.50006" y="364.42975" font-family="Sans,Helvetica" fill="rgb(0,0,0)" font-size="16">Sparse</text>
<text xml:space="preserve" x="179.50006" y="385.66412" font-family="Sans,Helvetica" fill="rgb(0,0,0)" font-size="16">Conditional</text>
<text xml:space="preserve" x="188.00006" y="406.8985" font-family="Sans,Helvetica" fill="rgb(0,0,0)" font-size="16">Constant</text>
<text xml:space="preserve" x="176.50006" y="428.13287" font-family="Sans,Helvetica" fill="rgb(0,0,0)" font-size="16">Propagation</text>
</g>
</g>
<g id="s152880408">
<polygon id="s152880408" points="220.0,100.0 300.0,100.0 300.0,160.0 220.0,159.99994 " fill="rgb(220,237,200)" stroke-width="2.0" stroke="rgb(0,0,0)"/>
<g id="t152880408">
<text xml:space="preserve" x="230.5" y="136.28125" font-family="Sans,Helvetica" fill="rgb(0,0,0)" font-size="16">Simplify</text>
</g>
</g>
<g id="s115314642">
<polygon id="s115314642" points="640.0,560.0 739.9995,560.0 740.0,640.0 640.0,639.9996 " fill="rgb(178,235,242)" stroke-width="2.0" stroke="rgb(0,0,0)"/>
<g id="t115314642">
<text xml:space="preserve" x="658.5" y="595.66406" font-family="Sans,Helvetica" fill="rgb(0,0,0)" font-size="16">Combine</text>
<text xml:space="preserve" x="671.0" y="616.89844" font-family="Sans,Helvetica" fill="rgb(0,0,0)" font-size="16">Insns</text>
</g>
</g>
<g id="s232614769">
<polygon id="s232614769" points="760.0,200.0 879.99884,200.0 880.0,299.99988 760.0,300.0 " fill="rgb(209,196,233)" stroke-width="2.0" stroke="rgb(0,0,0)"/>
<g id="t232614769">
<text xml:space="preserve" x="787.0" y="235.04688" font-family="Sans,Helvetica" fill="rgb(0,0,0)" font-size="16">Reaching</text>
<text xml:space="preserve" x="781.5" y="256.28125" font-family="Sans,Helvetica" fill="rgb(0,0,0)" font-size="16">Definitions</text>
<text xml:space="preserve" x="790.0" y="277.51562" font-family="Sans,Helvetica" fill="rgb(0,0,0)" font-size="16">Analysis</text>
</g>
</g>
<g id="s141122902">
<polygon id="s141122902" points="620.0,220.0 719.9998,220.0 720.0,280.0 620.0,280.0 " fill="rgb(209,196,233)" stroke-width="2.0" stroke="rgb(0,0,0)"/>
<g id="t141122902">
<text xml:space="preserve" x="641.0" y="245.66406" font-family="Sans,Helvetica" fill="rgb(0,0,0)" font-size="16">Variable</text>
<text xml:space="preserve" x="634.0" y="266.89844" font-family="Sans,Helvetica" fill="rgb(0,0,0)" font-size="16">Renaming</text>
</g>
</g>
<g id="s97591767">
<polygon id="s97591767" points="460.0,220.0 579.99976,220.0 579.99976,280.0 460.0,279.9999 " fill="rgb(209,196,233)" stroke-width="2.0" stroke="rgb(0,0,0)"/>
<g id="t97591767">
<text xml:space="preserve" x="480.49988" y="256.28125" font-family="Sans,Helvetica" fill="rgb(0,0,0)" font-size="16">Find Loops</text>
</g>
</g>
<g id="s94706372">
<polygon id="s94706372" points="320.0,200.0 419.99997,200.0 420.0,300.0 320.0,299.99976 " fill="rgb(209,196,233)" stroke-width="2.0" stroke="rgb(0,0,0)"/>
<g id="t94706372">
<text xml:space="preserve" x="337.0" y="235.04688" font-family="Sans,Helvetica" fill="rgb(0,0,0)" font-size="16">Reaching</text>
<text xml:space="preserve" x="331.5" y="256.28125" font-family="Sans,Helvetica" fill="rgb(0,0,0)" font-size="16">Definitions</text>
<text xml:space="preserve" x="340.0" y="277.51562" font-family="Sans,Helvetica" fill="rgb(0,0,0)" font-size="16">Analysis</text>
</g>
</g>
<g id="s218910125">
<polygon id="s218910125" points="160.0,200.0 279.9999,200.0 279.99997,300.0 160.0,299.99994 " fill="rgb(209,196,233)" stroke-width="2.0" stroke="rgb(0,0,0)"/>
<g id="t218910125">
<text xml:space="preserve" x="199.99998" y="235.04688" font-family="Sans,Helvetica" fill="rgb(0,0,0)" font-size="16">Loop </text>
<text xml:space="preserve" x="188.99998" y="256.28125" font-family="Sans,Helvetica" fill="rgb(0,0,0)" font-size="16">Invariant</text>
<text xml:space="preserve" x="172.99998" y="277.51562" font-family="Sans,Helvetica" fill="rgb(0,0,0)" font-size="16">Code Motion </text>
</g>
</g>
<g id="s246806754">
<polygon id="s246806754" points="479.99997,360.0 600.0001,360.0 600.0001,420.0 479.99997,419.99994 " fill="rgb(178,235,242)" stroke-width="2.0" stroke="rgb(0,0,0)"/>
<g id="t246806754">
<text xml:space="preserve" x="500.50006" y="396.28125" font-family="Sans,Helvetica" fill="rgb(0,0,0)" font-size="16">Find Loops</text>
</g>
</g>
<g id="s119694093">
<polygon id="s119694093" points="580.0,660.0 719.9984,660.0 720.0,779.9932 580.0,780.0 " fill="none" stroke-width="0.0" stroke="rgb(0,0,0)"/>
<g id="t119694093">
<text xml:space="preserve" x="585.0" y="683.8125" font-family="Sans,Helvetica" fill="rgb(0,0,0)" font-size="16">-O0</text>
<text xml:space="preserve" x="585.0" y="705.0469" font-family="Sans,Helvetica" fill="rgb(0,0,0)" font-size="16">-O1</text>
<text xml:space="preserve" x="585.0" y="726.28125" font-family="Sans,Helvetica" fill="rgb(0,0,0)" font-size="16">-O2 default</text>
<text xml:space="preserve" x="585.0" y="747.5156" font-family="Sans,Helvetica" fill="rgb(0,0,0)" font-size="16">-O3</text>
<text xml:space="preserve" x="585.0" y="768.75" font-family="Sans,Helvetica" fill="rgb(0,0,0)" font-size="16"/>
</g>
</g>
<g id="s140159396">
<polygon id="s140159396" points="220.0,660.0 499.9953,660.0 499.99994,779.9999 220.0,780.0 " fill="none" stroke-width="0.0" stroke="rgb(0,0,0)"/>
<g id="t140159396">
<text xml:space="preserve" x="286.49997" y="715.66406" font-family="Sans,Helvetica" fill="rgb(0,0,0)" font-size="16">Optimizations added</text>
<text xml:space="preserve" x="311.99997" y="736.89844" font-family="Sans,Helvetica" fill="rgb(0,0,0)" font-size="16">on each level:</text>
</g>
</g>
<g id="s155158683">
<polygon id="s155158683" points="320.0,460.00003 440.0,460.00003 439.99976,519.99994 320.0,520.0 " fill="rgb(220,237,200)" stroke-width="2.0" stroke="rgb(0,0,0)"/>
<g id="t155158683">
<text xml:space="preserve" x="364.5" y="485.66406" font-family="Sans,Helvetica" fill="rgb(0,0,0)" font-size="16">Fast</text>
<text xml:space="preserve" x="343.5" y="506.89844" font-family="Sans,Helvetica" fill="rgb(0,0,0)" font-size="16">Generator </text>
</g>
</g>
<g id="la102499443">
<path id="s102499443" d="M 300.0,130.0 340.0,130.0 " fill="none" stroke-width="2.0" stroke="rgb(0,0,0)"/>
<path id="s64481983" d="M 330.8219,137.7306 340.0,130.0 330.8219,122.26939 " fill="none" stroke-width="2.0" stroke="rgb(0,0,0)"/>
<g id="t102499443">
<text xml:space="preserve" x="320.0" y="122.206055" font-family="Sans,Helvetica" fill="rgb(0,0,0)" font-size="14"/>
</g>
</g>
<g id="la121315120">
<path id="s121315120" d="M 720.00006,129.99994 760.0,129.99997 " fill="none" stroke-width="2.0" stroke="rgb(0,0,0)"/>
<path id="s187651468" d="M 750.8219,137.73058 760.0,129.99997 750.8219,122.26935 " fill="none" stroke-width="2.0" stroke="rgb(0,0,0)"/>
<g id="t121315120">
<text xml:space="preserve" x="740.0" y="122.20601" font-family="Sans,Helvetica" fill="rgb(0,0,0)" font-size="14"/>
</g>
</g>
<g id="la114104233">
<path id="s114104233" d="M 199.99997,130.0 200.0,130.0 200.0,129.99997 220.0,129.99997 " fill="none" stroke-width="2.0" stroke="rgb(0,0,0)"/>
<path id="s92292309" d="M 210.8219,137.73058 220.0,129.99997 210.8219,122.269356 " fill="none" stroke-width="2.0" stroke="rgb(0,0,0)"/>
<g id="t114104233">
<text xml:space="preserve" x="209.99997" y="122.206024" font-family="Sans,Helvetica" fill="rgb(0,0,0)" font-size="14"/>
</g>
</g>
<g id="la138330414">
<path id="s138330414" d="M 560.00006,129.99997 600.0,129.99997 " fill="none" stroke-width="2.0" stroke="rgb(0,0,0)"/>
<path id="s240411882" d="M 590.8219,137.73058 600.0,129.99997 590.8219,122.269356 " fill="none" stroke-width="2.0" stroke="rgb(0,0,0)"/>
<g id="t138330414">
<text xml:space="preserve" x="580.0" y="122.206024" font-family="Sans,Helvetica" fill="rgb(0,0,0)" font-size="14"/>
</g>
</g>
<g id="la153646287">
<path id="s153646287" d="M 419.99994,129.99997 459.99997,130.0 " fill="none" stroke-width="2.0" stroke="rgb(0,0,0)"/>
<path id="s128611291" d="M 450.82187,137.7306 459.99997,130.0 450.82187,122.26938 " fill="none" stroke-width="2.0" stroke="rgb(0,0,0)"/>
<g id="t153646287">
<text xml:space="preserve" x="439.99994" y="121.66405" font-family="Sans,Helvetica" fill="rgb(0,0,0)" font-size="16"/>
</g>
</g>
<g id="la15400540">
<path id="s15400540" d="M 719.9999,250.0 760.0,250.0 " fill="none" stroke-width="2.0" stroke="rgb(0,0,0)"/>
<path id="s155336312" d="M 729.178,242.2694 719.9999,250.0 729.178,257.73062 " fill="none" stroke-width="2.0" stroke="rgb(0,0,0)"/>
<g id="t15400540">
<text xml:space="preserve" x="739.99994" y="241.66406" font-family="Sans,Helvetica" fill="rgb(0,0,0)" font-size="16"/>
</g>
</g>
<g id="la79070565">
<path id="s79070565" d="M 579.99976,250.0 620.0,250.0 " fill="none" stroke-width="2.0" stroke="rgb(0,0,0)"/>
<path id="s151869777" d="M 589.17786,242.2694 579.99976,250.0 589.17786,257.73062 " fill="none" stroke-width="2.0" stroke="rgb(0,0,0)"/>
<g id="t79070565">
<text xml:space="preserve" x="599.9999" y="241.66406" font-family="Sans,Helvetica" fill="rgb(0,0,0)" font-size="16"/>
</g>
</g>
<g id="la259637818">
<path id="s259637818" d="M 420.0,250.0 460.0,249.99995 " fill="none" stroke-width="2.0" stroke="rgb(0,0,0)"/>
<path id="s25945526" d="M 429.1781,242.26938 420.0,250.0 429.1781,257.7306 " fill="none" stroke-width="2.0" stroke="rgb(0,0,0)"/>
<g id="t259637818">
<text xml:space="preserve" x="440.0" y="241.66403" font-family="Sans,Helvetica" fill="rgb(0,0,0)" font-size="16"/>
</g>
</g>
<g id="la48336619">
<path id="s48336619" d="M 320.0,249.99988 279.99994,250.0 " fill="none" stroke-width="2.0" stroke="rgb(0,0,0)"/>
<path id="s156398263" d="M 289.178,242.26936 279.99994,250.0 289.17807,257.7306 " fill="none" stroke-width="2.0" stroke="rgb(0,0,0)"/>
<g id="t48336619">
<text xml:space="preserve" x="299.99997" y="241.664" font-family="Sans,Helvetica" fill="rgb(0,0,0)" font-size="16"/>
</g>
</g>
<g id="la139961416">
<path id="s139961416" d="M 819.9999,159.99997 819.9994,200.0 " fill="none" stroke-width="2.0" stroke="rgb(0,0,0)"/>
<path id="s127453732" d="M 812.26886,190.8218 819.9994,200.0 827.7301,190.82199 " fill="none" stroke-width="2.0" stroke="rgb(0,0,0)"/>
<g id="t139961416">
<text xml:space="preserve" x="823.99963" y="186.28123" font-family="Sans,Helvetica" fill="rgb(0,0,0)" font-size="16"/>
</g>
</g>
<g id="la151982817">
<path id="s151982817" d="M 219.99998,299.99997 219.99988,340.00003 " fill="none" stroke-width="2.0" stroke="rgb(0,0,0)"/>
<path id="s92092813" d="M 212.26929,330.8219 219.99988,340.00003 227.73051,330.82196 " fill="none" stroke-width="2.0" stroke="rgb(0,0,0)"/>
<g id="t151982817">
<text xml:space="preserve" x="223.99994" y="326.28125" font-family="Sans,Helvetica" fill="rgb(0,0,0)" font-size="16"/>
</g>
</g>
<g id="la238143494">
<path id="s238143494" d="M 739.9999,390.0 780.0,389.99982 " fill="none" stroke-width="2.0" stroke="rgb(0,0,0)"/>
<path id="s233350978" d="M 770.8219,397.73047 780.0,389.99982 770.82184,382.26926 " fill="none" stroke-width="2.0" stroke="rgb(0,0,0)"/>
<g id="t238143494">
<text xml:space="preserve" x="759.99994" y="381.66397" font-family="Sans,Helvetica" fill="rgb(0,0,0)" font-size="16"/>
</g>
</g>
<g id="la13119175">
<path id="s13119175" d="M 840.0,419.99982 839.99976,460.0 " fill="none" stroke-width="2.0" stroke="rgb(0,0,0)"/>
<path id="s236028755" d="M 832.2692,450.82184 839.99976,460.0 847.7304,450.82193 " fill="none" stroke-width="2.0" stroke="rgb(0,0,0)"/>
<g id="t13119175">
<text xml:space="preserve" x="843.9999" y="446.28116" font-family="Sans,Helvetica" fill="rgb(0,0,0)" font-size="16"/>
</g>
</g>
<g id="la140950772">
<path id="s140950772" d="M 840.0,560.0 840.0,520.0 " fill="none" stroke-width="2.0" stroke="rgb(0,0,0)"/>
<path id="s145384592" d="M 832.2694,550.8219 840.0,560.0 847.7306,550.8219 " fill="none" stroke-width="2.0" stroke="rgb(0,0,0)"/>
<g id="t140950772">
<text xml:space="preserve" x="844.0" y="546.28125" font-family="Sans,Helvetica" fill="rgb(0,0,0)" font-size="16"/>
</g>
</g>
<g id="la108210781">
<path id="s108210781" d="M 599.9994,599.9998 640.0,599.99976 " fill="none" stroke-width="2.0" stroke="rgb(0,0,0)"/>
<path id="s43049353" d="M 609.1775,592.26917 599.9994,599.9998 609.1775,607.7304 " fill="none" stroke-width="2.0" stroke="rgb(0,0,0)"/>
<g id="t108210781">
<text xml:space="preserve" x="619.9997" y="591.6639" font-family="Sans,Helvetica" fill="rgb(0,0,0)" font-size="16"/>
</g>
</g>
<g id="la168360989">
<path id="s168360989" d="M 739.99976,600.0 780.0,599.9999 " fill="none" stroke-width="2.0" stroke="rgb(0,0,0)"/>
<path id="s90043790" d="M 749.17786,592.26935 739.99976,600.0 749.17786,607.7306 " fill="none" stroke-width="2.0" stroke="rgb(0,0,0)"/>
<g id="t168360989">
<text xml:space="preserve" x="759.9999" y="591.664" font-family="Sans,Helvetica" fill="rgb(0,0,0)" font-size="16"/>
</g>
</g>
<g id="la230435478">
<path id="s230435478" d="M 439.99976,599.99976 480.0,599.99994 " fill="none" stroke-width="2.0" stroke="rgb(0,0,0)"/>
<path id="s61276591" d="M 449.1779,592.26917 439.99976,599.99976 449.17783,607.7304 " fill="none" stroke-width="2.0" stroke="rgb(0,0,0)"/>
<g id="t230435478">
<text xml:space="preserve" x="459.99988" y="591.6639" font-family="Sans,Helvetica" fill="rgb(0,0,0)" font-size="16"/>
</g>
</g>
<g id="la68945431">
<path id="s68945431" d="M 259.99994,600.00024 320.0,600.0 " fill="none" stroke-width="2.0" stroke="rgb(0,0,0)"/>
<path id="s217659836" d="M 269.178,592.2696 259.99994,600.00024 269.17807,607.73083 " fill="none" stroke-width="2.0" stroke="rgb(0,0,0)"/>
<g id="t68945431">
<text xml:space="preserve" x="289.99997" y="591.6642" font-family="Sans,Helvetica" fill="rgb(0,0,0)" font-size="16"/>
</g>
</g>
<g id="la236084882">
<path id="s236084882" d="M 440.00006,390.0 479.99997,389.99997 " fill="none" stroke-width="2.0" stroke="rgb(0,0,0)"/>
<path id="s152898885" d="M 470.82187,397.7306 479.99997,389.99997 470.82187,382.26938 " fill="none" stroke-width="2.0" stroke="rgb(0,0,0)"/>
<g id="t236084882">
<text xml:space="preserve" x="460.0" y="381.66406" font-family="Sans,Helvetica" fill="rgb(0,0,0)" font-size="16"/>
</g>
</g>
<g id="la227471459">
<path id="s227471459" d="M 600.0001,390.0 640.00006,389.99994 " fill="none" stroke-width="2.0" stroke="rgb(0,0,0)"/>
<path id="s63429786" d="M 630.82196,397.73056 640.00006,389.99994 630.82196,382.26935 " fill="none" stroke-width="2.0" stroke="rgb(0,0,0)"/>
<g id="t227471459">
<text xml:space="preserve" x="620.0001" y="381.66403" font-family="Sans,Helvetica" fill="rgb(0,0,0)" font-size="16"/>
</g>
</g>
<g id="la44872800">
<path id="s44872800" d="M 279.99994,389.99994 320.0,389.99988 " fill="none" stroke-width="2.0" stroke="rgb(0,0,0)"/>
<path id="s174852555" d="M 310.8219,397.7305 320.0,389.99988 310.82187,382.2693 " fill="none" stroke-width="2.0" stroke="rgb(0,0,0)"/>
<g id="t44872800">
<text xml:space="preserve" x="299.99997" y="381.66397" font-family="Sans,Helvetica" fill="rgb(0,0,0)" font-size="16"/>
</g>
</g>
<g id="la8201720">
<path id="s8201720" d="M 499.99762,719.99994 580.0,720.0 " fill="none" stroke-width="2.0" stroke="rgb(144,202,249)"/>
<g id="t8201720">
<text xml:space="preserve" x="539.9988" y="711.664" font-family="Sans,Helvetica" fill="rgb(0,0,0)" font-size="16"/>
</g>
</g>
<g id="la212527825">
<path id="s212527825" d="M 499.99838,739.99994 580.0,740.0 " fill="none" stroke-width="2.0" stroke="rgb(209,196,233)"/>
<g id="t212527825">
<text xml:space="preserve" x="539.9992" y="731.664" font-family="Sans,Helvetica" fill="rgb(0,0,0)" font-size="16"/>
</g>
</g>
<g id="la116906294">
<path id="s116906294" d="M 499.99686,699.99994 580.0,700.0 " fill="none" stroke-width="2.0" stroke="rgb(178,235,242)"/>
<g id="t116906294">
<text xml:space="preserve" x="539.9984" y="691.664" font-family="Sans,Helvetica" fill="rgb(0,0,0)" font-size="16"/>
</g>
</g>
<g id="la24780855">
<path id="s24780855" d="M 499.99606,679.99994 580.0,680.0 " fill="none" stroke-width="2.0" stroke="rgb(220,237,200)"/>
<g id="t24780855">
<text xml:space="preserve" x="539.99805" y="671.664" font-family="Sans,Helvetica" fill="rgb(0,0,0)" font-size="16"/>
</g>
</g>
<g id="la32481503">
<path id="s32481503" d="M 380.00003,419.99988 380.0,460.00003 " fill="none" stroke-width="2.0" stroke="rgb(0,0,0)"/>
<path id="s150877608" d="M 372.2694,450.82193 380.0,460.00003 387.73062,450.82193 " fill="none" stroke-width="2.0" stroke="rgb(0,0,0)"/>
</g>
<g id="la25534764">
<path id="s25534764" d="M 380.0,560.0 379.99988,520.0 " fill="none" stroke-width="2.0" stroke="rgb(0,0,0)"/>
<path id="s8796353" d="M 372.26935,550.8219 380.0,560.0 387.7306,550.8219 " fill="none" stroke-width="2.0" stroke="rgb(0,0,0)"/>
<g id="t25534764">
<text xml:space="preserve" x="383.99994" y="546.28125" font-family="Sans,Helvetica" fill="rgb(0,0,0)" font-size="16"/>
</g>
</g>
</svg>
