<?xml version="1.0" encoding="UTF-8"?><svg xmlns="http://www.w3.org/2000/svg" xmlns:xlink="http://www.w3.org/1999/xlink" width="820.0" height="400.0" viewBox="130.0 70.0 820.0 400.0" version="1.1">
<rect x="130.0" y="70.0" width="820.0" height="400.0" fill="rgb(255,255,255)"/>
<g id="s511234">
<polygon id="s511234" points="340.0,120.0 420.0,120.0 419.99988,179.99994 340.0,180.0 " fill="none" stroke-width="2.0" stroke="rgb(0,0,0)"/>
<g id="t511234">
<text xml:space="preserve" x="361.0" y="156.28125" font-family="Sans,Helvetica" fill="rgb(0,0,0)" font-size="16">Inline</text>
</g>
</g>
<g id="s89462291">
<polygon id="s89462291" points="600.0,239.99998 720.0,239.99998 720.0,299.99997 600.0,299.99997 " fill="none" stroke-width="2.0" stroke="rgb(0,0,0)"/>
<g id="t89462291">
<text xml:space="preserve" x="660.0" y="255.04684" font-family="Sans,Helvetica" fill="rgb(0,0,0)" font-size="16"/>
<text xml:space="preserve" x="623.5" y="276.28122" font-family="Sans,Helvetica" fill="rgb(0,0,0)" font-size="16">Machinize</text>
<text xml:space="preserve" x="660.0" y="297.5156" font-family="Sans,Helvetica" fill="rgb(0,0,0)" font-size="16"/>
</g>
</g>
<g id="s128344144">
<polygon id="s128344144" points="459.99997,120.0 560.0,120.0 560.0001,179.99994 459.99997,180.0 " fill="none" stroke-width="2.0" stroke="rgb(0,0,0)"/>
<g id="t128344144">
<text xml:space="preserve" x="475.00006" y="156.28125" font-family="Sans,Helvetica" fill="rgb(0,0,0)" font-size="16">Build CFG</text>
</g>
</g>
<g id="s17797705">
<polygon id="s17797705" points="300.0,239.99998 399.99973,239.99998 400.0,300.0 300.0,300.0 " fill="none" stroke-width="2.0" stroke="rgb(0,0,0)"/>
<g id="t17797705">
<text xml:space="preserve" x="332.0" y="265.66406" font-family="Sans,Helvetica" fill="rgb(0,0,0)" font-size="16">Build</text>
<text xml:space="preserve" x="319.5" y="286.89844" font-family="Sans,Helvetica" fill="rgb(0,0,0)" font-size="16">Live Info</text>
</g>
</g>
<g id="s262780750">
<polygon id="s262780750" points="160.0,239.99998 259.99924,239.99998 260.0,300.0 160.0,299.99973 " fill="none" stroke-width="2.0" stroke="rgb(0,0,0)"/>
<g id="t262780750">
<text xml:space="preserve" x="175.5" y="265.66406" font-family="Sans,Helvetica" fill="rgb(0,0,0)" font-size="16">Build Live</text>
<text xml:space="preserve" x="183.5" y="286.89844" font-family="Sans,Helvetica" fill="rgb(0,0,0)" font-size="16">Ranges</text>
</g>
</g>
<g id="s91291759">
<polygon id="s91291759" points="160.0,360.0 259.9999,360.0 260.0,439.99973 160.0,440.0 " fill="none" stroke-width="2.0" stroke="rgb(0,0,0)"/>
<g id="t91291759">
<text xml:space="preserve" x="186.0" y="395.66406" font-family="Sans,Helvetica" fill="rgb(0,0,0)" font-size="16">Assign</text>
<text xml:space="preserve" x="177.5" y="416.89844" font-family="Sans,Helvetica" fill="rgb(0,0,0)" font-size="16">Registers</text>
</g>
</g>
<g id="s68759932">
<polygon id="s68759932" points="300.0,360.0 380.0,360.0 380.0,440.0 300.0,439.9997 " fill="none" stroke-width="2.0" stroke="rgb(0,0,0)"/>
<g id="t68759932">
<text xml:space="preserve" x="314.0" y="406.28125" font-family="Sans,Helvetica" fill="rgb(0,0,0)" font-size="16">Rewrite</text>
</g>
</g>
<g id="s261259827">
<polygon id="s261259827" points="560.0,360.0 680.0,360.0 679.9997,439.9998 560.0,440.0 " fill="none" stroke-width="2.0" stroke="rgb(0,0,0)"/>
<g id="t261259827">
<text xml:space="preserve" x="581.5" y="395.66406" font-family="Sans,Helvetica" fill="rgb(0,0,0)" font-size="16">Dead Code</text>
<text xml:space="preserve" x="580.0" y="416.89844" font-family="Sans,Helvetica" fill="rgb(0,0,0)" font-size="16">Elimination</text>
</g>
</g>
<g id="s45069759">
<polygon id="s45069759" points="720.0,360.0 820.0,360.0 819.99945,439.9997 720.0,440.0 " fill="none" stroke-width="2.0" stroke="rgb(0,0,0)"/>
<g id="t45069759">
<text xml:space="preserve" x="738.5" y="385.04688" font-family="Sans,Helvetica" fill="rgb(0,0,0)" font-size="16">Generate</text>
<text xml:space="preserve" x="739.5" y="406.28125" font-family="Sans,Helvetica" fill="rgb(0,0,0)" font-size="16">Machine</text>
<text xml:space="preserve" x="752.0" y="427.51562" font-family="Sans,Helvetica" fill="rgb(0,0,0)" font-size="16">Code</text>
</g>
</g>
<g id="s40761946">
<polygon id="s40761946" points="160.0,120.0 199.99994,120.0 200.0,180.0 160.00003,179.99994 " fill="none" stroke-width="0.0" stroke="rgb(0,0,0)"/>
<g id="t40761946">
<text xml:space="preserve" x="166.0" y="156.28125" font-family="Sans,Helvetica" fill="rgb(0,0,0)" font-size="16">MIR</text>
</g>
</g>
<g id="s10989534">
<polygon id="s10989534" points="840.0,360.0 920.0,360.0 919.9999,439.99966 840.0,440.0 " fill="none" stroke-width="0.0" stroke="rgb(0,0,0)"/>
<g id="t10989534">
<text xml:space="preserve" x="849.5" y="395.66406" font-family="Sans,Helvetica" fill="rgb(0,0,0)" font-size="16">Machine</text>
<text xml:space="preserve" x="862.0" y="416.89844" font-family="Sans,Helvetica" fill="rgb(0,0,0)" font-size="16">Code</text>
</g>
</g>
<g id="s112669835">
<polygon id="s112669835" points="600.0,100.0 719.9999,100.0 720.00024,199.99988 600.0,199.99994 " fill="none" stroke-width="2.0" stroke="rgb(0,0,0)"/>
<g id="t112669835">
<text xml:space="preserve" x="637.0001" y="124.42966" font-family="Sans,Helvetica" fill="rgb(0,0,0)" font-size="16">Global</text>
<text xml:space="preserve" x="627.5001" y="145.66403" font-family="Sans,Helvetica" fill="rgb(0,0,0)" font-size="16">Common</text>
<text xml:space="preserve" x="628.5001" y="166.8984" font-family="Sans,Helvetica" fill="rgb(0,0,0)" font-size="16">Sub-Expr</text>
<text xml:space="preserve" x="618.0001" y="188.13278" font-family="Sans,Helvetica" fill="rgb(0,0,0)" font-size="16">Elimination </text>
</g>
</g>
<g id="s210102632">
<polygon id="s210102632" points="760.0,120.0 880.0,120.0 879.99976,180.0 760.0,179.99994 " fill="none" stroke-width="2.0" stroke="rgb(0,0,0)"/>
<g id="t210102632">
<text xml:space="preserve" x="781.5" y="145.66406" font-family="Sans,Helvetica" fill="rgb(0,0,0)" font-size="16">Dead Code</text>
<text xml:space="preserve" x="780.0" y="166.89844" font-family="Sans,Helvetica" fill="rgb(0,0,0)" font-size="16">Elimination</text>
</g>
</g>
<g id="s9585025">
<polygon id="s9585025" points="760.0,219.99998 879.99963,219.99998 880.0,319.99988 760.0,320.00006 " fill="none" stroke-width="2.0" stroke="rgb(0,0,0)"/>
<g id="t9585025">
<text xml:space="preserve" x="795.5" y="244.42972" font-family="Sans,Helvetica" fill="rgb(0,0,0)" font-size="16">Sparse</text>
<text xml:space="preserve" x="779.5" y="265.6641" font-family="Sans,Helvetica" fill="rgb(0,0,0)" font-size="16">Conditional</text>
<text xml:space="preserve" x="788.0" y="286.89847" font-family="Sans,Helvetica" fill="rgb(0,0,0)" font-size="16">Constant</text>
<text xml:space="preserve" x="776.5" y="308.13284" font-family="Sans,Helvetica" fill="rgb(0,0,0)" font-size="16">Propagation</text>
</g>
</g>
<g id="s151085606">
<polygon id="s151085606" points="220.00002,120.0 300.0,120.0 300.0,180.0 220.00002,179.99994 " fill="none" stroke-width="2.0" stroke="rgb(0,0,0)"/>
<g id="t151085606">
<text xml:space="preserve" x="230.5" y="156.28125" font-family="Sans,Helvetica" fill="rgb(0,0,0)" font-size="16">Simplify</text>
</g>
</g>
<g id="s154791070">
<polygon id="s154791070" points="439.99997,240.0 559.99994,240.0 559.99994,299.99997 439.99997,300.0 " fill="none" stroke-width="2.0" stroke="rgb(0,0,0)"/>
<g id="t154791070">
<text xml:space="preserve" x="460.49994" y="276.28125" font-family="Sans,Helvetica" fill="rgb(0,0,0)" font-size="16">Find Loops</text>
</g>
</g>
<g id="s230033925">
<polygon id="s230033925" points="420.0,360.0 519.9998,360.0 520.0,440.0 420.0,439.9998 " fill="none" stroke-width="2.0" stroke="rgb(0,0,0)"/>
<g id="t230033925">
<text xml:space="preserve" x="438.5" y="395.66406" font-family="Sans,Helvetica" fill="rgb(0,0,0)" font-size="16">Combine</text>
<text xml:space="preserve" x="451.0" y="416.89844" font-family="Sans,Helvetica" fill="rgb(0,0,0)" font-size="16">Insns</text>
</g>
</g>
<g id="la261656574">
<path id="s261656574" d="M 300.0,150.0 340.0,150.0 " fill="none" stroke-width="2.0" stroke="rgb(0,0,0)"/>
<path id="s102534622" d="M 330.8219,157.7306 340.0,150.0 330.8219,142.26938 " fill="none" stroke-width="2.0" stroke="rgb(0,0,0)"/>
<g id="t261656574">
<text xml:space="preserve" x="320.0" y="142.20605" font-family="Sans,Helvetica" fill="rgb(0,0,0)" font-size="14"/>
</g>
</g>
<g id="la1145522">
<path id="s1145522" d="M 259.99966,269.99997 300.0,270.0 " fill="none" stroke-width="2.0" stroke="rgb(0,0,0)"/>
<path id="s90559116" d="M 269.17776,262.26938 259.99966,269.99997 269.17776,277.7306 " fill="none" stroke-width="2.0" stroke="rgb(0,0,0)"/>
<g id="t1145522">
<text xml:space="preserve" x="279.99982" y="262.20602" font-family="Sans,Helvetica" fill="rgb(0,0,0)" font-size="14"/>
</g>
</g>
<g id="la105010811">
<path id="s105010811" d="M 719.99994,270.0 760.0,270.00003 " fill="none" stroke-width="2.0" stroke="rgb(0,0,0)"/>
<path id="s113868245" d="M 729.17804,262.2694 719.99994,270.0 729.17804,277.73062 " fill="none" stroke-width="2.0" stroke="rgb(0,0,0)"/>
<g id="t105010811">
<text xml:space="preserve" x="740.0" y="262.20605" font-family="Sans,Helvetica" fill="rgb(0,0,0)" font-size="14"/>
</g>
</g>
<g id="la181006764">
<path id="s181006764" d="M 720.00006,149.99994 760.0,149.99997 " fill="none" stroke-width="2.0" stroke="rgb(0,0,0)"/>
<path id="s266316266" d="M 750.8219,157.73058 760.0,149.99997 750.8219,142.26935 " fill="none" stroke-width="2.0" stroke="rgb(0,0,0)"/>
<g id="t181006764">
<text xml:space="preserve" x="740.0" y="142.20601" font-family="Sans,Helvetica" fill="rgb(0,0,0)" font-size="14"/>
</g>
</g>
<g id="la14847591">
<path id="s14847591" d="M 819.9999,179.99997 819.9998,219.99998 " fill="none" stroke-width="2.0" stroke="rgb(0,0,0)"/>
<path id="s217896155" d="M 812.2692,210.82187 819.9998,219.99998 827.73047,210.82188 " fill="none" stroke-width="2.0" stroke="rgb(0,0,0)"/>
<g id="t14847591">
<text xml:space="preserve" x="823.9998" y="205.49606" font-family="Sans,Helvetica" fill="rgb(0,0,0)" font-size="14"/>
</g>
</g>
<g id="la142529305">
<path id="s142529305" d="M 819.99976,399.99985 840.0,400.0 " fill="none" stroke-width="2.0" stroke="rgb(0,0,0)"/>
<path id="s196343197" d="M 830.82184,407.73053 840.0,400.0 830.82196,392.26932 " fill="none" stroke-width="2.0" stroke="rgb(0,0,0)"/>
<g id="t142529305">
<text xml:space="preserve" x="829.9999" y="392.206" font-family="Sans,Helvetica" fill="rgb(0,0,0)" font-size="14"/>
</g>
</g>
<g id="la40148921">
<path id="s40148921" d="M 199.99997,150.0 200.0,150.0 200.0,149.99997 220.00002,149.99997 " fill="none" stroke-width="2.0" stroke="rgb(0,0,0)"/>
<path id="s137437777" d="M 210.82191,157.73058 220.00002,149.99997 210.82191,142.26935 " fill="none" stroke-width="2.0" stroke="rgb(0,0,0)"/>
<g id="t40148921">
<text xml:space="preserve" x="209.99997" y="142.20602" font-family="Sans,Helvetica" fill="rgb(0,0,0)" font-size="14"/>
</g>
</g>
<g id="la42218516">
<path id="s42218516" d="M 560.00006,149.99997 600.0,149.99997 " fill="none" stroke-width="2.0" stroke="rgb(0,0,0)"/>
<path id="s17201846" d="M 590.8219,157.73058 600.0,149.99997 590.8219,142.26935 " fill="none" stroke-width="2.0" stroke="rgb(0,0,0)"/>
<g id="t42218516">
<text xml:space="preserve" x="580.0" y="142.20602" font-family="Sans,Helvetica" fill="rgb(0,0,0)" font-size="14"/>
</g>
</g>
<g id="la262460834">
<path id="s262460834" d="M 679.9999,399.99988 720.0,400.0 " fill="none" stroke-width="2.0" stroke="rgb(0,0,0)"/>
<path id="s129409590" d="M 710.8219,407.7306 720.0,400.0 710.8219,392.26935 " fill="none" stroke-width="2.0" stroke="rgb(0,0,0)"/>
<g id="t262460834">
<text xml:space="preserve" x="699.99994" y="392.206" font-family="Sans,Helvetica" fill="rgb(0,0,0)" font-size="14"/>
</g>
</g>
<g id="la190599342">
<path id="s190599342" d="M 259.99985,399.99988 300.0,399.99985 " fill="none" stroke-width="2.0" stroke="rgb(0,0,0)"/>
<path id="s142731044" d="M 290.8219,407.73047 300.0,399.99985 290.8219,392.26926 " fill="none" stroke-width="2.0" stroke="rgb(0,0,0)"/>
</g>
<g id="la192384591">
<path id="s192384591" d="M 210.00005,299.9999 209.99977,360.0 " fill="none" stroke-width="2.0" stroke="rgb(0,0,0)"/>
<path id="s227840653" d="M 202.2692,350.82187 209.99977,360.0 217.73042,350.82193 " fill="none" stroke-width="2.0" stroke="rgb(0,0,0)"/>
</g>
<g id="la177024067">
<path id="s177024067" d="M 399.99988,270.0 439.99997,270.0 " fill="none" stroke-width="2.0" stroke="rgb(0,0,0)"/>
<path id="s49777730" d="M 409.17798,262.26938 399.99988,270.0 409.17798,277.73062 " fill="none" stroke-width="2.0" stroke="rgb(0,0,0)"/>
</g>
<g id="la47081378">
<path id="s47081378" d="M 560.0,270.00006 600.0,270.0 " fill="none" stroke-width="2.0" stroke="rgb(0,0,0)"/>
<path id="s221185107" d="M 569.1781,262.26944 560.0,270.00006 569.1781,277.73065 " fill="none" stroke-width="2.0" stroke="rgb(0,0,0)"/>
</g>
<g id="la94401725">
<path id="s94401725" d="M 380.0,400.0 420.0,399.9999 " fill="none" stroke-width="2.0" stroke="rgb(0,0,0)"/>
<path id="s166966583" d="M 410.8219,407.73053 420.0,399.9999 410.82187,392.26932 " fill="none" stroke-width="2.0" stroke="rgb(0,0,0)"/>
<g id="t94401725">
<text xml:space="preserve" x="400.0" y="392.20602" font-family="Sans,Helvetica" fill="rgb(0,0,0)" font-size="14"/>
</g>
</g>
<g id="la48868874">
<path id="s48868874" d="M 519.9999,400.0 560.0,400.0 " fill="none" stroke-width="2.0" stroke="rgb(0,0,0)"/>
<path id="s226826916" d="M 550.8219,407.73062 560.0,400.0 550.8219,392.26938 " fill="none" stroke-width="2.0" stroke="rgb(0,0,0)"/>
<g id="t48868874">
<text xml:space="preserve" x="539.99994" y="392.20605" font-family="Sans,Helvetica" fill="rgb(0,0,0)" font-size="14"/>
</g>
</g>
<g id="la249821296">
<path id="s249821296" d="M 419.99994,149.99997 459.99997,150.0 " fill="none" stroke-width="2.0" stroke="rgb(0,0,0)"/>
<path id="s217459342" d="M 450.82187,157.7306 459.99997,150.0 450.82187,142.26938 " fill="none" stroke-width="2.0" stroke="rgb(0,0,0)"/>
</g>
</svg>
