<?xml version="1.0" encoding="UTF-8"?><svg xmlns="http://www.w3.org/2000/svg" xmlns:xlink="http://www.w3.org/1999/xlink" width="799.0" height="540.0" viewBox="130.0 70.0 799.0 540.0" version="1.1">
<rect x="130.0" y="70.0" width="799.0" height="540.0" fill="rgb(255,255,255)"/>
<g id="s171829509">
<polygon id="s171829509" points="340.0,120.0 420.0,120.0 419.99988,179.99994 340.0,180.0 " fill="none" stroke-width="2.0" stroke="rgb(0,0,0)"/>
<g id="t171829509">
<text xml:space="preserve" x="361.0" y="156.28125" font-family="Sans,Helvetica" fill="rgb(0,0,0)" font-size="16">Inline</text>
</g>
</g>
<g id="s50791364">
<polygon id="s50791364" points="320.0,380.00003 440.00006,380.00003 440.00006,440.0 320.0,440.0 " fill="none" stroke-width="2.0" stroke="rgb(0,0,0)"/>
<g id="t50791364">
<text xml:space="preserve" x="380.00003" y="395.04688" font-family="Sans,Helvetica" fill="rgb(0,0,0)" font-size="16"/>
<text xml:space="preserve" x="343.50003" y="416.28125" font-family="Sans,Helvetica" fill="rgb(0,0,0)" font-size="16">Machinize</text>
<text xml:space="preserve" x="380.00003" y="437.51562" font-family="Sans,Helvetica" fill="rgb(0,0,0)" font-size="16"/>
</g>
</g>
<g id="s138014042">
<polygon id="s138014042" points="459.99997,120.0 560.0,120.0 560.0001,179.99994 459.99997,180.0 " fill="none" stroke-width="2.0" stroke="rgb(0,0,0)"/>
<g id="t138014042">
<text xml:space="preserve" x="475.00006" y="156.28125" font-family="Sans,Helvetica" fill="rgb(0,0,0)" font-size="16">Build CFG</text>
</g>
</g>
<g id="s179995309">
<polygon id="s179995309" points="640.0,380.0 739.9996,380.0 739.99994,440.0 640.0,440.0 " fill="none" stroke-width="2.0" stroke="rgb(0,0,0)"/>
<g id="t179995309">
<text xml:space="preserve" x="672.0" y="405.66406" font-family="Sans,Helvetica" fill="rgb(0,0,0)" font-size="16">Build</text>
<text xml:space="preserve" x="659.5" y="426.89844" font-family="Sans,Helvetica" fill="rgb(0,0,0)" font-size="16">Live Info</text>
</g>
</g>
<g id="s67668450">
<polygon id="s67668450" points="800.0,380.0 899.99915,380.0 899.9999,440.00003 800.0,439.99973 " fill="none" stroke-width="2.0" stroke="rgb(0,0,0)"/>
<g id="t67668450">
<text xml:space="preserve" x="815.49994" y="405.66406" font-family="Sans,Helvetica" fill="rgb(0,0,0)" font-size="16">Build Live</text>
<text xml:space="preserve" x="823.49994" y="426.89844" font-family="Sans,Helvetica" fill="rgb(0,0,0)" font-size="16">Ranges</text>
</g>
</g>
<g id="s141672819">
<polygon id="s141672819" points="800.0,500.0 899.99976,500.0 899.9999,579.99976 800.0,580.0 " fill="none" stroke-width="2.0" stroke="rgb(0,0,0)"/>
<g id="t141672819">
<text xml:space="preserve" x="825.99994" y="535.66406" font-family="Sans,Helvetica" fill="rgb(0,0,0)" font-size="16">Assign</text>
<text xml:space="preserve" x="817.49994" y="556.89844" font-family="Sans,Helvetica" fill="rgb(0,0,0)" font-size="16">Registers</text>
</g>
</g>
<g id="s55744560">
<polygon id="s55744560" points="680.0,500.0 759.9999,500.0 759.9999,580.0 680.0,579.9997 " fill="none" stroke-width="2.0" stroke="rgb(0,0,0)"/>
<g id="t55744560">
<text xml:space="preserve" x="693.99994" y="546.28125" font-family="Sans,Helvetica" fill="rgb(0,0,0)" font-size="16">Rewrite</text>
</g>
</g>
<g id="s162110633">
<polygon id="s162110633" points="400.0,500.00003 500.00015,500.00003 499.9999,579.99976 400.0,580.0 " fill="none" stroke-width="2.0" stroke="rgb(0,0,0)"/>
<g id="t162110633">
<text xml:space="preserve" x="411.50006" y="535.66406" font-family="Sans,Helvetica" fill="rgb(0,0,0)" font-size="16">Dead Code</text>
<text xml:space="preserve" x="410.00006" y="556.89844" font-family="Sans,Helvetica" fill="rgb(0,0,0)" font-size="16">Elimination</text>
</g>
</g>
<g id="s245981742">
<polygon id="s245981742" points="260.0,500.0 360.00006,500.0 359.99957,579.99976 260.0,580.0 " fill="none" stroke-width="2.0" stroke="rgb(0,0,0)"/>
<g id="t245981742">
<text xml:space="preserve" x="278.50003" y="525.0469" font-family="Sans,Helvetica" fill="rgb(0,0,0)" font-size="16">Generate</text>
<text xml:space="preserve" x="279.50003" y="546.28125" font-family="Sans,Helvetica" fill="rgb(0,0,0)" font-size="16">Machine</text>
<text xml:space="preserve" x="292.00003" y="567.5156" font-family="Sans,Helvetica" fill="rgb(0,0,0)" font-size="16">Code</text>
</g>
</g>
<g id="s77048715">
<polygon id="s77048715" points="160.0,120.0 199.99994,120.0 200.0,180.0 160.00003,179.99994 " fill="none" stroke-width="0.0" stroke="rgb(0,0,0)"/>
<g id="t77048715">
<text xml:space="preserve" x="166.0" y="156.28125" font-family="Sans,Helvetica" fill="rgb(0,0,0)" font-size="16">MIR</text>
</g>
</g>
<g id="s127730127">
<polygon id="s127730127" points="160.0,500.0 240.0,500.0 239.99988,579.99963 160.0,580.0 " fill="none" stroke-width="0.0" stroke="rgb(0,0,0)"/>
<g id="t127730127">
<text xml:space="preserve" x="169.5" y="535.66406" font-family="Sans,Helvetica" fill="rgb(0,0,0)" font-size="16">Machine</text>
<text xml:space="preserve" x="182.0" y="556.89844" font-family="Sans,Helvetica" fill="rgb(0,0,0)" font-size="16">Code</text>
</g>
</g>
<g id="s56267880">
<polygon id="s56267880" points="600.0,100.0 719.9999,100.0 720.00024,199.99988 600.0,199.99994 " fill="none" stroke-width="2.0" stroke="rgb(0,0,0)"/>
<g id="t56267880">
<text xml:space="preserve" x="637.0001" y="124.42966" font-family="Sans,Helvetica" fill="rgb(0,0,0)" font-size="16">Global</text>
<text xml:space="preserve" x="627.5001" y="145.66403" font-family="Sans,Helvetica" fill="rgb(0,0,0)" font-size="16">Common</text>
<text xml:space="preserve" x="628.5001" y="166.8984" font-family="Sans,Helvetica" fill="rgb(0,0,0)" font-size="16">Sub-Expr</text>
<text xml:space="preserve" x="618.0001" y="188.13278" font-family="Sans,Helvetica" fill="rgb(0,0,0)" font-size="16">Elimination </text>
</g>
</g>
<g id="s143780843">
<polygon id="s143780843" points="760.0,120.0 880.0,120.0 879.99976,180.0 760.0,179.99994 " fill="none" stroke-width="2.0" stroke="rgb(0,0,0)"/>
<g id="t143780843">
<text xml:space="preserve" x="781.5" y="145.66406" font-family="Sans,Helvetica" fill="rgb(0,0,0)" font-size="16">Dead Code</text>
<text xml:space="preserve" x="780.0" y="166.89844" font-family="Sans,Helvetica" fill="rgb(0,0,0)" font-size="16">Elimination</text>
</g>
</g>
<g id="s159450972">
<polygon id="s159450972" points="160.00002,360.0 279.99976,360.0 280.00012,459.99985 160.00002,460.0001 " fill="none" stroke-width="2.0" stroke="rgb(0,0,0)"/>
<g id="t159450972">
<text xml:space="preserve" x="195.50006" y="384.42975" font-family="Sans,Helvetica" fill="rgb(0,0,0)" font-size="16">Sparse</text>
<text xml:space="preserve" x="179.50006" y="405.66412" font-family="Sans,Helvetica" fill="rgb(0,0,0)" font-size="16">Conditional</text>
<text xml:space="preserve" x="188.00006" y="426.8985" font-family="Sans,Helvetica" fill="rgb(0,0,0)" font-size="16">Constant</text>
<text xml:space="preserve" x="176.50006" y="448.13287" font-family="Sans,Helvetica" fill="rgb(0,0,0)" font-size="16">Propagation</text>
</g>
</g>
<g id="s121180289">
<polygon id="s121180289" points="220.00002,120.0 300.0,120.0 300.0,180.0 220.00002,179.99994 " fill="none" stroke-width="2.0" stroke="rgb(0,0,0)"/>
<g id="t121180289">
<text xml:space="preserve" x="230.5" y="156.28125" font-family="Sans,Helvetica" fill="rgb(0,0,0)" font-size="16">Simplify</text>
</g>
</g>
<g id="s141390650">
<polygon id="s141390650" points="540.0,500.0 639.99976,500.0 640.0,580.0 540.0,579.9997 " fill="none" stroke-width="2.0" stroke="rgb(0,0,0)"/>
<g id="t141390650">
<text xml:space="preserve" x="558.5" y="535.66406" font-family="Sans,Helvetica" fill="rgb(0,0,0)" font-size="16">Combine</text>
<text xml:space="preserve" x="571.0" y="556.89844" font-family="Sans,Helvetica" fill="rgb(0,0,0)" font-size="16">Insns</text>
</g>
</g>
<g id="s22554725">
<polygon id="s22554725" points="760.0,220.0 879.99884,220.0 880.0,319.99988 760.0,320.0 " fill="none" stroke-width="2.0" stroke="rgb(0,0,0)"/>
<g id="t22554725">
<text xml:space="preserve" x="787.0" y="255.04688" font-family="Sans,Helvetica" fill="rgb(0,0,0)" font-size="16">Reaching</text>
<text xml:space="preserve" x="781.5" y="276.28125" font-family="Sans,Helvetica" fill="rgb(0,0,0)" font-size="16">Definitions</text>
<text xml:space="preserve" x="790.0" y="297.51562" font-family="Sans,Helvetica" fill="rgb(0,0,0)" font-size="16">Analysis</text>
</g>
</g>
<g id="s149772634">
<polygon id="s149772634" points="620.0,240.0 719.9998,240.0 720.0,300.0 620.0,300.0 " fill="none" stroke-width="2.0" stroke="rgb(0,0,0)"/>
<g id="t149772634">
<text xml:space="preserve" x="641.0" y="265.66406" font-family="Sans,Helvetica" fill="rgb(0,0,0)" font-size="16">Variable</text>
<text xml:space="preserve" x="634.0" y="286.89844" font-family="Sans,Helvetica" fill="rgb(0,0,0)" font-size="16">Renaming</text>
</g>
</g>
<g id="s224350741">
<polygon id="s224350741" points="460.0,240.0 579.99976,240.0 579.99976,300.0 460.0,299.9999 " fill="none" stroke-width="2.0" stroke="rgb(0,0,0)"/>
<g id="t224350741">
<text xml:space="preserve" x="480.49988" y="276.28125" font-family="Sans,Helvetica" fill="rgb(0,0,0)" font-size="16">Find Loops</text>
</g>
</g>
<g id="s65316747">
<polygon id="s65316747" points="320.0,220.0 419.99997,220.0 420.0,320.0 320.0,319.99976 " fill="none" stroke-width="2.0" stroke="rgb(0,0,0)"/>
<g id="t65316747">
<text xml:space="preserve" x="337.0" y="255.04688" font-family="Sans,Helvetica" fill="rgb(0,0,0)" font-size="16">Reaching</text>
<text xml:space="preserve" x="331.5" y="276.28125" font-family="Sans,Helvetica" fill="rgb(0,0,0)" font-size="16">Definitions</text>
<text xml:space="preserve" x="340.0" y="297.51562" font-family="Sans,Helvetica" fill="rgb(0,0,0)" font-size="16">Analysis</text>
</g>
</g>
<g id="s65658984">
<polygon id="s65658984" points="160.00002,220.0 279.99994,220.0 280.0,320.0 160.00002,319.99994 " fill="none" stroke-width="2.0" stroke="rgb(0,0,0)"/>
<g id="t65658984">
<text xml:space="preserve" x="200.0" y="255.04688" font-family="Sans,Helvetica" fill="rgb(0,0,0)" font-size="16">Loop </text>
<text xml:space="preserve" x="189.0" y="276.28125" font-family="Sans,Helvetica" fill="rgb(0,0,0)" font-size="16">Invariant</text>
<text xml:space="preserve" x="173.0" y="297.51562" font-family="Sans,Helvetica" fill="rgb(0,0,0)" font-size="16">Code Motion </text>
</g>
</g>
<g id="s156654181">
<polygon id="s156654181" points="479.99997,380.0 600.0001,380.0 600.0001,439.99994 479.99997,440.0 " fill="none" stroke-width="2.0" stroke="rgb(0,0,0)"/>
<g id="t156654181">
<text xml:space="preserve" x="500.50006" y="416.28125" font-family="Sans,Helvetica" fill="rgb(0,0,0)" font-size="16">Find Loops</text>
</g>
</g>
<g id="la186221862">
<path id="s186221862" d="M 300.0,150.0 340.0,150.0 " fill="none" stroke-width="2.0" stroke="rgb(0,0,0)"/>
<path id="s109259596" d="M 330.8219,157.7306 340.0,150.0 330.8219,142.26938 " fill="none" stroke-width="2.0" stroke="rgb(0,0,0)"/>
<g id="t186221862">
<text xml:space="preserve" x="320.0" y="142.20605" font-family="Sans,Helvetica" fill="rgb(0,0,0)" font-size="14"/>
</g>
</g>
<g id="la30635367">
<path id="s30635367" d="M 720.00006,149.99994 760.0,149.99997 " fill="none" stroke-width="2.0" stroke="rgb(0,0,0)"/>
<path id="s97699733" d="M 750.8219,157.73058 760.0,149.99997 750.8219,142.26935 " fill="none" stroke-width="2.0" stroke="rgb(0,0,0)"/>
<g id="t30635367">
<text xml:space="preserve" x="740.0" y="142.20601" font-family="Sans,Helvetica" fill="rgb(0,0,0)" font-size="14"/>
</g>
</g>
<g id="la158895892">
<path id="s158895892" d="M 199.99997,150.0 200.0,150.0 200.0,149.99997 220.00002,149.99997 " fill="none" stroke-width="2.0" stroke="rgb(0,0,0)"/>
<path id="s97292458" d="M 210.82191,157.73058 220.00002,149.99997 210.82191,142.26935 " fill="none" stroke-width="2.0" stroke="rgb(0,0,0)"/>
<g id="t158895892">
<text xml:space="preserve" x="209.99997" y="142.20602" font-family="Sans,Helvetica" fill="rgb(0,0,0)" font-size="14"/>
</g>
</g>
<g id="la23409597">
<path id="s23409597" d="M 560.00006,149.99997 600.0,149.99997 " fill="none" stroke-width="2.0" stroke="rgb(0,0,0)"/>
<path id="s162108571" d="M 590.8219,157.73058 600.0,149.99997 590.8219,142.26935 " fill="none" stroke-width="2.0" stroke="rgb(0,0,0)"/>
<g id="t23409597">
<text xml:space="preserve" x="580.0" y="142.20602" font-family="Sans,Helvetica" fill="rgb(0,0,0)" font-size="14"/>
</g>
</g>
<g id="la252235186">
<path id="s252235186" d="M 419.99994,149.99997 459.99997,150.0 " fill="none" stroke-width="2.0" stroke="rgb(0,0,0)"/>
<path id="s56471608" d="M 450.82187,157.7306 459.99997,150.0 450.82187,142.26938 " fill="none" stroke-width="2.0" stroke="rgb(0,0,0)"/>
<g id="t252235186">
<text xml:space="preserve" x="439.99994" y="141.66405" font-family="Sans,Helvetica" fill="rgb(0,0,0)" font-size="16"/>
</g>
</g>
<g id="la144249479">
<path id="s144249479" d="M 719.9999,270.0 760.0,269.9999 " fill="none" stroke-width="2.0" stroke="rgb(0,0,0)"/>
<path id="s233130001" d="M 729.178,262.26938 719.9999,270.0 729.178,277.7306 " fill="none" stroke-width="2.0" stroke="rgb(0,0,0)"/>
</g>
<g id="la48806659">
<path id="s48806659" d="M 579.99976,270.0 620.0,270.0 " fill="none" stroke-width="2.0" stroke="rgb(0,0,0)"/>
<path id="s79367542" d="M 589.17786,262.26938 579.99976,270.0 589.17786,277.73062 " fill="none" stroke-width="2.0" stroke="rgb(0,0,0)"/>
</g>
<g id="la215440720">
<path id="s215440720" d="M 420.0,270.0 460.0,269.99994 " fill="none" stroke-width="2.0" stroke="rgb(0,0,0)"/>
<path id="s16965495" d="M 429.1781,262.26938 420.0,270.0 429.17813,277.7306 " fill="none" stroke-width="2.0" stroke="rgb(0,0,0)"/>
</g>
<g id="la23804377">
<path id="s23804377" d="M 320.0,269.99988 279.99997,270.0 " fill="none" stroke-width="2.0" stroke="rgb(0,0,0)"/>
<path id="s190420964" d="M 289.17804,262.26935 279.99997,270.0 289.1781,277.7306 " fill="none" stroke-width="2.0" stroke="rgb(0,0,0)"/>
</g>
<g id="la185307350">
<path id="s185307350" d="M 819.9999,179.99997 819.9994,220.0 " fill="none" stroke-width="2.0" stroke="rgb(0,0,0)"/>
<path id="s264590413" d="M 812.26886,210.8218 819.9994,220.0 827.7301,210.82199 " fill="none" stroke-width="2.0" stroke="rgb(0,0,0)"/>
</g>
<g id="la33401175">
<path id="s33401175" d="M 220.0,319.99997 219.99988,360.0 " fill="none" stroke-width="2.0" stroke="rgb(0,0,0)"/>
<path id="s121801474" d="M 212.26929,350.82187 219.99988,360.0 227.73051,350.82193 " fill="none" stroke-width="2.0" stroke="rgb(0,0,0)"/>
</g>
<g id="la64151853">
<path id="s64151853" d="M 739.99976,410.0 800.0,409.99988 " fill="none" stroke-width="2.0" stroke="rgb(0,0,0)"/>
<path id="s54262803" d="M 790.8219,417.7305 800.0,409.99988 790.8219,402.2693 " fill="none" stroke-width="2.0" stroke="rgb(0,0,0)"/>
</g>
<g id="la120833634">
<path id="s120833634" d="M 849.99994,439.99988 849.9999,500.0 " fill="none" stroke-width="2.0" stroke="rgb(0,0,0)"/>
<path id="s17452624" d="M 842.2693,490.8219 849.9999,500.0 857.7305,490.8219 " fill="none" stroke-width="2.0" stroke="rgb(0,0,0)"/>
</g>
<g id="la155812851">
<path id="s155812851" d="M 759.9999,540.0 800.0,540.0 " fill="none" stroke-width="2.0" stroke="rgb(0,0,0)"/>
<path id="s47338830" d="M 769.178,532.2694 759.9999,540.0 769.178,547.7306 " fill="none" stroke-width="2.0" stroke="rgb(0,0,0)"/>
</g>
<g id="la192112816">
<path id="s192112816" d="M 500.00003,539.9999 540.0,539.9999 " fill="none" stroke-width="2.0" stroke="rgb(0,0,0)"/>
<path id="s41400498" d="M 509.17813,532.2693 500.00003,539.9999 509.17813,547.73047 " fill="none" stroke-width="2.0" stroke="rgb(0,0,0)"/>
</g>
<g id="la36266793">
<path id="s36266793" d="M 639.9999,540.0 680.0,539.9999 " fill="none" stroke-width="2.0" stroke="rgb(0,0,0)"/>
<path id="s49025027" d="M 649.178,532.26935 639.9999,540.0 649.178,547.7306 " fill="none" stroke-width="2.0" stroke="rgb(0,0,0)"/>
</g>
<g id="la42722990">
<path id="s42722990" d="M 359.99982,539.9999 400.0,540.0 " fill="none" stroke-width="2.0" stroke="rgb(0,0,0)"/>
<path id="s11922304" d="M 369.17795,532.2693 359.99982,539.9999 369.1779,547.7305 " fill="none" stroke-width="2.0" stroke="rgb(0,0,0)"/>
</g>
<g id="la242117711">
<path id="s242117711" d="M 239.99994,539.9998 260.0,540.0 " fill="none" stroke-width="2.0" stroke="rgb(0,0,0)"/>
<path id="s3569081" d="M 249.17812,532.2693 239.99994,539.9998 249.17798,547.7305 " fill="none" stroke-width="2.0" stroke="rgb(0,0,0)"/>
</g>
<g id="la236871644">
<path id="s236871644" d="M 440.00006,410.0 479.99997,410.0 " fill="none" stroke-width="2.0" stroke="rgb(0,0,0)"/>
<path id="s86289918" d="M 470.82187,417.73062 479.99997,410.0 470.82187,402.26938 " fill="none" stroke-width="2.0" stroke="rgb(0,0,0)"/>
</g>
<g id="la72091877">
<path id="s72091877" d="M 600.0001,409.99997 640.0,410.0 " fill="none" stroke-width="2.0" stroke="rgb(0,0,0)"/>
<path id="s236300639" d="M 630.8219,417.7306 640.0,410.0 630.8219,402.26938 " fill="none" stroke-width="2.0" stroke="rgb(0,0,0)"/>
</g>
<g id="la237465557">
<path id="s237465557" d="M 279.99994,409.99994 320.0,410.0 " fill="none" stroke-width="2.0" stroke="rgb(0,0,0)"/>
<path id="s122568620" d="M 310.82187,417.7306 320.0,410.0 310.8219,402.26938 " fill="none" stroke-width="2.0" stroke="rgb(0,0,0)"/>
</g>
</svg>
