<?xml version="1.0" encoding="UTF-8"?><svg xmlns="http://www.w3.org/2000/svg" xmlns:xlink="http://www.w3.org/1999/xlink" width="1000.0" height="520.0" viewBox="130.0 70.0 1000.0 520.0" version="1.1">
<rect x="130.0" y="70.0" width="1000.0" height="520.0" fill="rgb(255,255,255)"/>
<g id="s111056630">
<polygon id="s111056630" points="240.0,260.0 999.99976,260.0 1000.00006,339.99982 240.0,340.0 " fill="rgb(217,204,140)" stroke-width="2.0" stroke="rgb(102,51,102)"/>
<g id="t111056630">
<text xml:space="preserve" x="590.0" y="313.34766" font-family="Sans,Helvetica" fill="rgb(102,51,102)" font-size="34">MIR</text>
</g>
</g>
<g id="s197749495">
<polygon id="s197749495" points="160.0,280.0 200.0,280.0 199.99998,320.0 160.0,319.99997 " fill="none" stroke-width="0.0" stroke="rgb(102,51,102)"/>
<g id="t197749495">
<text xml:space="preserve" x="164.5" y="307.85156" font-family="Sans,Helvetica" fill="rgb(102,51,102)" font-size="20">API</text>
</g>
</g>
<g id="s90439012">
<polygon id="s90439012" points="500.0,120.0 540.0,120.0 539.99976,160.0 500.0,159.99995 " fill="rgb(217,204,140)" stroke-width="2.0" stroke="rgb(102,51,102)"/>
<g id="t90439012">
<text xml:space="preserve" x="513.5" y="147.85156" font-family="Sans,Helvetica" fill="rgb(102,51,102)" font-size="20">C</text>
</g>
</g>
<g id="s26553474">
<polygon id="s26553474" points="760.0,120.0 860.0,120.0 859.9984,159.99997 760.0,160.0 " fill="rgb(192,202,51)" stroke-width="2.0" stroke="rgb(102,51,102)"/>
<g id="t26553474">
<text xml:space="preserve" x="773.0" y="147.85156" font-family="Sans,Helvetica" fill="rgb(102,51,102)" font-size="20">LLVM IR</text>
</g>
</g>
<g id="s223857114">
<polygon id="s223857114" points="160.0,380.0 240.00003,380.0 239.99991,440.0 160.0,439.9999 " fill="rgb(217,204,140)" stroke-width="2.0" stroke="rgb(102,51,102)"/>
<g id="t223857114">
<text xml:space="preserve" x="183.00002" y="404.58008" font-family="Sans,Helvetica" fill="rgb(102,51,102)" font-size="20">MIR</text>
<text xml:space="preserve" x="173.00002" y="431.12305" font-family="Sans,Helvetica" fill="rgb(102,51,102)" font-size="20">binary</text>
</g>
</g>
<g id="s108891659">
<polygon id="s108891659" points="260.0,380.0 320.0,380.0 319.99994,439.9993 260.0,440.0 " fill="rgb(217,204,140)" stroke-width="2.0" stroke="rgb(102,51,102)"/>
<g id="t108891659">
<text xml:space="preserve" x="273.0" y="404.58008" font-family="Sans,Helvetica" fill="rgb(102,51,102)" font-size="20">MIR</text>
<text xml:space="preserve" x="272.5" y="431.12305" font-family="Sans,Helvetica" fill="rgb(102,51,102)" font-size="20">text</text>
</g>
</g>
<g id="s205456616">
<polygon id="s205456616" points="560.0,500.0 640.0,500.0 639.9999,560.0 560.0,560.0 " fill="rgb(217,204,140)" stroke-width="2.0" stroke="rgb(102,51,102)"/>
<g id="t205456616">
<text xml:space="preserve" x="573.0" y="537.0664" font-family="Sans,Helvetica" fill="rgb(102,51,102)" font-size="18">x86-64</text>
</g>
</g>
<g id="s230946561">
<polygon id="s230946561" points="660.0,500.0 739.9999,500.0 740.0,560.0 660.0,559.9997 " fill="rgb(217,204,140)" stroke-width="2.0" stroke="rgb(102,51,102)"/>
<g id="t230946561">
<text xml:space="preserve" x="667.5" y="537.0664" font-family="Sans,Helvetica" fill="rgb(102,51,102)" font-size="18">aarch64</text>
</g>
</g>
<g id="s226011558">
<polygon id="s226011558" points="460.0,500.0 540.0,500.0 540.0,560.0 460.0,560.0 " fill="rgb(217,204,140)" stroke-width="2.0" stroke="rgb(102,51,102)"/>
<g id="t226011558">
<text xml:space="preserve" x="473.0" y="525.1221" font-family="Sans,Helvetica" fill="rgb(102,51,102)" font-size="18">PPC64</text>
<text xml:space="preserve" x="475.5" y="549.01074" font-family="Sans,Helvetica" fill="rgb(102,51,102)" font-size="18">BE/LE</text>
</g>
</g>
<g id="s208994279">
<polygon id="s208994279" points="860.0,500.0 940.0,500.0 939.99927,560.0 860.0,559.99994 " fill="rgb(217,204,140)" stroke-width="2.0" stroke="rgb(102,51,102)"/>
<g id="t208994279">
<text xml:space="preserve" x="875.0" y="537.0664" font-family="Sans,Helvetica" fill="rgb(102,51,102)" font-size="18">RISCV</text>
</g>
</g>
<g id="s125011860">
<polygon id="s125011860" points="160.0,160.0 239.99998,160.0 240.00005,220.0 160.0,219.99998 " fill="rgb(217,204,140)" stroke-width="2.0" stroke="rgb(102,51,102)"/>
<g id="t125011860">
<text xml:space="preserve" x="183.00003" y="184.58008" font-family="Sans,Helvetica" fill="rgb(102,51,102)" font-size="20">MIR</text>
<text xml:space="preserve" x="173.00003" y="211.12305" font-family="Sans,Helvetica" fill="rgb(102,51,102)" font-size="20">binary</text>
</g>
</g>
<g id="s267911741">
<polygon id="s267911741" points="280.0,160.0 340.0,160.0 340.0,219.99998 280.0,220.0 " fill="rgb(217,204,140)" stroke-width="2.0" stroke="rgb(102,51,102)"/>
<g id="t267911741">
<text xml:space="preserve" x="293.0" y="184.58008" font-family="Sans,Helvetica" fill="rgb(102,51,102)" font-size="20">MIR</text>
<text xml:space="preserve" x="292.5" y="211.12305" font-family="Sans,Helvetica" fill="rgb(102,51,102)" font-size="20">text</text>
</g>
</g>
<g id="s91601458">
<ellipse id="s91601458" cx="920.0" cy="390.0" rx="60.0" ry="30.0" fill="rgb(217,204,140)" stroke-width="2.0" stroke="rgb(102,51,102)"/>
<g id="t91601458">
<text xml:space="preserve" x="877.5" y="397.0664" font-family="Sans,Helvetica" fill="rgb(102,51,102)" font-size="18">Interpreter</text>
</g>
</g>
<g id="s109556611">
<ellipse id="s109556611" cx="750.0" cy="430.0" rx="70.0" ry="30.0" fill="rgb(217,204,140)" stroke-width="2.0" stroke="rgb(102,51,102)"/>
<g id="t109556611">
<text xml:space="preserve" x="705.0" y="437.85156" font-family="Sans,Helvetica" fill="rgb(102,51,102)" font-size="20">Generator</text>
</g>
</g>
<g id="s181111040">
<polygon id="s181111040" points="1040.0,100.0 1100.0,100.0 1099.9983,119.99997 1040.0,120.0 " fill="none" stroke-width="0.0" stroke="rgb(102,51,102)"/>
<g id="t181111040"/>
</g>
<g id="s40338745">
<polygon id="s40338745" points="760.0,500.0 840.0,500.0 839.99994,559.9999 760.0,560.0 " fill="rgb(217,204,140)" stroke-width="2.0" stroke="rgb(102,51,102)"/>
<g id="t40338745">
<text xml:space="preserve" x="776.0" y="537.0664" font-family="Sans,Helvetica" fill="rgb(102,51,102)" font-size="18">s390x</text>
</g>
</g>
<g id="s62998398">
<polygon id="s62998398" points="440.0,380.0 480.0,380.0 480.0,420.0 440.0,419.99994 " fill="rgb(217,204,140)" stroke-width="2.0" stroke="rgb(102,51,102)"/>
<g id="t62998398">
<text xml:space="preserve" x="454.0" y="407.0664" font-family="Sans,Helvetica" fill="rgb(102,51,102)" font-size="18">C</text>
</g>
</g>
<g id="la109577439">
<path id="s109577439" d="M 200.0,300.0 240.0,299.99957 " fill="none" stroke-width="2.0" stroke="rgb(102,51,102)"/>
<path id="s216020268" d="M 230.82198,307.7303 240.0,299.99957 230.82181,292.26904 " fill="none" stroke-width="2.0" stroke="rgb(102,51,102)"/>
<g id="t109577439">
<text xml:space="preserve" x="220.0" y="292.20584" font-family="Sans,Helvetica" fill="rgb(102,51,102)" font-size="14"/>
</g>
</g>
<g id="la161897866">
<path id="s161897866" d="M 200.00002,380.0 285.59943,339.99933 " fill="none" stroke-width="2.0" stroke="rgb(102,51,102)"/>
<path id="s252841979" d="M 205.04224,369.11075 200.00002,380.0 211.58784,383.11804 " fill="none" stroke-width="2.0" stroke="rgb(102,51,102)"/>
<g id="t161897866">
<text xml:space="preserve" x="246.79971" y="365.49576" font-family="Sans,Helvetica" fill="rgb(102,51,102)" font-size="14"/>
</g>
</g>
<g id="la45185048">
<path id="s45185048" d="M 346.39987,339.99936 290.0,380.0 " fill="none" stroke-width="2.0" stroke="rgb(102,51,102)"/>
<path id="s45589105" d="M 293.0142,368.3847 290.0,380.0 301.9586,380.9961 " fill="none" stroke-width="2.0" stroke="rgb(102,51,102)"/>
<g id="t45185048">
<text xml:space="preserve" x="322.19995" y="365.4958" font-family="Sans,Helvetica" fill="rgb(102,51,102)" font-size="14"/>
</g>
</g>
<g id="la1362006">
<path id="s1362006" d="M 809.9992,159.99998 799.9999,260.0 " fill="none" stroke-width="2.0" stroke="rgb(102,51,102)"/>
<path id="s107458775" d="M 793.2208,250.09827 799.9999,260.0 808.60535,251.63661 " fill="none" stroke-width="2.0" stroke="rgb(102,51,102)"/>
<g id="t1362006">
<text xml:space="preserve" x="808.9996" y="215.4961" font-family="Sans,Helvetica" fill="rgb(102,51,102)" font-size="14"/>
</g>
</g>
<g id="la257031620">
<path id="s257031620" d="M 519.9999,159.99997 519.9999,260.0 " fill="none" stroke-width="2.0" stroke="rgb(102,51,102)"/>
<path id="s181597357" d="M 512.2693,250.8219 519.9999,260.0 527.73047,250.8219 " fill="none" stroke-width="2.0" stroke="rgb(102,51,102)"/>
<g id="t257031620">
<text xml:space="preserve" x="523.9999" y="215.49608" font-family="Sans,Helvetica" fill="rgb(102,51,102)" font-size="14"/>
</g>
</g>
<g id="la221058018">
<path id="s221058018" d="M 539.9999,140.0 760.0,140.0 " fill="none" stroke-width="2.0" stroke="rgb(102,51,102)"/>
<path id="s185369459" d="M 750.8219,147.7306 760.0,140.0 750.8219,132.26938 " fill="none" stroke-width="2.0" stroke="rgb(102,51,102)"/>
<g id="t221058018">
<text xml:space="preserve" x="649.99994" y="132.20604" font-family="Sans,Helvetica" fill="rgb(102,51,102)" font-size="14"/>
</g>
</g>
<g id="la39006768">
<path id="s39006768" d="M 310.0,220.0 358.74963,260.0 " fill="none" stroke-width="2.0" stroke="rgb(102,51,102)"/>
<path id="s131542697" d="M 346.75064,260.15445 358.74963,260.0 356.55798,248.20184 " fill="none" stroke-width="2.0" stroke="rgb(102,51,102)"/>
<g id="t39006768">
<text xml:space="preserve" x="338.37482" y="245.4961" font-family="Sans,Helvetica" fill="rgb(102,51,102)" font-size="14"/>
</g>
</g>
<g id="la109874222">
<path id="s109874222" d="M 200.00003,220.0 263.74976,260.0 " fill="none" stroke-width="2.0" stroke="rgb(102,51,102)"/>
<path id="s102884303" d="M 251.86656,261.67023 263.74976,260.0 260.08408,248.5736 " fill="none" stroke-width="2.0" stroke="rgb(102,51,102)"/>
<g id="t109874222">
<text xml:space="preserve" x="235.8749" y="245.4961" font-family="Sans,Helvetica" fill="rgb(102,51,102)" font-size="14"/>
</g>
</g>
<g id="la15810908">
<path id="s15810908" d="M 899.99994,339.99985 920.0,360.0 " fill="none" stroke-width="2.0" stroke="rgb(102,51,102)"/>
<path id="s30084197" d="M 908.04376,358.97644 920.0,360.0 918.9765,348.04373 " fill="none" stroke-width="2.0" stroke="rgb(102,51,102)"/>
<g id="t15810908">
<text xml:space="preserve" x="914.0" y="355.49603" font-family="Sans,Helvetica" fill="rgb(102,51,102)" font-size="14"/>
</g>
</g>
<g id="la207174970">
<path id="s207174970" d="M 500.0,500.0 685.3284,441.4805 " fill="none" stroke-width="2.0" stroke="rgb(102,51,102)"/>
<path id="s126021099" d="M 506.4244,489.86456 500.0,500.0 511.0799,504.60825 " fill="none" stroke-width="2.0" stroke="rgb(102,51,102)"/>
<g id="t207174970">
<text xml:space="preserve" x="592.6642" y="462.94632" font-family="Sans,Helvetica" fill="rgb(102,51,102)" font-size="14"/>
</g>
</g>
<g id="la100603720">
<path id="s100603720" d="M 600.0,500.0 700.5025,451.2132 " fill="none" stroke-width="2.0" stroke="rgb(102,51,102)"/>
<path id="s6621665" d="M 604.8808,489.0374 600.0,500.0 611.6326,502.94647 " fill="none" stroke-width="2.0" stroke="rgb(102,51,102)"/>
<g id="t100603720">
<text xml:space="preserve" x="654.2512" y="481.1027" font-family="Sans,Helvetica" fill="rgb(102,51,102)" font-size="14"/>
</g>
</g>
<g id="la151909126">
<path id="s151909126" d="M 723.21216,457.71637 699.99994,500.0 " fill="none" stroke-width="2.0" stroke="rgb(102,51,102)"/>
<path id="s127958471" d="M 697.64,488.23434 699.99994,500.0 711.1933,495.67462 " fill="none" stroke-width="2.0" stroke="rgb(102,51,102)"/>
<g id="t151909126">
<text xml:space="preserve" x="715.606" y="484.35428" font-family="Sans,Helvetica" fill="rgb(102,51,102)" font-size="14"/>
</g>
</g>
<g id="la76701684">
<path id="s76701684" d="M 799.4975,451.2132 900.0,500.0 " fill="none" stroke-width="2.0" stroke="rgb(102,51,102)"/>
<path id="s105341725" d="M 888.3674,502.94647 900.0,500.0 895.1192,489.0374 " fill="none" stroke-width="2.0" stroke="rgb(102,51,102)"/>
<g id="t76701684">
<text xml:space="preserve" x="853.7488" y="481.1027" font-family="Sans,Helvetica" fill="rgb(102,51,102)" font-size="14"/>
</g>
</g>
<g id="la33962386">
<path id="s33962386" d="M 750.0,400.0 740.0,339.99988 " fill="none" stroke-width="2.0" stroke="rgb(102,51,102)"/>
<path id="s186462051" d="M 740.8657,392.21768 750.0,400.0 756.1166,389.67587 " fill="none" stroke-width="2.0" stroke="rgb(102,51,102)"/>
<g id="t33962386">
<text xml:space="preserve" x="749.0" y="375.10345" font-family="Sans,Helvetica" fill="rgb(102,51,102)" font-size="13"/>
</g>
</g>
<g id="la158304096">
<path id="s158304096" d="M 776.78784,457.71637 800.0,500.0 " fill="none" stroke-width="2.0" stroke="rgb(102,51,102)"/>
<path id="s66851865" d="M 788.80664,495.67462 800.0,500.0 802.3599,488.23434 " fill="none" stroke-width="2.0" stroke="rgb(102,51,102)"/>
<g id="t158304096">
<text xml:space="preserve" x="792.3939" y="483.9617" font-family="Sans,Helvetica" fill="rgb(102,51,102)" font-size="13"/>
</g>
</g>
<g id="la80370910">
<path id="s80370910" d="M 480.00003,339.99994 460.0,380.0 " fill="none" stroke-width="2.0" stroke="rgb(102,51,102)"/>
<path id="s69820095" d="M 457.1901,368.33362 460.0,380.0 471.01904,375.24808 " fill="none" stroke-width="2.0" stroke="rgb(102,51,102)"/>
<g id="t80370910">
<text xml:space="preserve" x="474.0" y="365.1035" font-family="Sans,Helvetica" fill="rgb(102,51,102)" font-size="13"/>
</g>
</g>
</svg>
