<?xml version="1.0" encoding="UTF-8"?><svg xmlns="http://www.w3.org/2000/svg" xmlns:xlink="http://www.w3.org/1999/xlink" width="680.0" height="480.0" viewBox="130.0 70.0 680.0 480.0" version="1.1">
<rect x="130.0" y="70.0" width="680.0" height="480.0" fill="rgb(255,255,255)"/>
<g id="s46221128">
<polygon id="s46221128" points="240.0,260.0 739.9995,260.0 739.99976,340.0 240.0,340.0 " fill="none" stroke-width="2.0" stroke="rgb(0,0,0)"/>
<g id="t46221128">
<text xml:space="preserve" x="459.99988" y="313.34766" font-family="Sans,Helvetica" fill="rgb(0,0,0)" font-size="34">MIR</text>
</g>
</g>
<g id="s162757089">
<polygon id="s162757089" points="160.0,280.0 200.0,280.0 199.99998,320.0 160.0,319.99997 " fill="none" stroke-width="0.0" stroke="rgb(0,0,0)"/>
<g id="t162757089">
<text xml:space="preserve" x="164.5" y="307.85156" font-family="Sans,Helvetica" fill="rgb(0,0,0)" font-size="20">API</text>
</g>
</g>
<g id="s93561606">
<polygon id="s93561606" points="480.0,180.0 519.9997,180.0 519.9998,220.0 480.0,219.99995 " fill="none" stroke-width="2.0" stroke="rgb(0,0,0)"/>
<g id="t93561606">
<text xml:space="preserve" x="493.4999" y="207.85156" font-family="Sans,Helvetica" fill="rgb(0,0,0)" font-size="20">C</text>
</g>
</g>
<g id="s137129415">
<polygon id="s137129415" points="560.0,180.0 660.0,180.0 659.9984,219.99997 560.0,220.0 " fill="none" stroke-width="2.0" stroke="rgb(0,0,0)"/>
<g id="t137129415">
<text xml:space="preserve" x="573.0" y="207.85156" font-family="Sans,Helvetica" fill="rgb(0,0,0)" font-size="20">LLVM IR</text>
</g>
</g>
<g id="s55021556">
<polygon id="s55021556" points="160.0,380.0 240.00003,380.0 239.99991,440.0 160.0,439.9999 " fill="none" stroke-width="2.0" stroke="rgb(0,0,0)"/>
<g id="t55021556">
<text xml:space="preserve" x="183.00002" y="404.58008" font-family="Sans,Helvetica" fill="rgb(0,0,0)" font-size="20">MIR</text>
<text xml:space="preserve" x="173.00002" y="431.12305" font-family="Sans,Helvetica" fill="rgb(0,0,0)" font-size="20">binary</text>
</g>
</g>
<g id="s235721501">
<polygon id="s235721501" points="260.0,380.0 320.0,380.0 319.99994,439.9993 260.0,440.0 " fill="none" stroke-width="2.0" stroke="rgb(0,0,0)"/>
<g id="t235721501">
<text xml:space="preserve" x="273.0" y="404.58008" font-family="Sans,Helvetica" fill="rgb(0,0,0)" font-size="20">MIR</text>
<text xml:space="preserve" x="272.5" y="431.12305" font-family="Sans,Helvetica" fill="rgb(0,0,0)" font-size="20">text</text>
</g>
</g>
<g id="s154593682">
<polygon id="s154593682" points="620.0,380.0 659.99927,380.0 660.0,420.0 620.0,419.99966 " fill="none" stroke-width="2.0" stroke="rgb(0,0,0)"/>
<g id="t154593682">
<text xml:space="preserve" x="633.5" y="407.85156" font-family="Sans,Helvetica" fill="rgb(0,0,0)" font-size="20">C</text>
</g>
</g>
<g id="s7872355">
<polygon id="s7872355" points="340.0,480.0 420.0,480.0 419.99988,520.0 340.0,520.0 " fill="none" stroke-width="2.0" stroke="rgb(0,0,0)"/>
<g id="t7872355">
<text xml:space="preserve" x="353.0" y="507.0664" font-family="Sans,Helvetica" fill="rgb(0,0,0)" font-size="18">x86-64</text>
</g>
</g>
<g id="s105363296">
<polygon id="s105363296" points="159.99998,160.0 239.99994,160.0 240.0,220.0 159.99998,219.99998 " fill="none" stroke-width="2.0" stroke="rgb(0,0,0)"/>
<g id="t105363296">
<text xml:space="preserve" x="183.0" y="184.58008" font-family="Sans,Helvetica" fill="rgb(0,0,0)" font-size="20">MIR</text>
<text xml:space="preserve" x="173.0" y="211.12305" font-family="Sans,Helvetica" fill="rgb(0,0,0)" font-size="20">binary</text>
</g>
</g>
<g id="s178816025">
<polygon id="s178816025" points="260.0,160.0 320.0,160.0 320.0,219.99998 260.0,220.0 " fill="none" stroke-width="2.0" stroke="rgb(0,0,0)"/>
<g id="t178816025">
<text xml:space="preserve" x="273.0" y="184.58008" font-family="Sans,Helvetica" fill="rgb(0,0,0)" font-size="20">MIR</text>
<text xml:space="preserve" x="272.5" y="211.12305" font-family="Sans,Helvetica" fill="rgb(0,0,0)" font-size="20">text</text>
</g>
</g>
<g id="s106302686">
<polygon id="s106302686" points="640.0,120.0 679.9999,120.0 680.0,139.99997 640.0,140.0 " fill="none" stroke-width="0.0" stroke="rgb(0,0,0)"/>
<g id="t106302686"/>
</g>
<g id="s205737663">
<ellipse id="s205737663" cx="540.0" cy="410.0" rx="60.0" ry="30.0" fill="none" stroke-width="2.0" stroke="rgb(0,0,0)"/>
<g id="t205737663">
<text xml:space="preserve" x="497.5" y="417.0664" font-family="Sans,Helvetica" fill="rgb(0,0,0)" font-size="18">Interpreter</text>
</g>
</g>
<g id="s23128460">
<ellipse id="s23128460" cx="400.0" cy="410.0" rx="60.000004" ry="30.0" fill="none" stroke-width="2.0" stroke="rgb(0,0,0)"/>
<g id="t23128460">
<text xml:space="preserve" x="355.0" y="417.85156" font-family="Sans,Helvetica" fill="rgb(0,0,0)" font-size="20">Generator</text>
</g>
</g>
<g id="s196364501">
<polygon id="s196364501" points="700.0,100.0 780.0,100.0 779.99756,119.99996 700.0,120.0 " fill="none" stroke-width="0.0" stroke="rgb(0,0,0)"/>
<g id="t196364501"/>
</g>
<g id="la62003434">
<path id="s62003434" d="M 200.0,300.0 240.0,300.0 " fill="none" stroke-width="2.0" stroke="rgb(0,0,0)"/>
<path id="s92172617" d="M 230.8219,307.73062 240.0,300.0 230.8219,292.26938 " fill="none" stroke-width="2.0" stroke="rgb(0,0,0)"/>
<g id="t62003434">
<text xml:space="preserve" x="220.0" y="292.20605" font-family="Sans,Helvetica" fill="rgb(0,0,0)" font-size="14"/>
</g>
</g>
<g id="la90707931">
<path id="s90707931" d="M 200.00002,380.0 269.99988,340.0 " fill="none" stroke-width="2.0" stroke="rgb(0,0,0)"/>
<path id="s80783950" d="M 204.13338,368.7343 200.00002,380.0 211.8043,382.15842 " fill="none" stroke-width="2.0" stroke="rgb(0,0,0)"/>
<g id="t90707931">
<text xml:space="preserve" x="238.99994" y="365.4961" font-family="Sans,Helvetica" fill="rgb(0,0,0)" font-size="14"/>
</g>
</g>
<g id="la49877624">
<path id="s49877624" d="M 309.99988,340.0 290.0,380.0 " fill="none" stroke-width="2.0" stroke="rgb(0,0,0)"/>
<path id="s118519663" d="M 287.19006,368.33362 290.0,380.0 301.01904,375.24805 " fill="none" stroke-width="2.0" stroke="rgb(0,0,0)"/>
<g id="t49877624">
<text xml:space="preserve" x="303.99994" y="365.4961" font-family="Sans,Helvetica" fill="rgb(0,0,0)" font-size="14"/>
</g>
</g>
<g id="la142450001">
<path id="s142450001" d="M 609.9992,219.99998 589.99976,260.0 " fill="none" stroke-width="2.0" stroke="rgb(0,0,0)"/>
<path id="s88136828" d="M 587.18976,248.33365 589.99976,260.0 601.01874,255.24797 " fill="none" stroke-width="2.0" stroke="rgb(0,0,0)"/>
<g id="t142450001">
<text xml:space="preserve" x="603.9995" y="245.4961" font-family="Sans,Helvetica" fill="rgb(0,0,0)" font-size="14"/>
</g>
</g>
<g id="la17881526">
<path id="s17881526" d="M 499.9999,219.99997 489.99976,260.0 " fill="none" stroke-width="2.0" stroke="rgb(0,0,0)"/>
<path id="s62118149" d="M 484.726,249.22096 489.99976,260.0 499.7256,252.97092 " fill="none" stroke-width="2.0" stroke="rgb(0,0,0)"/>
<g id="t17881526">
<text xml:space="preserve" x="498.99982" y="245.49608" font-family="Sans,Helvetica" fill="rgb(0,0,0)" font-size="14"/>
</g>
</g>
<g id="la256267959">
<path id="s256267959" d="M 519.99976,200.0 560.0,200.00003 " fill="none" stroke-width="2.0" stroke="rgb(0,0,0)"/>
<path id="s244391258" d="M 550.8219,207.73064 560.0,200.00003 550.8219,192.26941 " fill="none" stroke-width="2.0" stroke="rgb(0,0,0)"/>
<g id="t256267959">
<text xml:space="preserve" x="539.9999" y="192.20607" font-family="Sans,Helvetica" fill="rgb(0,0,0)" font-size="14"/>
</g>
</g>
<g id="la132701732">
<path id="s132701732" d="M 290.0,220.0 309.99976,260.0 " fill="none" stroke-width="2.0" stroke="rgb(0,0,0)"/>
<path id="s139926411" d="M 298.98074,255.24803 309.99976,260.0 312.80972,248.33363 " fill="none" stroke-width="2.0" stroke="rgb(0,0,0)"/>
<g id="t132701732">
<text xml:space="preserve" x="303.99988" y="245.4961" font-family="Sans,Helvetica" fill="rgb(0,0,0)" font-size="14"/>
</g>
</g>
<g id="la95272333">
<path id="s95272333" d="M 200.0,220.0 269.99976,260.0 " fill="none" stroke-width="2.0" stroke="rgb(0,0,0)"/>
<path id="s268256360" d="M 258.19547,262.15842 269.99976,260.0 265.8664,248.73433 " fill="none" stroke-width="2.0" stroke="rgb(0,0,0)"/>
<g id="t95272333">
<text xml:space="preserve" x="238.99988" y="245.4961" font-family="Sans,Helvetica" fill="rgb(0,0,0)" font-size="14"/>
</g>
</g>
<g id="la46717762">
<path id="s46717762" d="M 529.9999,340.0 540.0,380.0 " fill="none" stroke-width="2.0" stroke="rgb(0,0,0)"/>
<path id="s169738369" d="M 530.2742,372.97092 540.0,380.0 545.27374,369.22098 " fill="none" stroke-width="2.0" stroke="rgb(0,0,0)"/>
<g id="t46717762">
<text xml:space="preserve" x="538.99994" y="365.4961" font-family="Sans,Helvetica" fill="rgb(0,0,0)" font-size="14"/>
</g>
</g>
<g id="la157263699">
<path id="s157263699" d="M 380.0,480.0 400.0,440.0 " fill="none" stroke-width="2.0" stroke="rgb(0,0,0)"/>
<path id="s129217830" d="M 377.1901,468.33362 380.0,480.0 391.01904,475.24808 " fill="none" stroke-width="2.0" stroke="rgb(0,0,0)"/>
<g id="t157263699">
<text xml:space="preserve" x="394.0" y="465.4961" font-family="Sans,Helvetica" fill="rgb(0,0,0)" font-size="14"/>
</g>
</g>
<g id="la266844304">
<path id="s266844304" d="M 629.9999,340.0 639.99963,380.0 " fill="none" stroke-width="2.0" stroke="rgb(0,0,0)"/>
<path id="s169469287" d="M 630.27386,372.97083 639.99963,380.0 645.2735,369.221 " fill="none" stroke-width="2.0" stroke="rgb(0,0,0)"/>
<g id="t266844304">
<text xml:space="preserve" x="638.99976" y="365.4961" font-family="Sans,Helvetica" fill="rgb(0,0,0)" font-size="14"/>
</g>
</g>
<g id="la256222601">
<path id="s256222601" d="M 400.0,380.0 409.99988,340.0 " fill="none" stroke-width="2.0" stroke="rgb(0,0,0)"/>
<path id="s93732628" d="M 394.7262,369.221 400.0,380.0 409.7258,372.97086 " fill="none" stroke-width="2.0" stroke="rgb(0,0,0)"/>
<g id="t256222601">
<text xml:space="preserve" x="408.99994" y="365.10352" font-family="Sans,Helvetica" fill="rgb(0,0,0)" font-size="13"/>
</g>
</g>
</svg>
