<?xml version="1.0" encoding="UTF-8"?><svg xmlns="http://www.w3.org/2000/svg" xmlns:xlink="http://www.w3.org/1999/xlink" width="680.0" height="540.0" viewBox="130.0 70.0 680.0 540.0" version="1.1">
<rect x="130.0" y="70.0" width="680.0" height="540.0" fill="rgb(255,255,255)"/>
<g id="s202918452">
<polygon id="s202918452" points="240.0,260.0 739.9995,260.0 739.99976,340.0 240.0,340.0 " fill="rgb(217,204,140)" stroke-width="2.0" stroke="rgb(102,51,102)"/>
<g id="t202918452">
<text xml:space="preserve" x="459.99988" y="313.34766" font-family="Sans,Helvetica" fill="rgb(102,51,102)" font-size="34">MIR</text>
</g>
</g>
<g id="s86745181">
<polygon id="s86745181" points="160.0,280.0 200.0,280.0 199.99998,320.0 160.0,319.99997 " fill="none" stroke-width="0.0" stroke="rgb(102,51,102)"/>
<g id="t86745181">
<text xml:space="preserve" x="164.5" y="307.85156" font-family="Sans,Helvetica" fill="rgb(102,51,102)" font-size="20">API</text>
</g>
</g>
<g id="s56479186">
<polygon id="s56479186" points="480.0,180.0 519.9997,180.0 519.9998,220.0 480.0,219.99995 " fill="rgb(217,204,140)" stroke-width="2.0" stroke="rgb(102,51,102)"/>
<g id="t56479186">
<text xml:space="preserve" x="493.4999" y="207.85156" font-family="Sans,Helvetica" fill="rgb(102,51,102)" font-size="20">C</text>
</g>
</g>
<g id="s101895843">
<polygon id="s101895843" points="560.0,180.0 660.0,180.0 659.9984,219.99997 560.0,220.0 " fill="rgb(217,204,140)" stroke-width="2.0" stroke="rgb(102,51,102)"/>
<g id="t101895843">
<text xml:space="preserve" x="573.0" y="207.85156" font-family="Sans,Helvetica" fill="rgb(102,51,102)" font-size="20">LLVM IR</text>
</g>
</g>
<g id="s101307808">
<polygon id="s101307808" points="160.0,380.0 240.00003,380.0 239.99991,440.0 160.0,439.9999 " fill="rgb(217,204,140)" stroke-width="2.0" stroke="rgb(102,51,102)"/>
<g id="t101307808">
<text xml:space="preserve" x="183.00002" y="404.58008" font-family="Sans,Helvetica" fill="rgb(102,51,102)" font-size="20">MIR</text>
<text xml:space="preserve" x="173.00002" y="431.12305" font-family="Sans,Helvetica" fill="rgb(102,51,102)" font-size="20">binary</text>
</g>
</g>
<g id="s185001305">
<polygon id="s185001305" points="260.0,380.0 320.0,380.0 319.99994,439.9993 260.0,440.0 " fill="rgb(217,204,140)" stroke-width="2.0" stroke="rgb(102,51,102)"/>
<g id="t185001305">
<text xml:space="preserve" x="273.0" y="404.58008" font-family="Sans,Helvetica" fill="rgb(102,51,102)" font-size="20">MIR</text>
<text xml:space="preserve" x="272.5" y="431.12305" font-family="Sans,Helvetica" fill="rgb(102,51,102)" font-size="20">text</text>
</g>
</g>
<g id="s128382238">
<polygon id="s128382238" points="620.0,380.0 659.99927,380.0 660.0,420.0 620.0,419.99966 " fill="rgb(217,204,140)" stroke-width="2.0" stroke="rgb(102,51,102)"/>
<g id="t128382238">
<text xml:space="preserve" x="633.5" y="407.85156" font-family="Sans,Helvetica" fill="rgb(102,51,102)" font-size="20">C</text>
</g>
</g>
<g id="s66695679">
<polygon id="s66695679" points="280.0,520.0 360.0,520.0 359.9999,580.0 280.0,580.0 " fill="rgb(217,204,140)" stroke-width="2.0" stroke="rgb(102,51,102)"/>
<g id="t66695679">
<text xml:space="preserve" x="293.0" y="557.0664" font-family="Sans,Helvetica" fill="rgb(102,51,102)" font-size="18">x86-64</text>
</g>
</g>
<g id="s264678348">
<polygon id="s264678348" points="380.0,520.0 459.99988,520.0 460.0,580.0 380.0,579.9997 " fill="rgb(217,204,140)" stroke-width="2.0" stroke="rgb(102,51,102)"/>
<g id="t264678348">
<text xml:space="preserve" x="387.5" y="557.0664" font-family="Sans,Helvetica" fill="rgb(102,51,102)" font-size="18">aarch64</text>
</g>
</g>
<g id="s196574741">
<polygon id="s196574741" points="180.00002,520.0 259.99994,520.0 259.99994,580.0 180.00002,580.0 " fill="rgb(217,204,140)" stroke-width="2.0" stroke="rgb(102,51,102)"/>
<g id="t196574741">
<text xml:space="preserve" x="192.99997" y="545.1221" font-family="Sans,Helvetica" fill="rgb(102,51,102)" font-size="18">PPC64</text>
<text xml:space="preserve" x="195.49997" y="569.01074" font-family="Sans,Helvetica" fill="rgb(102,51,102)" font-size="18">BE/LE</text>
</g>
</g>
<g id="s248071466">
<polygon id="s248071466" points="159.99998,160.0 239.99994,160.0 240.0,220.0 159.99998,219.99998 " fill="rgb(217,204,140)" stroke-width="2.0" stroke="rgb(102,51,102)"/>
<g id="t248071466">
<text xml:space="preserve" x="183.0" y="184.58008" font-family="Sans,Helvetica" fill="rgb(102,51,102)" font-size="20">MIR</text>
<text xml:space="preserve" x="173.0" y="211.12305" font-family="Sans,Helvetica" fill="rgb(102,51,102)" font-size="20">binary</text>
</g>
</g>
<g id="s121728795">
<polygon id="s121728795" points="260.0,160.0 320.0,160.0 320.0,219.99998 260.0,220.0 " fill="rgb(217,204,140)" stroke-width="2.0" stroke="rgb(102,51,102)"/>
<g id="t121728795">
<text xml:space="preserve" x="273.0" y="184.58008" font-family="Sans,Helvetica" fill="rgb(102,51,102)" font-size="20">MIR</text>
<text xml:space="preserve" x="272.5" y="211.12305" font-family="Sans,Helvetica" fill="rgb(102,51,102)" font-size="20">text</text>
</g>
</g>
<g id="s10008760">
<ellipse id="s10008760" cx="540.0" cy="410.0" rx="60.0" ry="30.0" fill="rgb(217,204,140)" stroke-width="2.0" stroke="rgb(102,51,102)"/>
<g id="t10008760">
<text xml:space="preserve" x="497.5" y="417.0664" font-family="Sans,Helvetica" fill="rgb(102,51,102)" font-size="18">Interpreter</text>
</g>
</g>
<g id="s262071953">
<ellipse id="s262071953" cx="400.0" cy="430.0" rx="60.000004" ry="30.0" fill="rgb(217,204,140)" stroke-width="2.0" stroke="rgb(102,51,102)"/>
<g id="t262071953">
<text xml:space="preserve" x="355.0" y="437.85156" font-family="Sans,Helvetica" fill="rgb(102,51,102)" font-size="20">Generator</text>
</g>
</g>
<g id="s101616118">
<polygon id="s101616118" points="700.0,100.0 780.0,100.0 779.99756,119.99996 700.0,120.0 " fill="none" stroke-width="0.0" stroke="rgb(102,51,102)"/>
<g id="t101616118"/>
</g>
<g id="s209576439">
<polygon id="s209576439" points="480.0,520.0 560.0,520.0 559.99994,579.9999 480.0,580.0 " fill="rgb(217,204,140)" stroke-width="2.0" stroke="rgb(102,51,102)"/>
<g id="t209576439">
<text xml:space="preserve" x="496.0" y="557.0664" font-family="Sans,Helvetica" fill="rgb(102,51,102)" font-size="18">s390x</text>
</g>
</g>
<g id="la142387300">
<path id="s142387300" d="M 200.0,300.0 240.0,300.0 " fill="none" stroke-width="2.0" stroke="rgb(102,51,102)"/>
<path id="s185499929" d="M 230.8219,307.73062 240.0,300.0 230.8219,292.26938 " fill="none" stroke-width="2.0" stroke="rgb(102,51,102)"/>
<g id="t142387300">
<text xml:space="preserve" x="220.0" y="292.20605" font-family="Sans,Helvetica" fill="rgb(102,51,102)" font-size="14"/>
</g>
</g>
<g id="la163207885">
<path id="s163207885" d="M 200.00002,380.0 269.99988,340.0 " fill="none" stroke-width="2.0" stroke="rgb(102,51,102)"/>
<path id="s172626879" d="M 204.13338,368.7343 200.00002,380.0 211.8043,382.15842 " fill="none" stroke-width="2.0" stroke="rgb(102,51,102)"/>
<g id="t163207885">
<text xml:space="preserve" x="238.99994" y="365.4961" font-family="Sans,Helvetica" fill="rgb(102,51,102)" font-size="14"/>
</g>
</g>
<g id="la59854722">
<path id="s59854722" d="M 309.99988,340.0 290.0,380.0 " fill="none" stroke-width="2.0" stroke="rgb(102,51,102)"/>
<path id="s138988172" d="M 287.19006,368.33362 290.0,380.0 301.01904,375.24805 " fill="none" stroke-width="2.0" stroke="rgb(102,51,102)"/>
<g id="t59854722">
<text xml:space="preserve" x="303.99994" y="365.4961" font-family="Sans,Helvetica" fill="rgb(102,51,102)" font-size="14"/>
</g>
</g>
<g id="la195339923">
<path id="s195339923" d="M 609.9992,219.99998 589.99976,260.0 " fill="none" stroke-width="2.0" stroke="rgb(102,51,102)"/>
<path id="s150803925" d="M 587.18976,248.33365 589.99976,260.0 601.01874,255.24797 " fill="none" stroke-width="2.0" stroke="rgb(102,51,102)"/>
<g id="t195339923">
<text xml:space="preserve" x="603.9995" y="245.4961" font-family="Sans,Helvetica" fill="rgb(102,51,102)" font-size="14"/>
</g>
</g>
<g id="la143517392">
<path id="s143517392" d="M 499.9999,219.99997 489.99976,260.0 " fill="none" stroke-width="2.0" stroke="rgb(102,51,102)"/>
<path id="s227945691" d="M 484.726,249.22096 489.99976,260.0 499.7256,252.97092 " fill="none" stroke-width="2.0" stroke="rgb(102,51,102)"/>
<g id="t143517392">
<text xml:space="preserve" x="498.99982" y="245.49608" font-family="Sans,Helvetica" fill="rgb(102,51,102)" font-size="14"/>
</g>
</g>
<g id="la94295753">
<path id="s94295753" d="M 519.99976,200.0 560.0,200.00003 " fill="none" stroke-width="2.0" stroke="rgb(102,51,102)"/>
<path id="s58026671" d="M 550.8219,207.73064 560.0,200.00003 550.8219,192.26941 " fill="none" stroke-width="2.0" stroke="rgb(102,51,102)"/>
<g id="t94295753">
<text xml:space="preserve" x="539.9999" y="192.20607" font-family="Sans,Helvetica" fill="rgb(102,51,102)" font-size="14"/>
</g>
</g>
<g id="la42525134">
<path id="s42525134" d="M 290.0,220.0 309.99976,260.0 " fill="none" stroke-width="2.0" stroke="rgb(102,51,102)"/>
<path id="s31059644" d="M 298.98074,255.24803 309.99976,260.0 312.80972,248.33363 " fill="none" stroke-width="2.0" stroke="rgb(102,51,102)"/>
<g id="t42525134">
<text xml:space="preserve" x="303.99988" y="245.4961" font-family="Sans,Helvetica" fill="rgb(102,51,102)" font-size="14"/>
</g>
</g>
<g id="la208214255">
<path id="s208214255" d="M 200.0,220.0 269.99976,260.0 " fill="none" stroke-width="2.0" stroke="rgb(102,51,102)"/>
<path id="s32513605" d="M 258.19547,262.15842 269.99976,260.0 265.8664,248.73433 " fill="none" stroke-width="2.0" stroke="rgb(102,51,102)"/>
<g id="t208214255">
<text xml:space="preserve" x="238.99988" y="245.4961" font-family="Sans,Helvetica" fill="rgb(102,51,102)" font-size="14"/>
</g>
</g>
<g id="la103981052">
<path id="s103981052" d="M 529.9999,340.0 540.0,380.0 " fill="none" stroke-width="2.0" stroke="rgb(102,51,102)"/>
<path id="s181672346" d="M 530.2742,372.97092 540.0,380.0 545.27374,369.22098 " fill="none" stroke-width="2.0" stroke="rgb(102,51,102)"/>
<g id="t103981052">
<text xml:space="preserve" x="538.99994" y="365.4961" font-family="Sans,Helvetica" fill="rgb(102,51,102)" font-size="14"/>
</g>
</g>
<g id="la154474117">
<path id="s154474117" d="M 219.99997,520.0 344.56723,441.4805 " fill="none" stroke-width="2.0" stroke="rgb(102,51,102)"/>
<path id="s54002379" d="M 223.64201,508.56604 219.99997,520.0 231.8866,521.6456 " fill="none" stroke-width="2.0" stroke="rgb(102,51,102)"/>
<g id="t154474117">
<text xml:space="preserve" x="286.2836" y="486.23636" font-family="Sans,Helvetica" fill="rgb(102,51,102)" font-size="14"/>
</g>
</g>
<g id="la139807962">
<path id="s139807962" d="M 320.0,520.0 377.039,457.71637 " fill="none" stroke-width="2.0" stroke="rgb(102,51,102)"/>
<path id="s62208680" d="M 320.49753,508.0103 320.0,520.0 331.89978,518.45245 " fill="none" stroke-width="2.0" stroke="rgb(102,51,102)"/>
<g id="t139807962">
<text xml:space="preserve" x="352.5195" y="494.35428" font-family="Sans,Helvetica" fill="rgb(102,51,102)" font-size="14"/>
</g>
</g>
<g id="la72897803">
<path id="s72897803" d="M 400.0,460.0 419.99994,520.0 " fill="none" stroke-width="2.0" stroke="rgb(102,51,102)"/>
<path id="s33118657" d="M 409.76367,513.7375 419.99994,520.0 424.4315,508.84827 " fill="none" stroke-width="2.0" stroke="rgb(102,51,102)"/>
<g id="t72897803">
<text xml:space="preserve" x="413.99997" y="495.4961" font-family="Sans,Helvetica" fill="rgb(102,51,102)" font-size="14"/>
</g>
</g>
<g id="la84393960">
<path id="s84393960" d="M 629.9999,340.0 639.99963,380.0 " fill="none" stroke-width="2.0" stroke="rgb(102,51,102)"/>
<path id="s214578534" d="M 630.27386,372.97083 639.99963,380.0 645.2735,369.221 " fill="none" stroke-width="2.0" stroke="rgb(102,51,102)"/>
<g id="t84393960">
<text xml:space="preserve" x="638.99976" y="365.4961" font-family="Sans,Helvetica" fill="rgb(102,51,102)" font-size="14"/>
</g>
</g>
<g id="la104175105">
<path id="s104175105" d="M 400.0,400.0 409.99988,340.0 " fill="none" stroke-width="2.0" stroke="rgb(102,51,102)"/>
<path id="s21102759" d="M 393.88342,389.67587 400.0,400.0 409.13428,392.21765 " fill="none" stroke-width="2.0" stroke="rgb(102,51,102)"/>
<g id="t104175105">
<text xml:space="preserve" x="408.99994" y="375.10352" font-family="Sans,Helvetica" fill="rgb(102,51,102)" font-size="13"/>
</g>
</g>
<g id="la239819942">
<path id="s239819942" d="M 442.42642,451.2132 520.0,520.0 " fill="none" stroke-width="2.0" stroke="rgb(102,51,102)"/>
<path id="s225925460" d="M 508.00388,519.6948 520.0,520.0 518.2618,508.12656 " fill="none" stroke-width="2.0" stroke="rgb(102,51,102)"/>
<g id="t239819942">
<text xml:space="preserve" x="485.2132" y="490.7101" font-family="Sans,Helvetica" fill="rgb(102,51,102)" font-size="13"/>
</g>
</g>
</svg>
