<?xml version="1.0" encoding="UTF-8"?><svg xmlns="http://www.w3.org/2000/svg" xmlns:xlink="http://www.w3.org/1999/xlink" width="680.0" height="480.0" viewBox="130.0 70.0 680.0 480.0" version="1.1">
<rect x="130.0" y="70.0" width="680.0" height="480.0" fill="rgb(255,255,255)"/>
<g id="s127098596">
<polygon id="s127098596" points="240.0,260.0 739.9995,260.0 739.99976,340.0 240.0,340.0 " fill="none" stroke-width="2.0" stroke="rgb(0,0,0)"/>
<g id="t127098596">
<text xml:space="preserve" x="459.99988" y="313.34766" font-family="Sans,Helvetica" fill="rgb(0,0,0)" font-size="34">MIR</text>
</g>
</g>
<g id="s151064397">
<polygon id="s151064397" points="160.0,280.0 200.0,280.0 199.99998,320.0 160.0,319.99997 " fill="none" stroke-width="0.0" stroke="rgb(0,0,0)"/>
<g id="t151064397">
<text xml:space="preserve" x="164.5" y="307.85156" font-family="Sans,Helvetica" fill="rgb(0,0,0)" font-size="20">API</text>
</g>
</g>
<g id="s178989570">
<polygon id="s178989570" points="480.0,180.0 519.9997,180.0 519.9998,220.0 480.0,219.99995 " fill="none" stroke-width="2.0" stroke="rgb(0,0,0)"/>
<g id="t178989570">
<text xml:space="preserve" x="493.4999" y="207.85156" font-family="Sans,Helvetica" fill="rgb(0,0,0)" font-size="20">C</text>
</g>
</g>
<g id="s20557587">
<polygon id="s20557587" points="560.0,180.0 660.0,180.0 659.9984,219.99997 560.0,220.0 " fill="none" stroke-width="2.0" stroke="rgb(0,0,0)"/>
<g id="t20557587">
<text xml:space="preserve" x="573.0" y="207.85156" font-family="Sans,Helvetica" fill="rgb(0,0,0)" font-size="20">LLVM IR</text>
</g>
</g>
<g id="s77170000">
<polygon id="s77170000" points="160.0,380.0 240.00003,380.0 239.99991,440.0 160.0,439.9999 " fill="none" stroke-width="2.0" stroke="rgb(0,0,0)"/>
<g id="t77170000">
<text xml:space="preserve" x="183.00002" y="404.58008" font-family="Sans,Helvetica" fill="rgb(0,0,0)" font-size="20">MIR</text>
<text xml:space="preserve" x="173.00002" y="431.12305" font-family="Sans,Helvetica" fill="rgb(0,0,0)" font-size="20">binary</text>
</g>
</g>
<g id="s169222785">
<polygon id="s169222785" points="260.0,380.0 320.0,380.0 319.99994,439.9993 260.0,440.0 " fill="none" stroke-width="2.0" stroke="rgb(0,0,0)"/>
<g id="t169222785">
<text xml:space="preserve" x="273.0" y="404.58008" font-family="Sans,Helvetica" fill="rgb(0,0,0)" font-size="20">MIR</text>
<text xml:space="preserve" x="272.5" y="431.12305" font-family="Sans,Helvetica" fill="rgb(0,0,0)" font-size="20">text</text>
</g>
</g>
<g id="s179711782">
<polygon id="s179711782" points="620.0,380.0 659.99927,380.0 660.0,420.0 620.0,419.99966 " fill="none" stroke-width="2.0" stroke="rgb(0,0,0)"/>
<g id="t179711782">
<text xml:space="preserve" x="633.5" y="407.85156" font-family="Sans,Helvetica" fill="rgb(0,0,0)" font-size="20">C</text>
</g>
</g>
<g id="s257152871">
<polygon id="s257152871" points="340.0,480.0 420.0,480.0 419.99988,520.0 340.0,520.0 " fill="none" stroke-width="2.0" stroke="rgb(0,0,0)"/>
<g id="t257152871">
<text xml:space="preserve" x="353.0" y="507.0664" font-family="Sans,Helvetica" fill="rgb(0,0,0)" font-size="18">x86-64</text>
</g>
</g>
<g id="s50219284">
<polygon id="s50219284" points="440.0,480.0 539.9999,480.0 540.0,520.0 440.0,520.0 " fill="none" stroke-width="2.0" stroke="rgb(0,0,0)"/>
<g id="t50219284">
<text xml:space="preserve" x="457.5" y="507.0664" font-family="Sans,Helvetica" fill="rgb(0,0,0)" font-size="18">aarch64</text>
</g>
</g>
<g id="s167863741">
<polygon id="s167863741" points="159.99998,160.0 239.99994,160.0 240.0,220.0 159.99998,219.99998 " fill="none" stroke-width="2.0" stroke="rgb(0,0,0)"/>
<g id="t167863741">
<text xml:space="preserve" x="183.0" y="184.58008" font-family="Sans,Helvetica" fill="rgb(0,0,0)" font-size="20">MIR</text>
<text xml:space="preserve" x="173.0" y="211.12305" font-family="Sans,Helvetica" fill="rgb(0,0,0)" font-size="20">binary</text>
</g>
</g>
<g id="s214308786">
<polygon id="s214308786" points="260.0,160.0 320.0,160.0 320.0,219.99998 260.0,220.0 " fill="none" stroke-width="2.0" stroke="rgb(0,0,0)"/>
<g id="t214308786">
<text xml:space="preserve" x="273.0" y="184.58008" font-family="Sans,Helvetica" fill="rgb(0,0,0)" font-size="20">MIR</text>
<text xml:space="preserve" x="272.5" y="211.12305" font-family="Sans,Helvetica" fill="rgb(0,0,0)" font-size="20">text</text>
</g>
</g>
<g id="s20742915">
<polygon id="s20742915" points="640.0,120.0 679.9999,120.0 680.0,139.99997 640.0,140.0 " fill="none" stroke-width="0.0" stroke="rgb(0,0,0)"/>
<g id="t20742915"/>
</g>
<g id="s234939008">
<ellipse id="s234939008" cx="540.0" cy="410.0" rx="60.0" ry="30.0" fill="none" stroke-width="2.0" stroke="rgb(0,0,0)"/>
<g id="t234939008">
<text xml:space="preserve" x="497.5" y="417.0664" font-family="Sans,Helvetica" fill="rgb(0,0,0)" font-size="18">Interpreter</text>
</g>
</g>
<g id="s174301369">
<ellipse id="s174301369" cx="400.0" cy="410.0" rx="60.000004" ry="30.0" fill="none" stroke-width="2.0" stroke="rgb(0,0,0)"/>
<g id="t174301369">
<text xml:space="preserve" x="355.0" y="417.85156" font-family="Sans,Helvetica" fill="rgb(0,0,0)" font-size="20">Generator</text>
</g>
</g>
<g id="s259652862">
<polygon id="s259652862" points="700.0,100.0 780.0,100.0 779.99756,119.99996 700.0,120.0 " fill="none" stroke-width="0.0" stroke="rgb(0,0,0)"/>
<g id="t259652862"/>
</g>
<g id="la209341535">
<path id="s209341535" d="M 200.0,300.0 240.0,300.0 " fill="none" stroke-width="2.0" stroke="rgb(0,0,0)"/>
<path id="s64071340" d="M 230.8219,307.73062 240.0,300.0 230.8219,292.26938 " fill="none" stroke-width="2.0" stroke="rgb(0,0,0)"/>
<g id="t209341535">
<text xml:space="preserve" x="220.0" y="292.20605" font-family="Sans,Helvetica" fill="rgb(0,0,0)" font-size="14"/>
</g>
</g>
<g id="la66382602">
<path id="s66382602" d="M 200.00002,380.0 269.99988,340.0 " fill="none" stroke-width="2.0" stroke="rgb(0,0,0)"/>
<path id="s44126075" d="M 204.13338,368.7343 200.00002,380.0 211.8043,382.15842 " fill="none" stroke-width="2.0" stroke="rgb(0,0,0)"/>
<g id="t66382602">
<text xml:space="preserve" x="238.99994" y="365.4961" font-family="Sans,Helvetica" fill="rgb(0,0,0)" font-size="14"/>
</g>
</g>
<g id="la151552408">
<path id="s151552408" d="M 309.99988,340.0 290.0,380.0 " fill="none" stroke-width="2.0" stroke="rgb(0,0,0)"/>
<path id="s61582833" d="M 287.19006,368.33362 290.0,380.0 301.01904,375.24805 " fill="none" stroke-width="2.0" stroke="rgb(0,0,0)"/>
<g id="t151552408">
<text xml:space="preserve" x="303.99994" y="365.4961" font-family="Sans,Helvetica" fill="rgb(0,0,0)" font-size="14"/>
</g>
</g>
<g id="la142519766">
<path id="s142519766" d="M 609.9992,219.99998 589.99976,260.0 " fill="none" stroke-width="2.0" stroke="rgb(0,0,0)"/>
<path id="s7039063" d="M 587.18976,248.33365 589.99976,260.0 601.01874,255.24797 " fill="none" stroke-width="2.0" stroke="rgb(0,0,0)"/>
<g id="t142519766">
<text xml:space="preserve" x="603.9995" y="245.4961" font-family="Sans,Helvetica" fill="rgb(0,0,0)" font-size="14"/>
</g>
</g>
<g id="la30416708">
<path id="s30416708" d="M 499.9999,219.99997 489.99976,260.0 " fill="none" stroke-width="2.0" stroke="rgb(0,0,0)"/>
<path id="s29112365" d="M 484.726,249.22096 489.99976,260.0 499.7256,252.97092 " fill="none" stroke-width="2.0" stroke="rgb(0,0,0)"/>
<g id="t30416708">
<text xml:space="preserve" x="498.99982" y="245.49608" font-family="Sans,Helvetica" fill="rgb(0,0,0)" font-size="14"/>
</g>
</g>
<g id="la101699938">
<path id="s101699938" d="M 519.99976,200.0 560.0,200.00003 " fill="none" stroke-width="2.0" stroke="rgb(0,0,0)"/>
<path id="s173290227" d="M 550.8219,207.73064 560.0,200.00003 550.8219,192.26941 " fill="none" stroke-width="2.0" stroke="rgb(0,0,0)"/>
<g id="t101699938">
<text xml:space="preserve" x="539.9999" y="192.20607" font-family="Sans,Helvetica" fill="rgb(0,0,0)" font-size="14"/>
</g>
</g>
<g id="la139586480">
<path id="s139586480" d="M 290.0,220.0 309.99976,260.0 " fill="none" stroke-width="2.0" stroke="rgb(0,0,0)"/>
<path id="s181479977" d="M 298.98074,255.24803 309.99976,260.0 312.80972,248.33363 " fill="none" stroke-width="2.0" stroke="rgb(0,0,0)"/>
<g id="t139586480">
<text xml:space="preserve" x="303.99988" y="245.4961" font-family="Sans,Helvetica" fill="rgb(0,0,0)" font-size="14"/>
</g>
</g>
<g id="la178102702">
<path id="s178102702" d="M 200.0,220.0 269.99976,260.0 " fill="none" stroke-width="2.0" stroke="rgb(0,0,0)"/>
<path id="s116722511" d="M 258.19547,262.15842 269.99976,260.0 265.8664,248.73433 " fill="none" stroke-width="2.0" stroke="rgb(0,0,0)"/>
<g id="t178102702">
<text xml:space="preserve" x="238.99988" y="245.4961" font-family="Sans,Helvetica" fill="rgb(0,0,0)" font-size="14"/>
</g>
</g>
<g id="la232919772">
<path id="s232919772" d="M 529.9999,340.0 540.0,380.0 " fill="none" stroke-width="2.0" stroke="rgb(0,0,0)"/>
<path id="s220807141" d="M 530.2742,372.97092 540.0,380.0 545.27374,369.22098 " fill="none" stroke-width="2.0" stroke="rgb(0,0,0)"/>
<g id="t232919772">
<text xml:space="preserve" x="538.99994" y="365.4961" font-family="Sans,Helvetica" fill="rgb(0,0,0)" font-size="14"/>
</g>
</g>
<g id="la203827898">
<path id="s203827898" d="M 380.0,480.0 400.0,440.0 " fill="none" stroke-width="2.0" stroke="rgb(0,0,0)"/>
<path id="s52497771" d="M 377.1901,468.33362 380.0,480.0 391.01904,475.24808 " fill="none" stroke-width="2.0" stroke="rgb(0,0,0)"/>
<g id="t203827898">
<text xml:space="preserve" x="394.0" y="465.4961" font-family="Sans,Helvetica" fill="rgb(0,0,0)" font-size="14"/>
</g>
</g>
<g id="la48988360">
<path id="s48988360" d="M 422.961,437.71637 489.99994,480.0 " fill="none" stroke-width="2.0" stroke="rgb(0,0,0)"/>
<path id="s36894049" d="M 478.11285,481.6423 489.99994,480.0 486.3611,468.565 " fill="none" stroke-width="2.0" stroke="rgb(0,0,0)"/>
<g id="t48988360">
<text xml:space="preserve" x="460.48047" y="464.35428" font-family="Sans,Helvetica" fill="rgb(0,0,0)" font-size="14"/>
</g>
</g>
<g id="la8140934">
<path id="s8140934" d="M 629.9999,340.0 639.99963,380.0 " fill="none" stroke-width="2.0" stroke="rgb(0,0,0)"/>
<path id="s197203271" d="M 630.27386,372.97083 639.99963,380.0 645.2735,369.221 " fill="none" stroke-width="2.0" stroke="rgb(0,0,0)"/>
<g id="t8140934">
<text xml:space="preserve" x="638.99976" y="365.4961" font-family="Sans,Helvetica" fill="rgb(0,0,0)" font-size="14"/>
</g>
</g>
<g id="la26993012">
<path id="s26993012" d="M 400.0,380.0 409.99988,340.0 " fill="none" stroke-width="2.0" stroke="rgb(0,0,0)"/>
<path id="s29918877" d="M 394.7262,369.221 400.0,380.0 409.7258,372.97086 " fill="none" stroke-width="2.0" stroke="rgb(0,0,0)"/>
<g id="t26993012">
<text xml:space="preserve" x="408.99994" y="365.10352" font-family="Sans,Helvetica" fill="rgb(0,0,0)" font-size="13"/>
</g>
</g>
</svg>
