<?xml version="1.0" encoding="UTF-8"?><svg xmlns="http://www.w3.org/2000/svg" xmlns:xlink="http://www.w3.org/1999/xlink" width="1000.0" height="520.0" viewBox="130.0 70.0 1000.0 520.0" version="1.1">
<rect x="130.0" y="70.0" width="1000.0" height="520.0" fill="rgb(255,255,255)"/>
<g id="s211270099">
<polygon id="s211270099" points="240.0,260.0 999.99976,260.0 1000.00006,339.99982 240.0,340.0 " fill="rgb(217,204,140)" stroke-width="2.0" stroke="rgb(102,51,102)"/>
<g id="t211270099">
<text xml:space="preserve" x="590.0" y="313.34766" font-family="Sans,Helvetica" fill="rgb(102,51,102)" font-size="34">MIR</text>
</g>
</g>
<g id="s57317648">
<polygon id="s57317648" points="160.0,280.0 200.0,280.0 199.99998,320.0 160.0,319.99997 " fill="none" stroke-width="0.0" stroke="rgb(102,51,102)"/>
<g id="t57317648">
<text xml:space="preserve" x="164.5" y="307.85156" font-family="Sans,Helvetica" fill="rgb(102,51,102)" font-size="20">API</text>
</g>
</g>
<g id="s23477257">
<polygon id="s23477257" points="500.0,120.0 540.0,120.0 539.99976,160.0 500.0,159.99995 " fill="rgb(217,204,140)" stroke-width="2.0" stroke="rgb(102,51,102)"/>
<g id="t23477257">
<text xml:space="preserve" x="513.5" y="147.85156" font-family="Sans,Helvetica" fill="rgb(102,51,102)" font-size="20">C</text>
</g>
</g>
<g id="s113802766">
<polygon id="s113802766" points="760.0,120.0 860.0,120.0 859.9984,159.99997 760.0,160.0 " fill="rgb(192,202,51)" stroke-width="2.0" stroke="rgb(102,51,102)"/>
<g id="t113802766">
<text xml:space="preserve" x="776.5" y="147.0664" font-family="Sans,Helvetica" fill="rgb(102,51,102)" font-size="18">LLVM IR</text>
</g>
</g>
<g id="s110764079">
<polygon id="s110764079" points="160.0,380.0 240.00003,380.0 239.99991,440.0 160.0,439.9999 " fill="rgb(217,204,140)" stroke-width="2.0" stroke="rgb(102,51,102)"/>
<g id="t110764079">
<text xml:space="preserve" x="183.00002" y="404.58008" font-family="Sans,Helvetica" fill="rgb(102,51,102)" font-size="20">MIR</text>
<text xml:space="preserve" x="173.00002" y="431.12305" font-family="Sans,Helvetica" fill="rgb(102,51,102)" font-size="20">binary</text>
</g>
</g>
<g id="s147338812">
<polygon id="s147338812" points="260.0,380.0 320.0,380.0 319.99994,439.9993 260.0,440.0 " fill="rgb(217,204,140)" stroke-width="2.0" stroke="rgb(102,51,102)"/>
<g id="t147338812">
<text xml:space="preserve" x="273.0" y="404.58008" font-family="Sans,Helvetica" fill="rgb(102,51,102)" font-size="20">MIR</text>
<text xml:space="preserve" x="272.5" y="431.12305" font-family="Sans,Helvetica" fill="rgb(102,51,102)" font-size="20">text</text>
</g>
</g>
<g id="s204312517">
<polygon id="s204312517" points="560.0,500.0 640.0,500.0 639.9999,560.0 560.0,560.0 " fill="rgb(217,204,140)" stroke-width="2.0" stroke="rgb(102,51,102)"/>
<g id="t204312517">
<text xml:space="preserve" x="573.0" y="537.0664" font-family="Sans,Helvetica" fill="rgb(102,51,102)" font-size="18">x86-64</text>
</g>
</g>
<g id="s143813914">
<polygon id="s143813914" points="660.0,500.0 739.9999,500.0 740.0,560.0 660.0,559.9997 " fill="rgb(217,204,140)" stroke-width="2.0" stroke="rgb(102,51,102)"/>
<g id="t143813914">
<text xml:space="preserve" x="667.5" y="537.0664" font-family="Sans,Helvetica" fill="rgb(102,51,102)" font-size="18">aarch64</text>
</g>
</g>
<g id="s263360587">
<polygon id="s263360587" points="460.0,500.0 540.0,500.0 540.0,560.0 460.0,560.0 " fill="rgb(217,204,140)" stroke-width="2.0" stroke="rgb(102,51,102)"/>
<g id="t263360587">
<text xml:space="preserve" x="473.0" y="525.1221" font-family="Sans,Helvetica" fill="rgb(102,51,102)" font-size="18">PPC64</text>
<text xml:space="preserve" x="475.5" y="549.01074" font-family="Sans,Helvetica" fill="rgb(102,51,102)" font-size="18">BE/LE</text>
</g>
</g>
<g id="s201357864">
<polygon id="s201357864" points="160.0,160.0 239.99998,160.0 240.00005,220.0 160.0,219.99998 " fill="rgb(217,204,140)" stroke-width="2.0" stroke="rgb(102,51,102)"/>
<g id="t201357864">
<text xml:space="preserve" x="183.00003" y="184.58008" font-family="Sans,Helvetica" fill="rgb(102,51,102)" font-size="20">MIR</text>
<text xml:space="preserve" x="173.00003" y="211.12305" font-family="Sans,Helvetica" fill="rgb(102,51,102)" font-size="20">binary</text>
</g>
</g>
<g id="s73163585">
<polygon id="s73163585" points="280.0,160.0 340.0,160.0 340.0,219.99998 280.0,220.0 " fill="rgb(217,204,140)" stroke-width="2.0" stroke="rgb(102,51,102)"/>
<g id="t73163585">
<text xml:space="preserve" x="293.0" y="184.58008" font-family="Sans,Helvetica" fill="rgb(102,51,102)" font-size="20">MIR</text>
<text xml:space="preserve" x="292.5" y="211.12305" font-family="Sans,Helvetica" fill="rgb(102,51,102)" font-size="20">text</text>
</g>
</g>
<g id="s114966758">
<ellipse id="s114966758" cx="920.0" cy="390.0" rx="60.0" ry="30.0" fill="rgb(217,204,140)" stroke-width="2.0" stroke="rgb(102,51,102)"/>
<g id="t114966758">
<text xml:space="preserve" x="877.5" y="397.0664" font-family="Sans,Helvetica" fill="rgb(102,51,102)" font-size="18">Interpreter</text>
</g>
</g>
<g id="s43509287">
<ellipse id="s43509287" cx="750.0" cy="430.0" rx="70.0" ry="30.0" fill="rgb(217,204,140)" stroke-width="2.0" stroke="rgb(102,51,102)"/>
<g id="t43509287">
<text xml:space="preserve" x="705.0" y="437.85156" font-family="Sans,Helvetica" fill="rgb(102,51,102)" font-size="20">Generator</text>
</g>
</g>
<g id="s200741076">
<polygon id="s200741076" points="1040.0,100.0 1100.0,100.0 1099.9983,119.99997 1040.0,120.0 " fill="none" stroke-width="0.0" stroke="rgb(102,51,102)"/>
<g id="t200741076"/>
</g>
<g id="s122352253">
<polygon id="s122352253" points="760.0,500.0 840.0,500.0 839.99994,559.9999 760.0,560.0 " fill="rgb(217,204,140)" stroke-width="2.0" stroke="rgb(102,51,102)"/>
<g id="t122352253">
<text xml:space="preserve" x="776.0" y="537.0664" font-family="Sans,Helvetica" fill="rgb(102,51,102)" font-size="18">s390x</text>
</g>
</g>
<g id="s175736178">
<polygon id="s175736178" points="440.0,380.0 480.0,380.0 480.0,420.0 440.0,419.99994 " fill="rgb(217,204,140)" stroke-width="2.0" stroke="rgb(102,51,102)"/>
<g id="t175736178">
<text xml:space="preserve" x="454.0" y="407.0664" font-family="Sans,Helvetica" fill="rgb(102,51,102)" font-size="18">C</text>
</g>
</g>
<g id="la76725699">
<path id="s76725699" d="M 200.0,300.0 240.0,299.99957 " fill="none" stroke-width="2.0" stroke="rgb(102,51,102)"/>
<path id="s143879883" d="M 230.82198,307.7303 240.0,299.99957 230.82181,292.26904 " fill="none" stroke-width="2.0" stroke="rgb(102,51,102)"/>
<g id="t76725699">
<text xml:space="preserve" x="220.0" y="292.20584" font-family="Sans,Helvetica" fill="rgb(102,51,102)" font-size="14"/>
</g>
</g>
<g id="la1992256">
<path id="s1992256" d="M 200.00002,380.0 285.59943,339.99933 " fill="none" stroke-width="2.0" stroke="rgb(102,51,102)"/>
<path id="s243938984" d="M 205.04224,369.11075 200.00002,380.0 211.58784,383.11804 " fill="none" stroke-width="2.0" stroke="rgb(102,51,102)"/>
<g id="t1992256">
<text xml:space="preserve" x="246.79971" y="365.49576" font-family="Sans,Helvetica" fill="rgb(102,51,102)" font-size="14"/>
</g>
</g>
<g id="la93927801">
<path id="s93927801" d="M 346.39987,339.99936 290.0,380.0 " fill="none" stroke-width="2.0" stroke="rgb(102,51,102)"/>
<path id="s191931841" d="M 293.0142,368.3847 290.0,380.0 301.9586,380.9961 " fill="none" stroke-width="2.0" stroke="rgb(102,51,102)"/>
<g id="t93927801">
<text xml:space="preserve" x="322.19995" y="365.4958" font-family="Sans,Helvetica" fill="rgb(102,51,102)" font-size="14"/>
</g>
</g>
<g id="la240551614">
<path id="s240551614" d="M 809.9992,159.99998 799.9999,260.0 " fill="none" stroke-width="2.0" stroke="rgb(102,51,102)"/>
<path id="s96309606" d="M 793.2208,250.09827 799.9999,260.0 808.60535,251.63661 " fill="none" stroke-width="2.0" stroke="rgb(102,51,102)"/>
<g id="t240551614">
<text xml:space="preserve" x="808.9996" y="215.4961" font-family="Sans,Helvetica" fill="rgb(102,51,102)" font-size="14"/>
</g>
</g>
<g id="la215577375">
<path id="s215577375" d="M 519.9999,159.99997 519.9999,260.0 " fill="none" stroke-width="2.0" stroke="rgb(102,51,102)"/>
<path id="s250096807" d="M 512.2693,250.8219 519.9999,260.0 527.73047,250.8219 " fill="none" stroke-width="2.0" stroke="rgb(102,51,102)"/>
<g id="t215577375">
<text xml:space="preserve" x="523.9999" y="215.49608" font-family="Sans,Helvetica" fill="rgb(102,51,102)" font-size="14"/>
</g>
</g>
<g id="la44279404">
<path id="s44279404" d="M 539.9999,140.0 760.0,140.0 " fill="none" stroke-width="2.0" stroke="rgb(102,51,102)"/>
<path id="s111154516" d="M 750.8219,147.7306 760.0,140.0 750.8219,132.26938 " fill="none" stroke-width="2.0" stroke="rgb(102,51,102)"/>
<g id="t44279404">
<text xml:space="preserve" x="649.99994" y="132.20604" font-family="Sans,Helvetica" fill="rgb(102,51,102)" font-size="14"/>
</g>
</g>
<g id="la267056181">
<path id="s267056181" d="M 310.0,220.0 358.74963,260.0 " fill="none" stroke-width="2.0" stroke="rgb(102,51,102)"/>
<path id="s195091709" d="M 346.75064,260.15445 358.74963,260.0 356.55798,248.20184 " fill="none" stroke-width="2.0" stroke="rgb(102,51,102)"/>
<g id="t267056181">
<text xml:space="preserve" x="338.37482" y="245.4961" font-family="Sans,Helvetica" fill="rgb(102,51,102)" font-size="14"/>
</g>
</g>
<g id="la57692362">
<path id="s57692362" d="M 200.00003,220.0 263.74976,260.0 " fill="none" stroke-width="2.0" stroke="rgb(102,51,102)"/>
<path id="s260136434" d="M 251.86656,261.67023 263.74976,260.0 260.08408,248.5736 " fill="none" stroke-width="2.0" stroke="rgb(102,51,102)"/>
<g id="t57692362">
<text xml:space="preserve" x="235.8749" y="245.4961" font-family="Sans,Helvetica" fill="rgb(102,51,102)" font-size="14"/>
</g>
</g>
<g id="la95167035">
<path id="s95167035" d="M 899.99994,339.99985 920.0,360.0 " fill="none" stroke-width="2.0" stroke="rgb(102,51,102)"/>
<path id="s266398787" d="M 908.04376,358.97644 920.0,360.0 918.9765,348.04373 " fill="none" stroke-width="2.0" stroke="rgb(102,51,102)"/>
<g id="t95167035">
<text xml:space="preserve" x="914.0" y="355.49603" font-family="Sans,Helvetica" fill="rgb(102,51,102)" font-size="14"/>
</g>
</g>
<g id="la22723928">
<path id="s22723928" d="M 500.0,500.0 685.3284,441.4805 " fill="none" stroke-width="2.0" stroke="rgb(102,51,102)"/>
<path id="s160641728" d="M 506.4244,489.86456 500.0,500.0 511.0799,504.60825 " fill="none" stroke-width="2.0" stroke="rgb(102,51,102)"/>
<g id="t22723928">
<text xml:space="preserve" x="592.6642" y="462.94632" font-family="Sans,Helvetica" fill="rgb(102,51,102)" font-size="14"/>
</g>
</g>
<g id="la56860337">
<path id="s56860337" d="M 600.0,500.0 700.5025,451.2132 " fill="none" stroke-width="2.0" stroke="rgb(102,51,102)"/>
<path id="s228805625" d="M 604.8808,489.0374 600.0,500.0 611.6326,502.94647 " fill="none" stroke-width="2.0" stroke="rgb(102,51,102)"/>
<g id="t56860337">
<text xml:space="preserve" x="654.2512" y="481.1027" font-family="Sans,Helvetica" fill="rgb(102,51,102)" font-size="14"/>
</g>
</g>
<g id="la162181014">
<path id="s162181014" d="M 723.21216,457.71637 699.99994,500.0 " fill="none" stroke-width="2.0" stroke="rgb(102,51,102)"/>
<path id="s188966718" d="M 697.64,488.23434 699.99994,500.0 711.1933,495.67462 " fill="none" stroke-width="2.0" stroke="rgb(102,51,102)"/>
<g id="t162181014">
<text xml:space="preserve" x="715.606" y="484.35428" font-family="Sans,Helvetica" fill="rgb(102,51,102)" font-size="14"/>
</g>
</g>
<g id="la53520151">
<path id="s53520151" d="M 750.0,400.0 740.0,339.99988 " fill="none" stroke-width="2.0" stroke="rgb(102,51,102)"/>
<path id="s219941279" d="M 740.8657,392.21768 750.0,400.0 756.1166,389.67587 " fill="none" stroke-width="2.0" stroke="rgb(102,51,102)"/>
<g id="t53520151">
<text xml:space="preserve" x="749.0" y="375.10345" font-family="Sans,Helvetica" fill="rgb(102,51,102)" font-size="13"/>
</g>
</g>
<g id="la23746308">
<path id="s23746308" d="M 776.78784,457.71637 800.0,500.0 " fill="none" stroke-width="2.0" stroke="rgb(102,51,102)"/>
<path id="s265861868" d="M 788.80664,495.67462 800.0,500.0 802.3599,488.23434 " fill="none" stroke-width="2.0" stroke="rgb(102,51,102)"/>
<g id="t23746308">
<text xml:space="preserve" x="792.3939" y="483.9617" font-family="Sans,Helvetica" fill="rgb(102,51,102)" font-size="13"/>
</g>
</g>
<g id="la31618285">
<path id="s31618285" d="M 480.00003,339.99994 460.0,380.0 " fill="none" stroke-width="2.0" stroke="rgb(102,51,102)"/>
<path id="s113487541" d="M 457.1901,368.33362 460.0,380.0 471.01904,375.24808 " fill="none" stroke-width="2.0" stroke="rgb(102,51,102)"/>
<g id="t31618285">
<text xml:space="preserve" x="474.0" y="365.1035" font-family="Sans,Helvetica" fill="rgb(102,51,102)" font-size="13"/>
</g>
</g>
</svg>
