<?xml version="1.0" encoding="UTF-8"?><svg xmlns="http://www.w3.org/2000/svg" xmlns:xlink="http://www.w3.org/1999/xlink" width="680.0" height="500.0" viewBox="130.0 70.0 680.0 500.0" version="1.1">
<rect x="130.0" y="70.0" width="680.0" height="500.0" fill="rgb(255,255,255)"/>
<g id="s186418672">
<polygon id="s186418672" points="240.0,260.0 739.9995,260.0 739.99976,340.0 240.0,340.0 " fill="rgb(217,204,140)" stroke-width="2.0" stroke="rgb(102,51,102)"/>
<g id="t186418672">
<text xml:space="preserve" x="459.99988" y="313.34766" font-family="Sans,Helvetica" fill="rgb(102,51,102)" font-size="34">MIR</text>
</g>
</g>
<g id="s60053353">
<polygon id="s60053353" points="160.0,280.0 200.0,280.0 199.99998,320.0 160.0,319.99997 " fill="none" stroke-width="0.0" stroke="rgb(102,51,102)"/>
<g id="t60053353">
<text xml:space="preserve" x="164.5" y="307.85156" font-family="Sans,Helvetica" fill="rgb(102,51,102)" font-size="20">API</text>
</g>
</g>
<g id="s218195438">
<polygon id="s218195438" points="480.0,180.0 519.9997,180.0 519.9998,220.0 480.0,219.99995 " fill="rgb(217,204,140)" stroke-width="2.0" stroke="rgb(102,51,102)"/>
<g id="t218195438">
<text xml:space="preserve" x="493.4999" y="207.85156" font-family="Sans,Helvetica" fill="rgb(102,51,102)" font-size="20">C</text>
</g>
</g>
<g id="s180034191">
<polygon id="s180034191" points="560.0,180.0 660.0,180.0 659.9984,219.99997 560.0,220.0 " fill="rgb(217,204,140)" stroke-width="2.0" stroke="rgb(102,51,102)"/>
<g id="t180034191">
<text xml:space="preserve" x="573.0" y="207.85156" font-family="Sans,Helvetica" fill="rgb(102,51,102)" font-size="20">LLVM IR</text>
</g>
</g>
<g id="s224137500">
<polygon id="s224137500" points="160.0,380.0 240.00003,380.0 239.99991,440.0 160.0,439.9999 " fill="rgb(217,204,140)" stroke-width="2.0" stroke="rgb(102,51,102)"/>
<g id="t224137500">
<text xml:space="preserve" x="183.00002" y="404.58008" font-family="Sans,Helvetica" fill="rgb(102,51,102)" font-size="20">MIR</text>
<text xml:space="preserve" x="173.00002" y="431.12305" font-family="Sans,Helvetica" fill="rgb(102,51,102)" font-size="20">binary</text>
</g>
</g>
<g id="s85066021">
<polygon id="s85066021" points="260.0,380.0 320.0,380.0 319.99994,439.9993 260.0,440.0 " fill="rgb(217,204,140)" stroke-width="2.0" stroke="rgb(102,51,102)"/>
<g id="t85066021">
<text xml:space="preserve" x="273.0" y="404.58008" font-family="Sans,Helvetica" fill="rgb(102,51,102)" font-size="20">MIR</text>
<text xml:space="preserve" x="272.5" y="431.12305" font-family="Sans,Helvetica" fill="rgb(102,51,102)" font-size="20">text</text>
</g>
</g>
<g id="s211940090">
<polygon id="s211940090" points="620.0,380.0 659.99927,380.0 660.0,420.0 620.0,419.99966 " fill="rgb(217,204,140)" stroke-width="2.0" stroke="rgb(102,51,102)"/>
<g id="t211940090">
<text xml:space="preserve" x="633.5" y="407.85156" font-family="Sans,Helvetica" fill="rgb(102,51,102)" font-size="20">C</text>
</g>
</g>
<g id="s5820587">
<polygon id="s5820587" points="340.0,480.0 420.0,480.0 419.9999,540.0 340.0,540.0 " fill="rgb(217,204,140)" stroke-width="2.0" stroke="rgb(102,51,102)"/>
<g id="t5820587">
<text xml:space="preserve" x="353.0" y="517.0664" font-family="Sans,Helvetica" fill="rgb(102,51,102)" font-size="18">x86-64</text>
</g>
</g>
<g id="s78062344">
<polygon id="s78062344" points="440.0,480.0 539.9999,480.0 540.0,540.0 440.0,540.0 " fill="rgb(217,204,140)" stroke-width="2.0" stroke="rgb(102,51,102)"/>
<g id="t78062344">
<text xml:space="preserve" x="457.5" y="517.0664" font-family="Sans,Helvetica" fill="rgb(102,51,102)" font-size="18">aarch64</text>
</g>
</g>
<g id="s134646433">
<polygon id="s134646433" points="239.99998,480.0 319.99997,480.0 319.99997,540.0 239.99998,540.0 " fill="rgb(217,204,140)" stroke-width="2.0" stroke="rgb(102,51,102)"/>
<g id="t134646433">
<text xml:space="preserve" x="252.99997" y="505.12207" font-family="Sans,Helvetica" fill="rgb(102,51,102)" font-size="18">PPC64</text>
<text xml:space="preserve" x="255.49997" y="529.01074" font-family="Sans,Helvetica" fill="rgb(102,51,102)" font-size="18">BE/LE</text>
</g>
</g>
<g id="s42747078">
<polygon id="s42747078" points="159.99998,160.0 239.99994,160.0 240.0,220.0 159.99998,219.99998 " fill="rgb(217,204,140)" stroke-width="2.0" stroke="rgb(102,51,102)"/>
<g id="t42747078">
<text xml:space="preserve" x="183.0" y="184.58008" font-family="Sans,Helvetica" fill="rgb(102,51,102)" font-size="20">MIR</text>
<text xml:space="preserve" x="173.0" y="211.12305" font-family="Sans,Helvetica" fill="rgb(102,51,102)" font-size="20">binary</text>
</g>
</g>
<g id="s164744327">
<polygon id="s164744327" points="260.0,160.0 320.0,160.0 320.0,219.99998 260.0,220.0 " fill="rgb(217,204,140)" stroke-width="2.0" stroke="rgb(102,51,102)"/>
<g id="t164744327">
<text xml:space="preserve" x="273.0" y="184.58008" font-family="Sans,Helvetica" fill="rgb(102,51,102)" font-size="20">MIR</text>
<text xml:space="preserve" x="272.5" y="211.12305" font-family="Sans,Helvetica" fill="rgb(102,51,102)" font-size="20">text</text>
</g>
</g>
<g id="s34564020">
<ellipse id="s34564020" cx="540.0" cy="410.0" rx="60.0" ry="30.0" fill="rgb(217,204,140)" stroke-width="2.0" stroke="rgb(102,51,102)"/>
<g id="t34564020">
<text xml:space="preserve" x="497.5" y="417.0664" font-family="Sans,Helvetica" fill="rgb(102,51,102)" font-size="18">Interpreter</text>
</g>
</g>
<g id="s190853085">
<ellipse id="s190853085" cx="400.0" cy="410.0" rx="60.000004" ry="30.0" fill="rgb(217,204,140)" stroke-width="2.0" stroke="rgb(102,51,102)"/>
<g id="t190853085">
<text xml:space="preserve" x="355.0" y="417.85156" font-family="Sans,Helvetica" fill="rgb(102,51,102)" font-size="20">Generator</text>
</g>
</g>
<g id="s142075730">
<polygon id="s142075730" points="700.0,100.0 780.0,100.0 779.99756,119.99996 700.0,120.0 " fill="none" stroke-width="0.0" stroke="rgb(102,51,102)"/>
<g id="t142075730"/>
</g>
<g id="la250915363">
<path id="s250915363" d="M 200.0,300.0 240.0,300.0 " fill="none" stroke-width="2.0" stroke="rgb(102,51,102)"/>
<path id="s267179540" d="M 230.8219,307.73062 240.0,300.0 230.8219,292.26938 " fill="none" stroke-width="2.0" stroke="rgb(102,51,102)"/>
<g id="t250915363">
<text xml:space="preserve" x="220.0" y="292.20605" font-family="Sans,Helvetica" fill="rgb(102,51,102)" font-size="14"/>
</g>
</g>
<g id="la68504352">
<path id="s68504352" d="M 200.00002,380.0 269.99988,340.0 " fill="none" stroke-width="2.0" stroke="rgb(102,51,102)"/>
<path id="s143224509" d="M 204.13338,368.7343 200.00002,380.0 211.8043,382.15842 " fill="none" stroke-width="2.0" stroke="rgb(102,51,102)"/>
<g id="t68504352">
<text xml:space="preserve" x="238.99994" y="365.4961" font-family="Sans,Helvetica" fill="rgb(102,51,102)" font-size="14"/>
</g>
</g>
<g id="la78965977">
<path id="s78965977" d="M 309.99988,340.0 290.0,380.0 " fill="none" stroke-width="2.0" stroke="rgb(102,51,102)"/>
<path id="s91221170" d="M 287.19006,368.33362 290.0,380.0 301.01904,375.24805 " fill="none" stroke-width="2.0" stroke="rgb(102,51,102)"/>
<g id="t78965977">
<text xml:space="preserve" x="303.99994" y="365.4961" font-family="Sans,Helvetica" fill="rgb(102,51,102)" font-size="14"/>
</g>
</g>
<g id="la168371870">
<path id="s168371870" d="M 609.9992,219.99998 589.99976,260.0 " fill="none" stroke-width="2.0" stroke="rgb(102,51,102)"/>
<path id="s242365443" d="M 587.18976,248.33365 589.99976,260.0 601.01874,255.24797 " fill="none" stroke-width="2.0" stroke="rgb(102,51,102)"/>
<g id="t168371870">
<text xml:space="preserve" x="603.9995" y="245.4961" font-family="Sans,Helvetica" fill="rgb(102,51,102)" font-size="14"/>
</g>
</g>
<g id="la199083391">
<path id="s199083391" d="M 499.9999,219.99997 489.99976,260.0 " fill="none" stroke-width="2.0" stroke="rgb(102,51,102)"/>
<path id="s264978304" d="M 484.726,249.22096 489.99976,260.0 499.7256,252.97092 " fill="none" stroke-width="2.0" stroke="rgb(102,51,102)"/>
<g id="t199083391">
<text xml:space="preserve" x="498.99982" y="245.49608" font-family="Sans,Helvetica" fill="rgb(102,51,102)" font-size="14"/>
</g>
</g>
<g id="la248772940">
<path id="s248772940" d="M 519.99976,200.0 560.0,200.00003 " fill="none" stroke-width="2.0" stroke="rgb(102,51,102)"/>
<path id="s65223097" d="M 550.8219,207.73064 560.0,200.00003 550.8219,192.26941 " fill="none" stroke-width="2.0" stroke="rgb(102,51,102)"/>
<g id="t248772940">
<text xml:space="preserve" x="539.9999" y="192.20607" font-family="Sans,Helvetica" fill="rgb(102,51,102)" font-size="14"/>
</g>
</g>
<g id="la50232725">
<path id="s50232725" d="M 290.0,220.0 309.99976,260.0 " fill="none" stroke-width="2.0" stroke="rgb(102,51,102)"/>
<path id="s23863806" d="M 298.98074,255.24803 309.99976,260.0 312.80972,248.33363 " fill="none" stroke-width="2.0" stroke="rgb(102,51,102)"/>
<g id="t50232725">
<text xml:space="preserve" x="303.99988" y="245.4961" font-family="Sans,Helvetica" fill="rgb(102,51,102)" font-size="14"/>
</g>
</g>
<g id="la115150506">
<path id="s115150506" d="M 200.0,220.0 269.99976,260.0 " fill="none" stroke-width="2.0" stroke="rgb(102,51,102)"/>
<path id="s98176351" d="M 258.19547,262.15842 269.99976,260.0 265.8664,248.73433 " fill="none" stroke-width="2.0" stroke="rgb(102,51,102)"/>
<g id="t115150506">
<text xml:space="preserve" x="238.99988" y="245.4961" font-family="Sans,Helvetica" fill="rgb(102,51,102)" font-size="14"/>
</g>
</g>
<g id="la135477915">
<path id="s135477915" d="M 529.9999,340.0 540.0,380.0 " fill="none" stroke-width="2.0" stroke="rgb(102,51,102)"/>
<path id="s73716652" d="M 530.2742,372.97092 540.0,380.0 545.27374,369.22098 " fill="none" stroke-width="2.0" stroke="rgb(102,51,102)"/>
<g id="t135477915">
<text xml:space="preserve" x="538.99994" y="365.4961" font-family="Sans,Helvetica" fill="rgb(102,51,102)" font-size="14"/>
</g>
</g>
<g id="la183328312">
<path id="s183328312" d="M 280.0,480.0 357.57358,431.2132 " fill="none" stroke-width="2.0" stroke="rgb(102,51,102)"/>
<path id="s175421557" d="M 283.65375,468.56976 280.0,480.0 291.88495,481.6578 " fill="none" stroke-width="2.0" stroke="rgb(102,51,102)"/>
<g id="t183328312">
<text xml:space="preserve" x="322.78677" y="461.1027" font-family="Sans,Helvetica" fill="rgb(102,51,102)" font-size="14"/>
</g>
</g>
<g id="la18243089">
<path id="s18243089" d="M 379.99994,480.0 400.0,440.0 " fill="none" stroke-width="2.0" stroke="rgb(102,51,102)"/>
<path id="s56909834" d="M 377.19006,468.33362 379.99994,480.0 391.01898,475.2481 " fill="none" stroke-width="2.0" stroke="rgb(102,51,102)"/>
<g id="t18243089">
<text xml:space="preserve" x="393.99997" y="465.4961" font-family="Sans,Helvetica" fill="rgb(102,51,102)" font-size="14"/>
</g>
</g>
<g id="la156593014">
<path id="s156593014" d="M 422.961,437.71637 489.99994,480.0 " fill="none" stroke-width="2.0" stroke="rgb(102,51,102)"/>
<path id="s146546811" d="M 478.11285,481.6423 489.99994,480.0 486.3611,468.565 " fill="none" stroke-width="2.0" stroke="rgb(102,51,102)"/>
<g id="t156593014">
<text xml:space="preserve" x="460.48047" y="464.35428" font-family="Sans,Helvetica" fill="rgb(102,51,102)" font-size="14"/>
</g>
</g>
<g id="la56681847">
<path id="s56681847" d="M 629.9999,340.0 639.99963,380.0 " fill="none" stroke-width="2.0" stroke="rgb(102,51,102)"/>
<path id="s69303960" d="M 630.27386,372.97083 639.99963,380.0 645.2735,369.221 " fill="none" stroke-width="2.0" stroke="rgb(102,51,102)"/>
<g id="t56681847">
<text xml:space="preserve" x="638.99976" y="365.4961" font-family="Sans,Helvetica" fill="rgb(102,51,102)" font-size="14"/>
</g>
</g>
<g id="la120989156">
<path id="s120989156" d="M 400.0,380.0 409.99988,340.0 " fill="none" stroke-width="2.0" stroke="rgb(102,51,102)"/>
<path id="s140863217" d="M 394.7262,369.221 400.0,380.0 409.7258,372.97086 " fill="none" stroke-width="2.0" stroke="rgb(102,51,102)"/>
<g id="t120989156">
<text xml:space="preserve" x="408.99994" y="365.10352" font-family="Sans,Helvetica" fill="rgb(102,51,102)" font-size="13"/>
</g>
</g>
</svg>
