<?xml version="1.0" encoding="UTF-8"?><svg xmlns="http://www.w3.org/2000/svg" xmlns:xlink="http://www.w3.org/1999/xlink" width="680.0" height="440.0" viewBox="130.0 90.0 680.0 440.0" version="1.1">
<rect x="130.0" y="90.0" width="680.0" height="440.0" fill="rgb(255,255,255)"/>
<g id="s106578040">
<polygon id="s106578040" points="239.99998,260.0 739.99963,260.0 739.9999,340.0 239.99998,340.0 " fill="none" stroke-width="2.0" stroke="rgb(0,0,0)"/>
<g id="t106578040">
<text xml:space="preserve" x="459.99994" y="313.34766" font-family="Sans,Helvetica" fill="rgb(0,0,0)" font-size="34">MIR</text>
</g>
</g>
<g id="s149042001">
<polygon id="s149042001" points="160.0,280.0 200.0,280.0 199.99998,320.0 160.0,319.99997 " fill="none" stroke-width="0.0" stroke="rgb(0,0,0)"/>
<g id="t149042001">
<text xml:space="preserve" x="164.5" y="307.85156" font-family="Sans,Helvetica" fill="rgb(0,0,0)" font-size="20">API</text>
</g>
</g>
<g id="s93894582">
<polygon id="s93894582" points="480.0,180.0 519.9997,180.0 519.9998,220.0 480.0,219.99995 " fill="none" stroke-width="2.0" stroke="rgb(0,0,0)"/>
<g id="t93894582">
<text xml:space="preserve" x="493.4999" y="207.85156" font-family="Sans,Helvetica" fill="rgb(0,0,0)" font-size="20">C</text>
</g>
</g>
<g id="s113499319">
<polygon id="s113499319" points="560.0,180.0 660.0,180.0 659.9984,219.99997 560.0,220.0 " fill="none" stroke-width="2.0" stroke="rgb(0,0,0)"/>
<g id="t113499319">
<text xml:space="preserve" x="573.0" y="207.85156" font-family="Sans,Helvetica" fill="rgb(0,0,0)" font-size="20">LLVM IR</text>
</g>
</g>
<g id="s187624484">
<polygon id="s187624484" points="180.0,380.0 239.99991,380.0 239.99979,439.99997 180.0,440.0 " fill="none" stroke-width="2.0" stroke="rgb(0,0,0)"/>
<g id="t187624484">
<text xml:space="preserve" x="192.99995" y="404.58008" font-family="Sans,Helvetica" fill="rgb(0,0,0)" font-size="20">MIR</text>
<text xml:space="preserve" x="182.99995" y="431.12305" font-family="Sans,Helvetica" fill="rgb(0,0,0)" font-size="20">binary</text>
</g>
</g>
<g id="s113619853">
<polygon id="s113619853" points="280.0,380.0 340.0,380.0 339.99994,439.9993 280.0,440.0 " fill="none" stroke-width="2.0" stroke="rgb(0,0,0)"/>
<g id="t113619853">
<text xml:space="preserve" x="293.0" y="404.58008" font-family="Sans,Helvetica" fill="rgb(0,0,0)" font-size="20">MIR</text>
<text xml:space="preserve" x="292.5" y="431.12305" font-family="Sans,Helvetica" fill="rgb(0,0,0)" font-size="20">text</text>
</g>
</g>
<g id="s183540034">
<polygon id="s183540034" points="620.0,380.0 659.99927,380.0 660.0,420.0 620.0,419.99966 " fill="none" stroke-width="2.0" stroke="rgb(0,0,0)"/>
<g id="t183540034">
<text xml:space="preserve" x="633.5" y="407.85156" font-family="Sans,Helvetica" fill="rgb(0,0,0)" font-size="20">C</text>
</g>
</g>
<g id="s36670803">
<polygon id="s36670803" points="360.0,460.0 440.0,460.0 439.99988,500.0 360.0,500.0 " fill="none" stroke-width="2.0" stroke="rgb(0,0,0)"/>
<g id="t36670803">
<text xml:space="preserve" x="373.0" y="487.0664" font-family="Sans,Helvetica" fill="rgb(0,0,0)" font-size="18">x86-64</text>
</g>
</g>
<g id="s209757840">
<polygon id="s209757840" points="180.0,160.0 240.00014,160.0 240.0002,220.0 180.0,220.0 " fill="none" stroke-width="2.0" stroke="rgb(0,0,0)"/>
<g id="t209757840">
<text xml:space="preserve" x="193.00009" y="184.58008" font-family="Sans,Helvetica" fill="rgb(0,0,0)" font-size="20">MIR</text>
<text xml:space="preserve" x="183.00009" y="211.12305" font-family="Sans,Helvetica" fill="rgb(0,0,0)" font-size="20">binary</text>
</g>
</g>
<g id="s149355401">
<polygon id="s149355401" points="280.0,160.0 340.0,160.0 340.0,219.99998 280.0,220.0 " fill="none" stroke-width="2.0" stroke="rgb(0,0,0)"/>
<g id="t149355401">
<text xml:space="preserve" x="293.0" y="184.58008" font-family="Sans,Helvetica" fill="rgb(0,0,0)" font-size="20">MIR</text>
<text xml:space="preserve" x="292.5" y="211.12305" font-family="Sans,Helvetica" fill="rgb(0,0,0)" font-size="20">text</text>
</g>
</g>
<g id="s267585422">
<polygon id="s267585422" points="640.0,120.0 679.9999,120.0 680.0,139.99997 640.0,140.0 " fill="none" stroke-width="0.0" stroke="rgb(0,0,0)"/>
<g id="t267585422"/>
</g>
<g id="s211528623">
<ellipse id="s211528623" cx="549.99994" cy="390.00003" rx="49.999996" ry="30.0" fill="none" stroke-width="2.0" stroke="rgb(0,0,0)"/>
<g id="t211528623">
<text xml:space="preserve" x="507.49994" y="397.06644" font-family="Sans,Helvetica" fill="rgb(0,0,0)" font-size="18">Interpreter</text>
</g>
</g>
<g id="s82942908">
<ellipse id="s82942908" cx="430.0" cy="410.00006" rx="50.0" ry="30.0" fill="none" stroke-width="2.0" stroke="rgb(0,0,0)"/>
<g id="t82942908">
<text xml:space="preserve" x="385.0" y="417.85162" font-family="Sans,Helvetica" fill="rgb(0,0,0)" font-size="20">Generator</text>
</g>
</g>
<g id="s129681221">
<polygon id="s129681221" points="720.0,120.0 780.0,120.0 779.9983,139.99997 720.0,140.0 " fill="none" stroke-width="0.0" stroke="rgb(0,0,0)"/>
<g id="t129681221"/>
</g>
<g id="la127667866">
<path id="s127667866" d="M 200.0,300.0 239.99998,300.0 " fill="none" stroke-width="2.0" stroke="rgb(0,0,0)"/>
<path id="s251745227" d="M 230.82188,307.73062 239.99998,300.0 230.82188,292.26938 " fill="none" stroke-width="2.0" stroke="rgb(0,0,0)"/>
<g id="t127667866">
<text xml:space="preserve" x="220.0" y="292.20605" font-family="Sans,Helvetica" fill="rgb(0,0,0)" font-size="14"/>
</g>
</g>
<g id="la71668417">
<path id="s71668417" d="M 209.99995,380.0 239.99998,340.0 " fill="none" stroke-width="2.0" stroke="rgb(0,0,0)"/>
<path id="s110918246" d="M 209.32233,368.01913 209.99995,380.0 221.69131,377.2959 " fill="none" stroke-width="2.0" stroke="rgb(0,0,0)"/>
<g id="t71668417">
<text xml:space="preserve" x="228.99997" y="365.4961" font-family="Sans,Helvetica" fill="rgb(0,0,0)" font-size="14"/>
</g>
</g>
<g id="la248471975">
<path id="s248471975" d="M 329.99994,340.0 310.0,380.0 " fill="none" stroke-width="2.0" stroke="rgb(0,0,0)"/>
<path id="s204973652" d="M 307.1901,368.33362 310.0,380.0 321.01904,375.24808 " fill="none" stroke-width="2.0" stroke="rgb(0,0,0)"/>
<g id="t248471975">
<text xml:space="preserve" x="323.99997" y="365.4961" font-family="Sans,Helvetica" fill="rgb(0,0,0)" font-size="14"/>
</g>
</g>
<g id="la22518269">
<path id="s22518269" d="M 609.9992,219.99998 589.9998,260.0 " fill="none" stroke-width="2.0" stroke="rgb(0,0,0)"/>
<path id="s166057714" d="M 587.18976,248.33365 589.9998,260.0 601.0188,255.24796 " fill="none" stroke-width="2.0" stroke="rgb(0,0,0)"/>
<g id="t22518269">
<text xml:space="preserve" x="603.9995" y="245.4961" font-family="Sans,Helvetica" fill="rgb(0,0,0)" font-size="14"/>
</g>
</g>
<g id="la260469059">
<path id="s260469059" d="M 499.9999,219.99997 489.99982,260.0 " fill="none" stroke-width="2.0" stroke="rgb(0,0,0)"/>
<path id="s261280704" d="M 484.72607,249.22098 489.99982,260.0 499.72565,252.9709 " fill="none" stroke-width="2.0" stroke="rgb(0,0,0)"/>
<g id="t260469059">
<text xml:space="preserve" x="498.99988" y="245.49608" font-family="Sans,Helvetica" fill="rgb(0,0,0)" font-size="14"/>
</g>
</g>
<g id="la76077305">
<path id="s76077305" d="M 519.99976,200.0 560.0,200.00003 " fill="none" stroke-width="2.0" stroke="rgb(0,0,0)"/>
<path id="s167145534" d="M 550.8219,207.73064 560.0,200.00003 550.8219,192.26941 " fill="none" stroke-width="2.0" stroke="rgb(0,0,0)"/>
<g id="t76077305">
<text xml:space="preserve" x="539.9999" y="192.20607" font-family="Sans,Helvetica" fill="rgb(0,0,0)" font-size="14"/>
</g>
</g>
<g id="la34922143">
<path id="s34922143" d="M 310.0,220.0 329.99982,260.0 " fill="none" stroke-width="2.0" stroke="rgb(0,0,0)"/>
<path id="s212954092" d="M 318.9808,255.24805 329.99982,260.0 332.80975,248.33363 " fill="none" stroke-width="2.0" stroke="rgb(0,0,0)"/>
<g id="t34922143">
<text xml:space="preserve" x="323.9999" y="245.4961" font-family="Sans,Helvetica" fill="rgb(0,0,0)" font-size="14"/>
</g>
</g>
<g id="la115692106">
<path id="s115692106" d="M 210.00009,220.0 239.99998,260.0 " fill="none" stroke-width="2.0" stroke="rgb(0,0,0)"/>
<path id="s54386850" d="M 228.30864,257.29587 239.99998,260.0 240.67763,248.01915 " fill="none" stroke-width="2.0" stroke="rgb(0,0,0)"/>
<g id="t115692106">
<text xml:space="preserve" x="229.00005" y="245.4961" font-family="Sans,Helvetica" fill="rgb(0,0,0)" font-size="14"/>
</g>
</g>
<g id="la108572047">
<path id="s108572047" d="M 489.99994,340.0 489.99994,340.0 430.00037,340.0 430.0,380.0 " fill="none" stroke-width="2.0" stroke="rgb(0,0,0)"/>
<path id="s31303708" d="M 422.26947,370.82184 430.0,380.0 437.73068,370.82196 " fill="none" stroke-width="2.0" stroke="rgb(0,0,0)"/>
<g id="t108572047">
<text xml:space="preserve" x="436.00015" y="332.20605" font-family="Sans,Helvetica" fill="rgb(0,0,0)" font-size="14"/>
</g>
</g>
<g id="la104942629">
<path id="s104942629" d="M 549.99994,340.0 549.99994,360.00003 " fill="none" stroke-width="2.0" stroke="rgb(0,0,0)"/>
<path id="s144630266" d="M 542.26935,350.82193 549.99994,360.00003 557.7305,350.82193 " fill="none" stroke-width="2.0" stroke="rgb(0,0,0)"/>
<g id="t104942629">
<text xml:space="preserve" x="553.99994" y="355.4961" font-family="Sans,Helvetica" fill="rgb(0,0,0)" font-size="14"/>
</g>
</g>
<g id="la98341803">
<path id="s98341803" d="M 400.0,460.0 410.8658,437.71643 " fill="none" stroke-width="2.0" stroke="rgb(0,0,0)"/>
<path id="s86714888" d="M 397.0741,448.36218 400.0,460.0 410.9712,455.1386 " fill="none" stroke-width="2.0" stroke="rgb(0,0,0)"/>
<g id="t98341803">
<text xml:space="preserve" x="409.43292" y="454.3543" font-family="Sans,Helvetica" fill="rgb(0,0,0)" font-size="14"/>
</g>
</g>
<g id="la73368993">
<path id="s73368993" d="M 629.99994,340.0 639.99963,380.0 " fill="none" stroke-width="2.0" stroke="rgb(0,0,0)"/>
<path id="s48833478" d="M 630.27386,372.9708 639.99963,380.0 645.2735,369.221 " fill="none" stroke-width="2.0" stroke="rgb(0,0,0)"/>
<g id="t73368993">
<text xml:space="preserve" x="638.9998" y="365.4961" font-family="Sans,Helvetica" fill="rgb(0,0,0)" font-size="14"/>
</g>
</g>
</svg>
