<?xml version="1.0" encoding="UTF-8"?><svg xmlns="http://www.w3.org/2000/svg" xmlns:xlink="http://www.w3.org/1999/xlink" width="1000.0" height="520.0" viewBox="130.0 70.0 1000.0 520.0" version="1.1">
<rect x="130.0" y="70.0" width="1000.0" height="520.0" fill="rgb(255,255,255)"/>
<g id="s222671781">
<polygon id="s222671781" points="240.0,260.0 999.99976,260.0 1000.00006,339.99982 240.0,340.0 " fill="rgb(217,204,140)" stroke-width="2.0" stroke="rgb(102,51,102)"/>
<g id="t222671781">
<text xml:space="preserve" x="590.0" y="313.34766" font-family="Sans,Helvetica" fill="rgb(102,51,102)" font-size="34">MIR</text>
</g>
</g>
<g id="s168293242">
<polygon id="s168293242" points="160.0,280.0 200.0,280.0 199.99998,320.0 160.0,319.99997 " fill="none" stroke-width="0.0" stroke="rgb(102,51,102)"/>
<g id="t168293242">
<text xml:space="preserve" x="164.5" y="307.85156" font-family="Sans,Helvetica" fill="rgb(102,51,102)" font-size="20">API</text>
</g>
</g>
<g id="s200148779">
<polygon id="s200148779" points="500.0,120.0 540.0,120.0 539.99976,160.0 500.0,159.99995 " fill="rgb(217,204,140)" stroke-width="2.0" stroke="rgb(102,51,102)"/>
<g id="t200148779">
<text xml:space="preserve" x="513.5" y="147.85156" font-family="Sans,Helvetica" fill="rgb(102,51,102)" font-size="20">C</text>
</g>
</g>
<g id="s13260680">
<polygon id="s13260680" points="760.0,120.0 860.0,120.0 859.9984,159.99997 760.0,160.0 " fill="rgb(192,202,51)" stroke-width="2.0" stroke="rgb(102,51,102)"/>
<g id="t13260680">
<text xml:space="preserve" x="773.0" y="147.85156" font-family="Sans,Helvetica" fill="rgb(102,51,102)" font-size="20">LLVM IR</text>
</g>
</g>
<g id="s134407457">
<polygon id="s134407457" points="380.0,180.0 459.99936,180.0 460.0,219.99994 380.0,220.0 " fill="none" stroke-width="2.0" stroke="rgb(102,51,102)"/>
<g id="t134407457">
<text xml:space="preserve" x="392.5" y="207.0664" font-family="Sans,Helvetica" fill="rgb(102,51,102)" font-size="18">WASM</text>
</g>
</g>
<g id="s59886918">
<polygon id="s59886918" points="160.0,380.0 240.00003,380.0 239.99991,440.0 160.0,439.9999 " fill="rgb(217,204,140)" stroke-width="2.0" stroke="rgb(102,51,102)"/>
<g id="t59886918">
<text xml:space="preserve" x="183.00002" y="404.58008" font-family="Sans,Helvetica" fill="rgb(102,51,102)" font-size="20">MIR</text>
<text xml:space="preserve" x="173.00002" y="431.12305" font-family="Sans,Helvetica" fill="rgb(102,51,102)" font-size="20">binary</text>
</g>
</g>
<g id="s197389063">
<polygon id="s197389063" points="260.0,380.0 320.0,380.0 319.99994,439.9993 260.0,440.0 " fill="rgb(217,204,140)" stroke-width="2.0" stroke="rgb(102,51,102)"/>
<g id="t197389063">
<text xml:space="preserve" x="273.0" y="404.58008" font-family="Sans,Helvetica" fill="rgb(102,51,102)" font-size="20">MIR</text>
<text xml:space="preserve" x="272.5" y="431.12305" font-family="Sans,Helvetica" fill="rgb(102,51,102)" font-size="20">text</text>
</g>
</g>
<g id="s40985652">
<polygon id="s40985652" points="560.0,500.0 640.0,500.0 639.9999,560.0 560.0,560.0 " fill="rgb(217,204,140)" stroke-width="2.0" stroke="rgb(102,51,102)"/>
<g id="t40985652">
<text xml:space="preserve" x="573.0" y="537.0664" font-family="Sans,Helvetica" fill="rgb(102,51,102)" font-size="18">x86-64</text>
</g>
</g>
<g id="s185053789">
<polygon id="s185053789" points="660.0,500.0 739.9999,500.0 740.0,560.0 660.0,559.9997 " fill="rgb(217,204,140)" stroke-width="2.0" stroke="rgb(102,51,102)"/>
<g id="t185053789">
<text xml:space="preserve" x="667.5" y="537.0664" font-family="Sans,Helvetica" fill="rgb(102,51,102)" font-size="18">aarch64</text>
</g>
</g>
<g id="s193820626">
<polygon id="s193820626" points="460.0,500.0 540.0,500.0 540.0,560.0 460.0,560.0 " fill="rgb(217,204,140)" stroke-width="2.0" stroke="rgb(102,51,102)"/>
<g id="t193820626">
<text xml:space="preserve" x="473.0" y="525.1221" font-family="Sans,Helvetica" fill="rgb(102,51,102)" font-size="18">PPC64</text>
<text xml:space="preserve" x="475.5" y="549.01074" font-family="Sans,Helvetica" fill="rgb(102,51,102)" font-size="18">BE/LE</text>
</g>
</g>
<g id="s69873827">
<polygon id="s69873827" points="860.0,500.0 940.0,500.0 939.99927,560.0 860.0,559.99994 " fill="rgb(217,204,140)" stroke-width="2.0" stroke="rgb(102,51,102)"/>
<g id="t69873827">
<text xml:space="preserve" x="875.0" y="537.0664" font-family="Sans,Helvetica" fill="rgb(102,51,102)" font-size="18">RISCV</text>
</g>
</g>
<g id="s31100832">
<polygon id="s31100832" points="160.0,160.0 239.99998,160.0 240.00005,220.0 160.0,219.99998 " fill="rgb(217,204,140)" stroke-width="2.0" stroke="rgb(102,51,102)"/>
<g id="t31100832">
<text xml:space="preserve" x="183.00003" y="184.58008" font-family="Sans,Helvetica" fill="rgb(102,51,102)" font-size="20">MIR</text>
<text xml:space="preserve" x="173.00003" y="211.12305" font-family="Sans,Helvetica" fill="rgb(102,51,102)" font-size="20">binary</text>
</g>
</g>
<g id="s127014745">
<polygon id="s127014745" points="280.0,160.0 340.0,160.0 340.0,219.99998 280.0,220.0 " fill="rgb(217,204,140)" stroke-width="2.0" stroke="rgb(102,51,102)"/>
<g id="t127014745">
<text xml:space="preserve" x="293.0" y="184.58008" font-family="Sans,Helvetica" fill="rgb(102,51,102)" font-size="20">MIR</text>
<text xml:space="preserve" x="292.5" y="211.12305" font-family="Sans,Helvetica" fill="rgb(102,51,102)" font-size="20">text</text>
</g>
</g>
<g id="s69680926">
<ellipse id="s69680926" cx="920.0" cy="390.0" rx="60.0" ry="30.0" fill="rgb(217,204,140)" stroke-width="2.0" stroke="rgb(102,51,102)"/>
<g id="t69680926">
<text xml:space="preserve" x="877.5" y="397.0664" font-family="Sans,Helvetica" fill="rgb(102,51,102)" font-size="18">Interpreter</text>
</g>
</g>
<g id="s153433087">
<ellipse id="s153433087" cx="750.0" cy="430.0" rx="70.0" ry="30.0" fill="rgb(217,204,140)" stroke-width="2.0" stroke="rgb(102,51,102)"/>
<g id="t153433087">
<text xml:space="preserve" x="705.0" y="437.85156" font-family="Sans,Helvetica" fill="rgb(102,51,102)" font-size="20">Generator</text>
</g>
</g>
<g id="s15271372">
<polygon id="s15271372" points="1040.0,100.0 1100.0,100.0 1099.9983,119.99997 1040.0,120.0 " fill="none" stroke-width="0.0" stroke="rgb(102,51,102)"/>
<g id="t15271372"/>
</g>
<g id="s180604949">
<polygon id="s180604949" points="760.0,500.0 840.0,500.0 839.99994,559.9999 760.0,560.0 " fill="rgb(217,204,140)" stroke-width="2.0" stroke="rgb(102,51,102)"/>
<g id="t180604949">
<text xml:space="preserve" x="776.0" y="537.0664" font-family="Sans,Helvetica" fill="rgb(102,51,102)" font-size="18">s390x</text>
</g>
</g>
<g id="s67383082">
<polygon id="s67383082" points="959.9999,500.0 1040.0,500.0 1039.9995,559.9999 959.9999,560.0 " fill="none" stroke-width="2.0" stroke="rgb(102,51,102)"/>
<g id="t67383082">
<text xml:space="preserve" x="968.49994" y="537.0664" font-family="Sans,Helvetica" fill="rgb(102,51,102)" font-size="18">MIPS64</text>
</g>
</g>
<g id="s10686747">
<polygon id="s10686747" points="340.0,380.0 420.0,380.0 420.0,420.0 340.0,419.99997 " fill="none" stroke-width="2.0" stroke="rgb(102,51,102)"/>
<g id="t10686747">
<text xml:space="preserve" x="352.5" y="407.0664" font-family="Sans,Helvetica" fill="rgb(102,51,102)" font-size="18">WASM</text>
</g>
</g>
<g id="s176599736">
<polygon id="s176599736" points="440.0,380.0 480.0,380.0 480.0,420.0 440.0,419.99994 " fill="rgb(217,204,140)" stroke-width="2.0" stroke="rgb(102,51,102)"/>
<g id="t176599736">
<text xml:space="preserve" x="454.0" y="407.0664" font-family="Sans,Helvetica" fill="rgb(102,51,102)" font-size="18">C</text>
</g>
</g>
<g id="s136206481">
<ellipse id="s136206481" cx="599.99994" cy="200.0" rx="40.0" ry="20.0" fill="none" stroke-width="2.0" stroke="rgb(102,51,102)"/>
<g id="t136206481">
<text xml:space="preserve" x="581.99994" y="207.0664" font-family="Sans,Helvetica" fill="rgb(102,51,102)" font-size="18">GCC</text>
</g>
</g>
<g id="la84808694">
<path id="s84808694" d="M 200.0,300.0 240.0,299.99957 " fill="none" stroke-width="2.0" stroke="rgb(102,51,102)"/>
<path id="s134698268" d="M 230.82198,307.7303 240.0,299.99957 230.82181,292.26904 " fill="none" stroke-width="2.0" stroke="rgb(102,51,102)"/>
<g id="t84808694">
<text xml:space="preserve" x="220.0" y="292.20584" font-family="Sans,Helvetica" fill="rgb(102,51,102)" font-size="14"/>
</g>
</g>
<g id="la123184119">
<path id="s123184119" d="M 200.00002,380.0 285.59943,339.99933 " fill="none" stroke-width="2.0" stroke="rgb(102,51,102)"/>
<path id="s112588069" d="M 205.04224,369.11075 200.00002,380.0 211.58784,383.11804 " fill="none" stroke-width="2.0" stroke="rgb(102,51,102)"/>
<g id="t123184119">
<text xml:space="preserve" x="246.79971" y="365.49576" font-family="Sans,Helvetica" fill="rgb(102,51,102)" font-size="14"/>
</g>
</g>
<g id="la206586468">
<path id="s206586468" d="M 346.39987,339.99936 290.0,380.0 " fill="none" stroke-width="2.0" stroke="rgb(102,51,102)"/>
<path id="s197711610" d="M 293.0142,368.3847 290.0,380.0 301.9586,380.9961 " fill="none" stroke-width="2.0" stroke="rgb(102,51,102)"/>
<g id="t206586468">
<text xml:space="preserve" x="322.19995" y="365.4958" font-family="Sans,Helvetica" fill="rgb(102,51,102)" font-size="14"/>
</g>
</g>
<g id="la264170701">
<path id="s264170701" d="M 809.9992,159.99998 799.9999,260.0 " fill="none" stroke-width="2.0" stroke="rgb(102,51,102)"/>
<path id="s146974472" d="M 793.2208,250.09827 799.9999,260.0 808.60535,251.63661 " fill="none" stroke-width="2.0" stroke="rgb(102,51,102)"/>
<g id="t264170701">
<text xml:space="preserve" x="808.9996" y="215.4961" font-family="Sans,Helvetica" fill="rgb(102,51,102)" font-size="14"/>
</g>
</g>
<g id="la67074434">
<path id="s67074434" d="M 519.9999,159.99997 519.9999,260.0 " fill="none" stroke-width="2.0" stroke="rgb(102,51,102)"/>
<path id="s215498060" d="M 512.2693,250.8219 519.9999,260.0 527.73047,250.8219 " fill="none" stroke-width="2.0" stroke="rgb(102,51,102)"/>
<g id="t67074434">
<text xml:space="preserve" x="523.9999" y="215.49608" font-family="Sans,Helvetica" fill="rgb(102,51,102)" font-size="14"/>
</g>
</g>
<g id="la123242643">
<path id="s123242643" d="M 420.0,219.99997 439.99988,260.0 " fill="none" stroke-width="2.0" stroke="rgb(102,51,102)"/>
<path id="s260534677" d="M 428.98083,255.24806 439.99988,260.0 442.8098,248.33362 " fill="none" stroke-width="2.0" stroke="rgb(102,51,102)"/>
<g id="t123242643">
<text xml:space="preserve" x="433.99994" y="245.49608" font-family="Sans,Helvetica" fill="rgb(102,51,102)" font-size="14"/>
</g>
</g>
<g id="la251732176">
<path id="s251732176" d="M 539.9999,140.0 760.0,140.0 " fill="none" stroke-width="2.0" stroke="rgb(102,51,102)"/>
<path id="s260371114" d="M 750.8219,147.7306 760.0,140.0 750.8219,132.26938 " fill="none" stroke-width="2.0" stroke="rgb(102,51,102)"/>
<g id="t251732176">
<text xml:space="preserve" x="649.99994" y="132.20604" font-family="Sans,Helvetica" fill="rgb(102,51,102)" font-size="14"/>
</g>
</g>
<g id="la207259849">
<path id="s207259849" d="M 310.0,220.0 358.74963,260.0 " fill="none" stroke-width="2.0" stroke="rgb(102,51,102)"/>
<path id="s117919387" d="M 346.75064,260.15445 358.74963,260.0 356.55798,248.20184 " fill="none" stroke-width="2.0" stroke="rgb(102,51,102)"/>
<g id="t207259849">
<text xml:space="preserve" x="338.37482" y="245.4961" font-family="Sans,Helvetica" fill="rgb(102,51,102)" font-size="14"/>
</g>
</g>
<g id="la212839374">
<path id="s212839374" d="M 200.00003,220.0 263.74976,260.0 " fill="none" stroke-width="2.0" stroke="rgb(102,51,102)"/>
<path id="s250733112" d="M 251.86656,261.67023 263.74976,260.0 260.08408,248.5736 " fill="none" stroke-width="2.0" stroke="rgb(102,51,102)"/>
<g id="t212839374">
<text xml:space="preserve" x="235.8749" y="245.4961" font-family="Sans,Helvetica" fill="rgb(102,51,102)" font-size="14"/>
</g>
</g>
<g id="la209263343">
<path id="s209263343" d="M 899.99994,339.99985 920.0,360.0 " fill="none" stroke-width="2.0" stroke="rgb(102,51,102)"/>
<path id="s255496721" d="M 908.04376,358.97644 920.0,360.0 918.9765,348.04373 " fill="none" stroke-width="2.0" stroke="rgb(102,51,102)"/>
<g id="t209263343">
<text xml:space="preserve" x="914.0" y="355.49603" font-family="Sans,Helvetica" fill="rgb(102,51,102)" font-size="14"/>
</g>
</g>
<g id="la161446396">
<path id="s161446396" d="M 500.0,500.0 685.3284,441.4805 " fill="none" stroke-width="2.0" stroke="rgb(102,51,102)"/>
<path id="s244813686" d="M 506.4244,489.86456 500.0,500.0 511.0799,504.60825 " fill="none" stroke-width="2.0" stroke="rgb(102,51,102)"/>
<g id="t161446396">
<text xml:space="preserve" x="592.6642" y="462.94632" font-family="Sans,Helvetica" fill="rgb(102,51,102)" font-size="14"/>
</g>
</g>
<g id="la83486853">
<path id="s83486853" d="M 600.0,500.0 700.5025,451.2132 " fill="none" stroke-width="2.0" stroke="rgb(102,51,102)"/>
<path id="s260192631" d="M 604.8808,489.0374 600.0,500.0 611.6326,502.94647 " fill="none" stroke-width="2.0" stroke="rgb(102,51,102)"/>
<g id="t83486853">
<text xml:space="preserve" x="654.2512" y="481.1027" font-family="Sans,Helvetica" fill="rgb(102,51,102)" font-size="14"/>
</g>
</g>
<g id="la253671130">
<path id="s253671130" d="M 723.21216,457.71637 699.99994,500.0 " fill="none" stroke-width="2.0" stroke="rgb(102,51,102)"/>
<path id="s16706020" d="M 697.64,488.23434 699.99994,500.0 711.1933,495.67462 " fill="none" stroke-width="2.0" stroke="rgb(102,51,102)"/>
<g id="t253671130">
<text xml:space="preserve" x="715.606" y="484.35428" font-family="Sans,Helvetica" fill="rgb(102,51,102)" font-size="14"/>
</g>
</g>
<g id="la40269579">
<path id="s40269579" d="M 799.4975,451.2132 900.0,500.0 " fill="none" stroke-width="2.0" stroke="rgb(102,51,102)"/>
<path id="s35995213" d="M 888.3674,502.94647 900.0,500.0 895.1192,489.0374 " fill="none" stroke-width="2.0" stroke="rgb(102,51,102)"/>
<g id="t40269579">
<text xml:space="preserve" x="853.7488" y="481.1027" font-family="Sans,Helvetica" fill="rgb(102,51,102)" font-size="14"/>
</g>
</g>
<g id="la191379944">
<path id="s191379944" d="M 750.0,400.0 740.0,339.99988 " fill="none" stroke-width="2.0" stroke="rgb(102,51,102)"/>
<path id="s258288898" d="M 740.8657,392.21768 750.0,400.0 756.1166,389.67587 " fill="none" stroke-width="2.0" stroke="rgb(102,51,102)"/>
<g id="t191379944">
<text xml:space="preserve" x="749.0" y="375.10345" font-family="Sans,Helvetica" fill="rgb(102,51,102)" font-size="13"/>
</g>
</g>
<g id="la242583553">
<path id="s242583553" d="M 776.78784,457.71637 800.0,500.0 " fill="none" stroke-width="2.0" stroke="rgb(102,51,102)"/>
<path id="s56030739" d="M 788.80664,495.67462 800.0,500.0 802.3599,488.23434 " fill="none" stroke-width="2.0" stroke="rgb(102,51,102)"/>
<g id="t242583553">
<text xml:space="preserve" x="792.3939" y="483.9617" font-family="Sans,Helvetica" fill="rgb(102,51,102)" font-size="13"/>
</g>
</g>
<g id="la155281062">
<path id="s155281062" d="M 814.6716,441.4805 999.99994,500.0 " fill="none" stroke-width="2.0" stroke="rgb(102,51,102)"/>
<path id="s11714640" d="M 988.92004,504.60825 999.99994,500.0 993.5755,489.86456 " fill="none" stroke-width="2.0" stroke="rgb(102,51,102)"/>
<g id="t155281062">
<text xml:space="preserve" x="907.33575" y="463.21732" font-family="Sans,Helvetica" fill="rgb(102,51,102)" font-size="13"/>
</g>
</g>
<g id="la142833895">
<path id="s142833895" d="M 429.9995,339.9995 380.0,380.0 " fill="none" stroke-width="2.0" stroke="rgb(102,51,102)"/>
<path id="s9728585" d="M 382.3375,368.22986 380.0,380.0 391.9962,380.30295 " fill="none" stroke-width="2.0" stroke="rgb(102,51,102)"/>
<g id="t142833895">
<text xml:space="preserve" x="408.99976" y="365.10327" font-family="Sans,Helvetica" fill="rgb(102,51,102)" font-size="13"/>
</g>
</g>
<g id="la142281876">
<path id="s142281876" d="M 480.00003,339.99994 460.0,380.0 " fill="none" stroke-width="2.0" stroke="rgb(102,51,102)"/>
<path id="s125638478" d="M 457.1901,368.33362 460.0,380.0 471.01904,375.24808 " fill="none" stroke-width="2.0" stroke="rgb(102,51,102)"/>
<g id="t142281876">
<text xml:space="preserve" x="474.0" y="365.1035" font-family="Sans,Helvetica" fill="rgb(102,51,102)" font-size="13"/>
</g>
</g>
<g id="la145859389">
<path id="s145859389" d="M 539.99976,160.0 584.6926,181.52242 " fill="none" stroke-width="2.0" stroke="rgb(102,51,102)"/>
<path id="s28369007" d="M 573.0693,184.50534 584.6926,181.52242 579.7775,170.5752 " fill="none" stroke-width="2.0" stroke="rgb(102,51,102)"/>
<g id="t145859389">
<text xml:space="preserve" x="566.3462" y="175.86472" font-family="Sans,Helvetica" fill="rgb(102,51,102)" font-size="13"/>
</g>
</g>
<g id="la26036018">
<path id="s26036018" d="M 599.99994,220.0 599.9999,260.0 " fill="none" stroke-width="2.0" stroke="rgb(102,51,102)"/>
<path id="s25923964" d="M 592.2693,250.82188 599.9999,260.0 607.7305,250.8219 " fill="none" stroke-width="2.0" stroke="rgb(102,51,102)"/>
<g id="t26036018">
<text xml:space="preserve" x="603.9999" y="245.10352" font-family="Sans,Helvetica" fill="rgb(102,51,102)" font-size="13"/>
</g>
</g>
</svg>
