<?xml version="1.0" encoding="UTF-8"?><svg xmlns="http://www.w3.org/2000/svg" xmlns:xlink="http://www.w3.org/1999/xlink" width="740.0" height="480.0" viewBox="130.0 70.0 740.0 480.0" version="1.1">
<rect x="130.0" y="70.0" width="740.0" height="480.0" fill="rgb(255,255,255)"/>
<g id="s65720341">
<polygon id="s65720341" points="240.0,260.0 739.9995,260.0 739.99976,340.0 240.0,340.0 " fill="none" stroke-width="2.0" stroke="rgb(0,0,0)"/>
<g id="t65720341">
<text xml:space="preserve" x="459.99988" y="313.34766" font-family="Sans,Helvetica" fill="rgb(0,0,0)" font-size="34">MIR</text>
</g>
</g>
<g id="s194981674">
<polygon id="s194981674" points="160.0,280.0 200.0,280.0 199.99998,320.0 160.0,319.99997 " fill="none" stroke-width="0.0" stroke="rgb(0,0,0)"/>
<g id="t194981674">
<text xml:space="preserve" x="164.5" y="307.85156" font-family="Sans,Helvetica" fill="rgb(0,0,0)" font-size="20">API</text>
</g>
</g>
<g id="s128061723">
<polygon id="s128061723" points="480.0,180.0 519.9997,180.0 519.9998,220.0 480.0,219.99995 " fill="none" stroke-width="2.0" stroke="rgb(0,0,0)"/>
<g id="t128061723">
<text xml:space="preserve" x="493.4999" y="207.85156" font-family="Sans,Helvetica" fill="rgb(0,0,0)" font-size="20">C</text>
</g>
</g>
<g id="s119124664">
<polygon id="s119124664" points="560.0,180.0 660.0,180.0 659.9984,219.99997 560.0,220.0 " fill="none" stroke-width="2.0" stroke="rgb(0,0,0)"/>
<g id="t119124664">
<text xml:space="preserve" x="573.0" y="207.85156" font-family="Sans,Helvetica" fill="rgb(0,0,0)" font-size="20">LLVM IR</text>
</g>
</g>
<g id="s213211281">
<polygon id="s213211281" points="360.0,180.0 439.99936,180.0 440.0,219.99994 360.0,220.0 " fill="none" stroke-width="2.0" stroke="rgb(0,0,0)"/>
<g id="t213211281">
<text xml:space="preserve" x="372.5" y="207.0664" font-family="Sans,Helvetica" fill="rgb(0,0,0)" font-size="18">WASM</text>
</g>
</g>
<g id="s190387190">
<polygon id="s190387190" points="580.0,100.0 639.9983,100.0 640.0,140.0 580.0,140.0 " fill="none" stroke-width="2.0" stroke="rgb(0,0,0)"/>
<g id="t190387190">
<text xml:space="preserve" x="594.0" y="127.06641" font-family="Sans,Helvetica" fill="rgb(0,0,0)" font-size="18">C++</text>
</g>
</g>
<g id="s256287735">
<polygon id="s256287735" points="500.00003,100.0 559.9999,100.0 560.0,139.99995 500.00003,140.0 " fill="none" stroke-width="2.0" stroke="rgb(0,0,0)"/>
<g id="t256287735">
<text xml:space="preserve" x="512.0" y="127.06641" font-family="Sans,Helvetica" fill="rgb(0,0,0)" font-size="18">Rust</text>
</g>
</g>
<g id="s252920420">
<polygon id="s252920420" points="160.0,380.0 240.00003,380.0 239.99991,440.0 160.0,439.9999 " fill="none" stroke-width="2.0" stroke="rgb(0,0,0)"/>
<g id="t252920420">
<text xml:space="preserve" x="183.00002" y="404.58008" font-family="Sans,Helvetica" fill="rgb(0,0,0)" font-size="20">MIR</text>
<text xml:space="preserve" x="173.00002" y="431.12305" font-family="Sans,Helvetica" fill="rgb(0,0,0)" font-size="20">binary</text>
</g>
</g>
<g id="s113634509">
<polygon id="s113634509" points="260.0,380.0 320.0,380.0 319.99994,439.9993 260.0,440.0 " fill="none" stroke-width="2.0" stroke="rgb(0,0,0)"/>
<g id="t113634509">
<text xml:space="preserve" x="273.0" y="404.58008" font-family="Sans,Helvetica" fill="rgb(0,0,0)" font-size="20">MIR</text>
<text xml:space="preserve" x="272.5" y="431.12305" font-family="Sans,Helvetica" fill="rgb(0,0,0)" font-size="20">text</text>
</g>
</g>
<g id="s66746754">
<polygon id="s66746754" points="620.0,380.0 659.99927,380.0 660.0,420.0 620.0,419.99966 " fill="none" stroke-width="2.0" stroke="rgb(0,0,0)"/>
<g id="t66746754">
<text xml:space="preserve" x="633.5" y="407.85156" font-family="Sans,Helvetica" fill="rgb(0,0,0)" font-size="20">C</text>
</g>
</g>
<g id="s255297683">
<polygon id="s255297683" points="340.0,480.0 420.0,480.0 419.99988,520.0 340.0,520.0 " fill="none" stroke-width="2.0" stroke="rgb(0,0,0)"/>
<g id="t255297683">
<text xml:space="preserve" x="353.0" y="507.0664" font-family="Sans,Helvetica" fill="rgb(0,0,0)" font-size="18">x86-64</text>
</g>
</g>
<g id="s183771344">
<polygon id="s183771344" points="440.0,480.0 539.9999,480.0 540.0,520.0 440.0,520.0 " fill="none" stroke-width="2.0" stroke="rgb(0,0,0)"/>
<g id="t183771344">
<text xml:space="preserve" x="457.5" y="507.0664" font-family="Sans,Helvetica" fill="rgb(0,0,0)" font-size="18">aarch64</text>
</g>
</g>
<g id="s215058633">
<polygon id="s215058633" points="239.99998,480.0 320.0,480.0 319.99994,520.0 239.99998,520.0 " fill="none" stroke-width="2.0" stroke="rgb(0,0,0)"/>
<g id="t215058633">
<text xml:space="preserve" x="253.0" y="507.0664" font-family="Sans,Helvetica" fill="rgb(0,0,0)" font-size="18">PPC64</text>
</g>
</g>
<g id="s22719438">
<polygon id="s22719438" points="560.0,480.0 640.0,480.0 639.9992,520.0 560.0,520.0 " fill="none" stroke-width="2.0" stroke="rgb(0,0,0)"/>
<g id="t22719438">
<text xml:space="preserve" x="568.5" y="507.0664" font-family="Sans,Helvetica" fill="rgb(0,0,0)" font-size="18">MIPS64</text>
</g>
</g>
<g id="s55057135">
<polygon id="s55057135" points="159.99998,160.0 239.99994,160.0 240.0,220.0 159.99998,219.99998 " fill="none" stroke-width="2.0" stroke="rgb(0,0,0)"/>
<g id="t55057135">
<text xml:space="preserve" x="183.0" y="184.58008" font-family="Sans,Helvetica" fill="rgb(0,0,0)" font-size="20">MIR</text>
<text xml:space="preserve" x="173.0" y="211.12305" font-family="Sans,Helvetica" fill="rgb(0,0,0)" font-size="20">binary</text>
</g>
</g>
<g id="s29522428">
<polygon id="s29522428" points="260.0,160.0 320.0,160.0 320.0,219.99998 260.0,220.0 " fill="none" stroke-width="2.0" stroke="rgb(0,0,0)"/>
<g id="t29522428">
<text xml:space="preserve" x="273.0" y="184.58008" font-family="Sans,Helvetica" fill="rgb(0,0,0)" font-size="20">MIR</text>
<text xml:space="preserve" x="272.5" y="211.12305" font-family="Sans,Helvetica" fill="rgb(0,0,0)" font-size="20">text</text>
</g>
</g>
<g id="s98625669">
<polygon id="s98625669" points="640.0,120.0 679.9999,120.0 680.0,139.99997 640.0,140.0 " fill="none" stroke-width="0.0" stroke="rgb(0,0,0)"/>
<g id="t98625669"/>
</g>
<g id="s58308314">
<ellipse id="s58308314" cx="540.0" cy="410.0" rx="60.0" ry="30.0" fill="none" stroke-width="2.0" stroke="rgb(0,0,0)"/>
<g id="t58308314">
<text xml:space="preserve" x="497.5" y="417.0664" font-family="Sans,Helvetica" fill="rgb(0,0,0)" font-size="18">Interpreter</text>
</g>
</g>
<g id="s119895819">
<ellipse id="s119895819" cx="400.0" cy="410.0" rx="60.000004" ry="30.0" fill="none" stroke-width="2.0" stroke="rgb(0,0,0)"/>
<g id="t119895819">
<text xml:space="preserve" x="355.0" y="417.85156" font-family="Sans,Helvetica" fill="rgb(0,0,0)" font-size="20">Generator</text>
</g>
</g>
<g id="s45824488">
<polygon id="s45824488" points="680.0,160.0 799.9986,160.0 800.0,220.0 680.0,219.9993 " fill="none" stroke-width="2.0" stroke="rgb(0,0,0)"/>
<g id="t45824488">
<text xml:space="preserve" x="718.5" y="184.58008" font-family="Sans,Helvetica" fill="rgb(0,0,0)" font-size="20">Java</text>
<text xml:space="preserve" x="699.5" y="211.12305" font-family="Sans,Helvetica" fill="rgb(0,0,0)" font-size="20">bytecode</text>
</g>
</g>
<g id="s114067457">
<polygon id="s114067457" points="720.0,380.0 840.0,380.0 839.99805,440.0 720.0,439.99966 " fill="none" stroke-width="2.0" stroke="rgb(0,0,0)"/>
<g id="t114067457">
<text xml:space="preserve" x="758.5" y="404.58008" font-family="Sans,Helvetica" fill="rgb(0,0,0)" font-size="20">Java</text>
<text xml:space="preserve" x="739.5" y="431.12305" font-family="Sans,Helvetica" fill="rgb(0,0,0)" font-size="20">bytecode</text>
</g>
</g>
<g id="s139224742">
<polygon id="s139224742" points="700.0,100.0 780.0,100.0 779.99756,119.99996 700.0,120.0 " fill="none" stroke-width="0.0" stroke="rgb(0,0,0)"/>
<g id="t139224742"/>
</g>
<g id="s171079911">
<polygon id="s171079911" points="660.0,460.0 740.0,460.0 739.9996,499.99994 660.0,500.0 " fill="none" stroke-width="2.0" stroke="rgb(0,0,0)"/>
<g id="t171079911">
<text xml:space="preserve" x="672.5" y="487.0664" font-family="Sans,Helvetica" fill="rgb(0,0,0)" font-size="18">WASM</text>
</g>
</g>
<g id="s33426580">
<polygon id="s33426580" points="780.0,240.0 840.0,240.0 839.99994,280.0 780.0,280.0 " fill="none" stroke-width="2.0" stroke="rgb(0,0,0)"/>
<g id="t33426580">
<text xml:space="preserve" x="795.5" y="267.85156" font-family="Sans,Helvetica" fill="rgb(0,0,0)" font-size="20">CIL</text>
</g>
</g>
<g id="s259564349">
<polygon id="s259564349" points="780.0,320.0 839.99994,320.0 840.0,360.0 780.0,360.0 " fill="none" stroke-width="2.0" stroke="rgb(0,0,0)"/>
<g id="t259564349">
<text xml:space="preserve" x="795.5" y="347.85156" font-family="Sans,Helvetica" fill="rgb(0,0,0)" font-size="20">CIL</text>
</g>
</g>
<g id="la105400114">
<path id="s105400114" d="M 200.0,300.0 240.0,300.0 " fill="none" stroke-width="2.0" stroke="rgb(0,0,0)"/>
<path id="s202655520" d="M 230.8219,307.73062 240.0,300.0 230.8219,292.26938 " fill="none" stroke-width="2.0" stroke="rgb(0,0,0)"/>
<g id="t105400114">
<text xml:space="preserve" x="220.0" y="292.20605" font-family="Sans,Helvetica" fill="rgb(0,0,0)" font-size="14"/>
</g>
</g>
<g id="la265369145">
<path id="s265369145" d="M 200.00002,380.0 269.99988,340.0 " fill="none" stroke-width="2.0" stroke="rgb(0,0,0)"/>
<path id="s84818137" d="M 204.13338,368.7343 200.00002,380.0 211.8043,382.15842 " fill="none" stroke-width="2.0" stroke="rgb(0,0,0)"/>
<g id="t265369145">
<text xml:space="preserve" x="238.99994" y="365.4961" font-family="Sans,Helvetica" fill="rgb(0,0,0)" font-size="14"/>
</g>
</g>
<g id="la224107999">
<path id="s224107999" d="M 309.99988,340.0 290.0,380.0 " fill="none" stroke-width="2.0" stroke="rgb(0,0,0)"/>
<path id="s221676190" d="M 287.19006,368.33362 290.0,380.0 301.01904,375.24805 " fill="none" stroke-width="2.0" stroke="rgb(0,0,0)"/>
<g id="t224107999">
<text xml:space="preserve" x="303.99994" y="365.4961" font-family="Sans,Helvetica" fill="rgb(0,0,0)" font-size="14"/>
</g>
</g>
<g id="la8781045">
<path id="s8781045" d="M 609.9992,219.99998 589.99976,260.0 " fill="none" stroke-width="2.0" stroke="rgb(0,0,0)"/>
<path id="s3535231" d="M 587.18976,248.33365 589.99976,260.0 601.01874,255.24797 " fill="none" stroke-width="2.0" stroke="rgb(0,0,0)"/>
<g id="t8781045">
<text xml:space="preserve" x="603.9995" y="245.4961" font-family="Sans,Helvetica" fill="rgb(0,0,0)" font-size="14"/>
</g>
</g>
<g id="la33962235">
<path id="s33962235" d="M 499.9999,219.99997 489.99976,260.0 " fill="none" stroke-width="2.0" stroke="rgb(0,0,0)"/>
<path id="s231126348" d="M 484.726,249.22096 489.99976,260.0 499.7256,252.97092 " fill="none" stroke-width="2.0" stroke="rgb(0,0,0)"/>
<g id="t33962235">
<text xml:space="preserve" x="498.99982" y="245.49608" font-family="Sans,Helvetica" fill="rgb(0,0,0)" font-size="14"/>
</g>
</g>
<g id="la193360753">
<path id="s193360753" d="M 400.0,219.99997 409.99976,260.0 " fill="none" stroke-width="2.0" stroke="rgb(0,0,0)"/>
<path id="s228624789" d="M 400.274,252.97083 409.99976,260.0 415.2736,249.22101 " fill="none" stroke-width="2.0" stroke="rgb(0,0,0)"/>
<g id="t193360753">
<text xml:space="preserve" x="408.99988" y="245.49608" font-family="Sans,Helvetica" fill="rgb(0,0,0)" font-size="14"/>
</g>
</g>
<g id="la134726340">
<path id="s134726340" d="M 439.99966,199.99998 480.0,199.99997 " fill="none" stroke-width="2.0" stroke="rgb(0,0,0)"/>
<path id="s171594871" d="M 449.17776,192.26936 439.99966,199.99998 449.17776,207.73059 " fill="none" stroke-width="2.0" stroke="rgb(0,0,0)"/>
<g id="t134726340">
<text xml:space="preserve" x="459.99982" y="192.20604" font-family="Sans,Helvetica" fill="rgb(0,0,0)" font-size="14"/>
</g>
</g>
<g id="la37544162">
<path id="s37544162" d="M 519.99976,200.0 560.0,200.00003 " fill="none" stroke-width="2.0" stroke="rgb(0,0,0)"/>
<path id="s42397317" d="M 550.8219,207.73064 560.0,200.00003 550.8219,192.26941 " fill="none" stroke-width="2.0" stroke="rgb(0,0,0)"/>
<g id="t37544162">
<text xml:space="preserve" x="539.9999" y="192.20607" font-family="Sans,Helvetica" fill="rgb(0,0,0)" font-size="14"/>
</g>
</g>
<g id="la260994759">
<path id="s260994759" d="M 290.0,220.0 309.99976,260.0 " fill="none" stroke-width="2.0" stroke="rgb(0,0,0)"/>
<path id="s92547754" d="M 298.98074,255.24803 309.99976,260.0 312.80972,248.33363 " fill="none" stroke-width="2.0" stroke="rgb(0,0,0)"/>
<g id="t260994759">
<text xml:space="preserve" x="303.99988" y="245.4961" font-family="Sans,Helvetica" fill="rgb(0,0,0)" font-size="14"/>
</g>
</g>
<g id="la11306013">
<path id="s11306013" d="M 200.0,220.0 269.99976,260.0 " fill="none" stroke-width="2.0" stroke="rgb(0,0,0)"/>
<path id="s130164379" d="M 258.19547,262.15842 269.99976,260.0 265.8664,248.73433 " fill="none" stroke-width="2.0" stroke="rgb(0,0,0)"/>
<g id="t11306013">
<text xml:space="preserve" x="238.99988" y="245.4961" font-family="Sans,Helvetica" fill="rgb(0,0,0)" font-size="14"/>
</g>
</g>
<g id="la101860633">
<path id="s101860633" d="M 529.9999,340.0 540.0,380.0 " fill="none" stroke-width="2.0" stroke="rgb(0,0,0)"/>
<path id="s206559800" d="M 530.2742,372.97092 540.0,380.0 545.27374,369.22098 " fill="none" stroke-width="2.0" stroke="rgb(0,0,0)"/>
<g id="t101860633">
<text xml:space="preserve" x="538.99994" y="365.4961" font-family="Sans,Helvetica" fill="rgb(0,0,0)" font-size="14"/>
</g>
</g>
<g id="la180189119">
<path id="s180189119" d="M 280.0,480.0 357.57358,431.2132 " fill="none" stroke-width="2.0" stroke="rgb(0,0,0)"/>
<path id="s196299111" d="M 283.65375,468.56976 280.0,480.0 291.88495,481.6578 " fill="none" stroke-width="2.0" stroke="rgb(0,0,0)"/>
<g id="t180189119">
<text xml:space="preserve" x="322.78677" y="461.1027" font-family="Sans,Helvetica" fill="rgb(0,0,0)" font-size="14"/>
</g>
</g>
<g id="la175708629">
<path id="s175708629" d="M 380.0,480.0 400.0,440.0 " fill="none" stroke-width="2.0" stroke="rgb(0,0,0)"/>
<path id="s202280240" d="M 377.1901,468.33362 380.0,480.0 391.01904,475.24808 " fill="none" stroke-width="2.0" stroke="rgb(0,0,0)"/>
<g id="t175708629">
<text xml:space="preserve" x="394.0" y="465.4961" font-family="Sans,Helvetica" fill="rgb(0,0,0)" font-size="14"/>
</g>
</g>
<g id="la198955227">
<path id="s198955227" d="M 422.961,437.71637 489.99994,480.0 " fill="none" stroke-width="2.0" stroke="rgb(0,0,0)"/>
<path id="s72805801" d="M 478.11285,481.6423 489.99994,480.0 486.3611,468.565 " fill="none" stroke-width="2.0" stroke="rgb(0,0,0)"/>
<g id="t198955227">
<text xml:space="preserve" x="460.48047" y="464.35428" font-family="Sans,Helvetica" fill="rgb(0,0,0)" font-size="14"/>
</g>
</g>
<g id="la222199377">
<path id="s222199377" d="M 442.42642,431.2132 600.0,480.0 " fill="none" stroke-width="2.0" stroke="rgb(0,0,0)"/>
<path id="s234467762" d="M 588.9461,484.67023 600.0,480.0 593.5189,469.90073 " fill="none" stroke-width="2.0" stroke="rgb(0,0,0)"/>
<g id="t222199377">
<text xml:space="preserve" x="521.2132" y="447.81265" font-family="Sans,Helvetica" fill="rgb(0,0,0)" font-size="14"/>
</g>
</g>
<g id="la196911031">
<path id="s196911031" d="M 629.9999,340.0 639.99963,380.0 " fill="none" stroke-width="2.0" stroke="rgb(0,0,0)"/>
<path id="s30222865" d="M 630.27386,372.97083 639.99963,380.0 645.2735,369.221 " fill="none" stroke-width="2.0" stroke="rgb(0,0,0)"/>
<g id="t196911031">
<text xml:space="preserve" x="638.99976" y="365.4961" font-family="Sans,Helvetica" fill="rgb(0,0,0)" font-size="14"/>
</g>
</g>
<g id="la203140749">
<path id="s203140749" d="M 709.9999,340.0 780.0,380.0 " fill="none" stroke-width="2.0" stroke="rgb(0,0,0)"/>
<path id="s22169462" d="M 768.19574,382.15845 780.0,380.0 775.86664,368.73434 " fill="none" stroke-width="2.0" stroke="rgb(0,0,0)"/>
<g id="t203140749">
<text xml:space="preserve" x="748.99994" y="365.4961" font-family="Sans,Helvetica" fill="rgb(0,0,0)" font-size="14"/>
</g>
</g>
<g id="la24215635">
<path id="s24215635" d="M 740.0,219.99965 709.99976,260.0 " fill="none" stroke-width="2.0" stroke="rgb(0,0,0)"/>
<path id="s219320695" d="M 709.32214,248.01915 709.99976,260.0 721.6911,257.29587 " fill="none" stroke-width="2.0" stroke="rgb(0,0,0)"/>
<g id="t24215635">
<text xml:space="preserve" x="728.9999" y="245.49591" font-family="Sans,Helvetica" fill="rgb(0,0,0)" font-size="14"/>
</g>
</g>
<g id="la220309129">
<path id="s220309129" d="M 609.99976,140.0 610.0,180.0 " fill="none" stroke-width="2.0" stroke="rgb(0,0,0)"/>
<path id="s183993017" d="M 602.26935,170.82195 610.0,180.0 617.7305,170.82184 " fill="none" stroke-width="2.0" stroke="rgb(0,0,0)"/>
<g id="t220309129">
<text xml:space="preserve" x="613.9999" y="165.4961" font-family="Sans,Helvetica" fill="rgb(0,0,0)" font-size="14"/>
</g>
</g>
<g id="la160026287">
<path id="s160026287" d="M 530.0,139.99997 570.0,180.0 " fill="none" stroke-width="2.0" stroke="rgb(0,0,0)"/>
<path id="s122246733" d="M 558.0437,178.97646 570.0,180.0 568.9765,168.04373 " fill="none" stroke-width="2.0" stroke="rgb(0,0,0)"/>
<g id="t160026287">
<text xml:space="preserve" x="554.0" y="165.49608" font-family="Sans,Helvetica" fill="rgb(0,0,0)" font-size="14"/>
</g>
</g>
<g id="la209003077">
<path id="s209003077" d="M 739.9988,119.999985 739.99927,160.0 " fill="none" stroke-width="2.0" stroke="rgb(0,0,0)"/>
<path id="s252929282" d="M 732.26855,150.82199 739.99927,160.0 747.7298,150.8218 " fill="none" stroke-width="2.0" stroke="rgb(0,0,0)"/>
<g id="t209003077">
<text xml:space="preserve" x="743.999" y="145.4961" font-family="Sans,Helvetica" fill="rgb(0,0,0)" font-size="14"/>
</g>
</g>
<g id="la3057355">
<path id="s3057355" d="M 669.9999,340.0 700.0,460.0 " fill="none" stroke-width="2.0" stroke="rgb(0,0,0)"/>
<path id="s247036454" d="M 690.2742,452.9709 700.0,460.0 705.27374,449.22098 " fill="none" stroke-width="2.0" stroke="rgb(0,0,0)"/>
<g id="t3057355">
<text xml:space="preserve" x="688.99994" y="405.4961" font-family="Sans,Helvetica" fill="rgb(0,0,0)" font-size="14"/>
</g>
</g>
<g id="la164273601">
<path id="s164273601" d="M 739.9997,320.0 780.0,340.0 " fill="none" stroke-width="2.0" stroke="rgb(0,0,0)"/>
<path id="s127190631" d="M 768.3336,342.80994 780.0,340.0 775.24805,328.98096 " fill="none" stroke-width="2.0" stroke="rgb(0,0,0)"/>
<g id="t164273601">
<text xml:space="preserve" x="763.9999" y="335.4961" font-family="Sans,Helvetica" fill="rgb(0,0,0)" font-size="14"/>
</g>
</g>
<g id="la16704679">
<path id="s16704679" d="M 739.9996,280.0 780.0,260.0 " fill="none" stroke-width="2.0" stroke="rgb(0,0,0)"/>
<path id="s158731284" d="M 744.7515,268.981 739.9996,280.0 751.66595,282.80994 " fill="none" stroke-width="2.0" stroke="rgb(0,0,0)"/>
<g id="t16704679">
<text xml:space="preserve" x="763.99976" y="275.4961" font-family="Sans,Helvetica" fill="rgb(0,0,0)" font-size="14"/>
</g>
</g>
<g id="la81506579">
<path id="s81506579" d="M 400.0,380.0 409.99988,340.0 " fill="none" stroke-width="2.0" stroke="rgb(0,0,0)"/>
<path id="s174681277" d="M 394.7262,369.221 400.0,380.0 409.7258,372.97086 " fill="none" stroke-width="2.0" stroke="rgb(0,0,0)"/>
</g>
</svg>
