<?xml version="1.0" encoding="UTF-8"?><svg xmlns="http://www.w3.org/2000/svg" xmlns:xlink="http://www.w3.org/1999/xlink" width="740.0" height="500.0" viewBox="130.0 70.0 740.0 500.0" version="1.1">
<rect x="130.0" y="70.0" width="740.0" height="500.0" fill="rgb(255,255,255)"/>
<g id="s135906634">
<polygon id="s135906634" points="240.0,260.0 739.9995,260.0 739.99976,340.0 240.0,340.0 " fill="rgb(217,204,140)" stroke-width="2.0" stroke="rgb(102,51,102)"/>
<g id="t135906634">
<text xml:space="preserve" x="459.99988" y="313.34766" font-family="Sans,Helvetica" fill="rgb(102,51,102)" font-size="34">MIR</text>
</g>
</g>
<g id="s240237755">
<polygon id="s240237755" points="160.0,280.0 200.0,280.0 199.99998,320.0 160.0,319.99997 " fill="none" stroke-width="0.0" stroke="rgb(102,51,102)"/>
<g id="t240237755">
<text xml:space="preserve" x="164.5" y="307.85156" font-family="Sans,Helvetica" fill="rgb(102,51,102)" font-size="20">API</text>
</g>
</g>
<g id="s66094552">
<polygon id="s66094552" points="480.0,180.0 519.9997,180.0 519.9998,220.0 480.0,219.99995 " fill="rgb(217,204,140)" stroke-width="2.0" stroke="rgb(102,51,102)"/>
<g id="t66094552">
<text xml:space="preserve" x="493.4999" y="207.85156" font-family="Sans,Helvetica" fill="rgb(102,51,102)" font-size="20">C</text>
</g>
</g>
<g id="s54590769">
<polygon id="s54590769" points="560.0,180.0 660.0,180.0 659.9984,219.99997 560.0,220.0 " fill="rgb(217,204,140)" stroke-width="2.0" stroke="rgb(102,51,102)"/>
<g id="t54590769">
<text xml:space="preserve" x="573.0" y="207.85156" font-family="Sans,Helvetica" fill="rgb(102,51,102)" font-size="20">LLVM IR</text>
</g>
</g>
<g id="s79096854">
<polygon id="s79096854" points="360.0,180.0 439.99936,180.0 440.0,219.99994 360.0,220.0 " fill="rgb(217,204,140)" stroke-width="2.0" stroke="rgb(102,51,102)"/>
<g id="t79096854">
<text xml:space="preserve" x="372.5" y="207.0664" font-family="Sans,Helvetica" fill="rgb(102,51,102)" font-size="18">WASM</text>
</g>
</g>
<g id="s215312791">
<polygon id="s215312791" points="580.0,100.0 639.9983,100.0 640.0,140.0 580.0,140.0 " fill="rgb(217,204,140)" stroke-width="2.0" stroke="rgb(102,51,102)"/>
<g id="t215312791">
<text xml:space="preserve" x="594.0" y="127.06641" font-family="Sans,Helvetica" fill="rgb(102,51,102)" font-size="18">C++</text>
</g>
</g>
<g id="s248784772">
<polygon id="s248784772" points="500.00003,100.0 559.9999,100.0 560.0,139.99995 500.00003,140.0 " fill="rgb(217,204,140)" stroke-width="2.0" stroke="rgb(102,51,102)"/>
<g id="t248784772">
<text xml:space="preserve" x="512.0" y="127.06641" font-family="Sans,Helvetica" fill="rgb(102,51,102)" font-size="18">Rust</text>
</g>
</g>
<g id="s142031725">
<polygon id="s142031725" points="160.0,380.0 240.00003,380.0 239.99991,440.0 160.0,439.9999 " fill="rgb(217,204,140)" stroke-width="2.0" stroke="rgb(102,51,102)"/>
<g id="t142031725">
<text xml:space="preserve" x="183.00002" y="404.58008" font-family="Sans,Helvetica" fill="rgb(102,51,102)" font-size="20">MIR</text>
<text xml:space="preserve" x="173.00002" y="431.12305" font-family="Sans,Helvetica" fill="rgb(102,51,102)" font-size="20">binary</text>
</g>
</g>
<g id="s36549538">
<polygon id="s36549538" points="260.0,380.0 320.0,380.0 319.99994,439.9993 260.0,440.0 " fill="rgb(217,204,140)" stroke-width="2.0" stroke="rgb(102,51,102)"/>
<g id="t36549538">
<text xml:space="preserve" x="273.0" y="404.58008" font-family="Sans,Helvetica" fill="rgb(102,51,102)" font-size="20">MIR</text>
<text xml:space="preserve" x="272.5" y="431.12305" font-family="Sans,Helvetica" fill="rgb(102,51,102)" font-size="20">text</text>
</g>
</g>
<g id="s192743475">
<polygon id="s192743475" points="620.0,380.0 659.99927,380.0 660.0,420.0 620.0,419.99966 " fill="rgb(217,204,140)" stroke-width="2.0" stroke="rgb(102,51,102)"/>
<g id="t192743475">
<text xml:space="preserve" x="633.5" y="407.85156" font-family="Sans,Helvetica" fill="rgb(102,51,102)" font-size="20">C</text>
</g>
</g>
<g id="s120469488">
<polygon id="s120469488" points="340.0,480.0 420.0,480.0 419.9999,540.0 340.0,540.0 " fill="rgb(217,204,140)" stroke-width="2.0" stroke="rgb(102,51,102)"/>
<g id="t120469488">
<text xml:space="preserve" x="353.0" y="517.0664" font-family="Sans,Helvetica" fill="rgb(102,51,102)" font-size="18">x86-64</text>
</g>
</g>
<g id="s123281769">
<polygon id="s123281769" points="440.0,480.0 539.9999,480.0 540.0,540.0 440.0,540.0 " fill="rgb(217,204,140)" stroke-width="2.0" stroke="rgb(102,51,102)"/>
<g id="t123281769">
<text xml:space="preserve" x="457.5" y="517.0664" font-family="Sans,Helvetica" fill="rgb(102,51,102)" font-size="18">aarch64</text>
</g>
</g>
<g id="s156723182">
<polygon id="s156723182" points="239.99998,480.0 319.99997,480.0 319.99997,540.0 239.99998,540.0 " fill="rgb(217,204,140)" stroke-width="2.0" stroke="rgb(102,51,102)"/>
<g id="t156723182">
<text xml:space="preserve" x="252.99997" y="505.12207" font-family="Sans,Helvetica" fill="rgb(102,51,102)" font-size="18">PPC64</text>
<text xml:space="preserve" x="255.49997" y="529.01074" font-family="Sans,Helvetica" fill="rgb(102,51,102)" font-size="18">BE/LE</text>
</g>
</g>
<g id="s200668303">
<polygon id="s200668303" points="560.0,480.0 640.0,480.0 639.9992,540.0 560.0,540.0 " fill="rgb(217,204,140)" stroke-width="2.0" stroke="rgb(102,51,102)"/>
<g id="t200668303">
<text xml:space="preserve" x="568.5" y="517.0664" font-family="Sans,Helvetica" fill="rgb(102,51,102)" font-size="18">MIPS64</text>
</g>
</g>
<g id="s232186652">
<polygon id="s232186652" points="159.99998,160.0 239.99994,160.0 240.0,220.0 159.99998,219.99998 " fill="rgb(217,204,140)" stroke-width="2.0" stroke="rgb(102,51,102)"/>
<g id="t232186652">
<text xml:space="preserve" x="183.0" y="184.58008" font-family="Sans,Helvetica" fill="rgb(102,51,102)" font-size="20">MIR</text>
<text xml:space="preserve" x="173.0" y="211.12305" font-family="Sans,Helvetica" fill="rgb(102,51,102)" font-size="20">binary</text>
</g>
</g>
<g id="s22637349">
<polygon id="s22637349" points="260.0,160.0 320.0,160.0 320.0,219.99998 260.0,220.0 " fill="rgb(217,204,140)" stroke-width="2.0" stroke="rgb(102,51,102)"/>
<g id="t22637349">
<text xml:space="preserve" x="273.0" y="184.58008" font-family="Sans,Helvetica" fill="rgb(102,51,102)" font-size="20">MIR</text>
<text xml:space="preserve" x="272.5" y="211.12305" font-family="Sans,Helvetica" fill="rgb(102,51,102)" font-size="20">text</text>
</g>
</g>
<g id="s89527546">
<ellipse id="s89527546" cx="540.0" cy="410.0" rx="60.0" ry="30.0" fill="rgb(217,204,140)" stroke-width="2.0" stroke="rgb(102,51,102)"/>
<g id="t89527546">
<text xml:space="preserve" x="497.5" y="417.0664" font-family="Sans,Helvetica" fill="rgb(102,51,102)" font-size="18">Interpreter</text>
</g>
</g>
<g id="s57100971">
<ellipse id="s57100971" cx="400.0" cy="410.0" rx="60.000004" ry="30.0" fill="rgb(217,204,140)" stroke-width="2.0" stroke="rgb(102,51,102)"/>
<g id="t57100971">
<text xml:space="preserve" x="355.0" y="417.85156" font-family="Sans,Helvetica" fill="rgb(102,51,102)" font-size="20">Generator</text>
</g>
</g>
<g id="s117249288">
<polygon id="s117249288" points="680.0,160.0 799.9986,160.0 800.0,220.0 680.0,219.9993 " fill="rgb(217,204,140)" stroke-width="2.0" stroke="rgb(102,51,102)"/>
<g id="t117249288">
<text xml:space="preserve" x="718.5" y="184.58008" font-family="Sans,Helvetica" fill="rgb(102,51,102)" font-size="20">Java</text>
<text xml:space="preserve" x="699.5" y="211.12305" font-family="Sans,Helvetica" fill="rgb(102,51,102)" font-size="20">bytecode</text>
</g>
</g>
<g id="s39490721">
<polygon id="s39490721" points="720.0,380.0 840.0,380.0 839.99805,440.0 720.0,439.99966 " fill="rgb(217,204,140)" stroke-width="2.0" stroke="rgb(102,51,102)"/>
<g id="t39490721">
<text xml:space="preserve" x="758.5" y="404.58008" font-family="Sans,Helvetica" fill="rgb(102,51,102)" font-size="20">Java</text>
<text xml:space="preserve" x="739.5" y="431.12305" font-family="Sans,Helvetica" fill="rgb(102,51,102)" font-size="20">bytecode</text>
</g>
</g>
<g id="s257984198">
<polygon id="s257984198" points="700.0,100.0 780.0,100.0 779.99756,119.99996 700.0,120.0 " fill="none" stroke-width="0.0" stroke="rgb(102,51,102)"/>
<g id="t257984198"/>
</g>
<g id="s139323015">
<polygon id="s139323015" points="660.0,460.0 740.0,460.0 739.9996,499.99994 660.0,500.0 " fill="rgb(217,204,140)" stroke-width="2.0" stroke="rgb(102,51,102)"/>
<g id="t139323015">
<text xml:space="preserve" x="672.5" y="487.0664" font-family="Sans,Helvetica" fill="rgb(102,51,102)" font-size="18">WASM</text>
</g>
</g>
<g id="s148011444">
<polygon id="s148011444" points="780.0,240.0 840.0,240.0 839.99994,280.0 780.0,280.0 " fill="rgb(217,204,140)" stroke-width="2.0" stroke="rgb(102,51,102)"/>
<g id="t148011444">
<text xml:space="preserve" x="795.5" y="267.85156" font-family="Sans,Helvetica" fill="rgb(102,51,102)" font-size="20">CIL</text>
</g>
</g>
<g id="s132831709">
<polygon id="s132831709" points="780.0,320.0 839.99994,320.0 840.0,360.0 780.0,360.0 " fill="rgb(217,204,140)" stroke-width="2.0" stroke="rgb(102,51,102)"/>
<g id="t132831709">
<text xml:space="preserve" x="795.5" y="347.85156" font-family="Sans,Helvetica" fill="rgb(102,51,102)" font-size="20">CIL</text>
</g>
</g>
<g id="la189679954">
<path id="s189679954" d="M 200.0,300.0 240.0,300.0 " fill="none" stroke-width="2.0" stroke="rgb(102,51,102)"/>
<path id="s27880921" d="M 230.8219,307.73062 240.0,300.0 230.8219,292.26938 " fill="none" stroke-width="2.0" stroke="rgb(102,51,102)"/>
<g id="t189679954">
<text xml:space="preserve" x="220.0" y="292.20605" font-family="Sans,Helvetica" fill="rgb(102,51,102)" font-size="14"/>
</g>
</g>
<g id="la35152931">
<path id="s35152931" d="M 200.00002,380.0 269.99988,340.0 " fill="none" stroke-width="2.0" stroke="rgb(102,51,102)"/>
<path id="s57807774" d="M 204.13338,368.7343 200.00002,380.0 211.8043,382.15842 " fill="none" stroke-width="2.0" stroke="rgb(102,51,102)"/>
<g id="t35152931">
<text xml:space="preserve" x="238.99994" y="365.4961" font-family="Sans,Helvetica" fill="rgb(102,51,102)" font-size="14"/>
</g>
</g>
<g id="la150437152">
<path id="s150437152" d="M 309.99988,340.0 290.0,380.0 " fill="none" stroke-width="2.0" stroke="rgb(102,51,102)"/>
<path id="s62959231" d="M 287.19006,368.33362 290.0,380.0 301.01904,375.24805 " fill="none" stroke-width="2.0" stroke="rgb(102,51,102)"/>
<g id="t150437152">
<text xml:space="preserve" x="303.99994" y="365.4961" font-family="Sans,Helvetica" fill="rgb(102,51,102)" font-size="14"/>
</g>
</g>
<g id="la4208345">
<path id="s4208345" d="M 609.9992,219.99998 589.99976,260.0 " fill="none" stroke-width="2.0" stroke="rgb(102,51,102)"/>
<path id="s57617996" d="M 587.18976,248.33365 589.99976,260.0 601.01874,255.24797 " fill="none" stroke-width="2.0" stroke="rgb(102,51,102)"/>
<g id="t4208345">
<text xml:space="preserve" x="603.9995" y="245.4961" font-family="Sans,Helvetica" fill="rgb(102,51,102)" font-size="14"/>
</g>
</g>
<g id="la14919838">
<path id="s14919838" d="M 499.9999,219.99997 489.99976,260.0 " fill="none" stroke-width="2.0" stroke="rgb(102,51,102)"/>
<path id="s20582037" d="M 484.726,249.22096 489.99976,260.0 499.7256,252.97092 " fill="none" stroke-width="2.0" stroke="rgb(102,51,102)"/>
<g id="t14919838">
<text xml:space="preserve" x="498.99982" y="245.49608" font-family="Sans,Helvetica" fill="rgb(102,51,102)" font-size="14"/>
</g>
</g>
<g id="la109256575">
<path id="s109256575" d="M 400.0,219.99997 409.99976,260.0 " fill="none" stroke-width="2.0" stroke="rgb(102,51,102)"/>
<path id="s40356778" d="M 400.274,252.97083 409.99976,260.0 415.2736,249.22101 " fill="none" stroke-width="2.0" stroke="rgb(102,51,102)"/>
<g id="t109256575">
<text xml:space="preserve" x="408.99988" y="245.49608" font-family="Sans,Helvetica" fill="rgb(102,51,102)" font-size="14"/>
</g>
</g>
<g id="la78072652">
<path id="s78072652" d="M 439.99966,199.99998 480.0,199.99997 " fill="none" stroke-width="2.0" stroke="rgb(102,51,102)"/>
<path id="s96187291" d="M 449.17776,192.26936 439.99966,199.99998 449.17776,207.73059 " fill="none" stroke-width="2.0" stroke="rgb(102,51,102)"/>
<g id="t78072652">
<text xml:space="preserve" x="459.99982" y="192.20604" font-family="Sans,Helvetica" fill="rgb(102,51,102)" font-size="14"/>
</g>
</g>
<g id="la217343893">
<path id="s217343893" d="M 519.99976,200.0 560.0,200.00003 " fill="none" stroke-width="2.0" stroke="rgb(102,51,102)"/>
<path id="s100269841" d="M 550.8219,207.73064 560.0,200.00003 550.8219,192.26941 " fill="none" stroke-width="2.0" stroke="rgb(102,51,102)"/>
<g id="t217343893">
<text xml:space="preserve" x="539.9999" y="192.20607" font-family="Sans,Helvetica" fill="rgb(102,51,102)" font-size="14"/>
</g>
</g>
<g id="la232632490">
<path id="s232632490" d="M 290.0,220.0 309.99976,260.0 " fill="none" stroke-width="2.0" stroke="rgb(102,51,102)"/>
<path id="s137658185" d="M 298.98074,255.24803 309.99976,260.0 312.80972,248.33363 " fill="none" stroke-width="2.0" stroke="rgb(102,51,102)"/>
<g id="t232632490">
<text xml:space="preserve" x="303.99988" y="245.4961" font-family="Sans,Helvetica" fill="rgb(102,51,102)" font-size="14"/>
</g>
</g>
<g id="la11809947">
<path id="s11809947" d="M 200.0,220.0 269.99976,260.0 " fill="none" stroke-width="2.0" stroke="rgb(102,51,102)"/>
<path id="s144220238" d="M 258.19547,262.15842 269.99976,260.0 265.8664,248.73433 " fill="none" stroke-width="2.0" stroke="rgb(102,51,102)"/>
<g id="t11809947">
<text xml:space="preserve" x="238.99988" y="245.4961" font-family="Sans,Helvetica" fill="rgb(102,51,102)" font-size="14"/>
</g>
</g>
<g id="la262393912">
<path id="s262393912" d="M 529.9999,340.0 540.0,380.0 " fill="none" stroke-width="2.0" stroke="rgb(102,51,102)"/>
<path id="s69743983" d="M 530.2742,372.97092 540.0,380.0 545.27374,369.22098 " fill="none" stroke-width="2.0" stroke="rgb(102,51,102)"/>
<g id="t262393912">
<text xml:space="preserve" x="538.99994" y="365.4961" font-family="Sans,Helvetica" fill="rgb(102,51,102)" font-size="14"/>
</g>
</g>
<g id="la92334097">
<path id="s92334097" d="M 280.0,480.0 357.57358,431.2132 " fill="none" stroke-width="2.0" stroke="rgb(102,51,102)"/>
<path id="s138461820" d="M 283.65375,468.56976 280.0,480.0 291.88495,481.6578 " fill="none" stroke-width="2.0" stroke="rgb(102,51,102)"/>
<g id="t92334097">
<text xml:space="preserve" x="322.78677" y="461.1027" font-family="Sans,Helvetica" fill="rgb(102,51,102)" font-size="14"/>
</g>
</g>
<g id="la213790070">
<path id="s213790070" d="M 379.99994,480.0 400.0,440.0 " fill="none" stroke-width="2.0" stroke="rgb(102,51,102)"/>
<path id="s113035013" d="M 377.19006,468.33362 379.99994,480.0 391.01898,475.2481 " fill="none" stroke-width="2.0" stroke="rgb(102,51,102)"/>
<g id="t213790070">
<text xml:space="preserve" x="393.99997" y="465.4961" font-family="Sans,Helvetica" fill="rgb(102,51,102)" font-size="14"/>
</g>
</g>
<g id="la236420983">
<path id="s236420983" d="M 422.961,437.71637 489.99994,480.0 " fill="none" stroke-width="2.0" stroke="rgb(102,51,102)"/>
<path id="s98726746" d="M 478.11285,481.6423 489.99994,480.0 486.3611,468.565 " fill="none" stroke-width="2.0" stroke="rgb(102,51,102)"/>
<g id="t236420983">
<text xml:space="preserve" x="460.48047" y="464.35428" font-family="Sans,Helvetica" fill="rgb(102,51,102)" font-size="14"/>
</g>
</g>
<g id="la98678756">
<path id="s98678756" d="M 442.42642,431.2132 600.0,480.0 " fill="none" stroke-width="2.0" stroke="rgb(102,51,102)"/>
<path id="s36485515" d="M 588.9461,484.67023 600.0,480.0 593.5189,469.90073 " fill="none" stroke-width="2.0" stroke="rgb(102,51,102)"/>
<g id="t98678756">
<text xml:space="preserve" x="521.2132" y="447.81265" font-family="Sans,Helvetica" fill="rgb(102,51,102)" font-size="14"/>
</g>
</g>
<g id="la91944013">
<path id="s91944013" d="M 629.9999,340.0 639.99963,380.0 " fill="none" stroke-width="2.0" stroke="rgb(102,51,102)"/>
<path id="s169183848" d="M 630.27386,372.97083 639.99963,380.0 645.2735,369.221 " fill="none" stroke-width="2.0" stroke="rgb(102,51,102)"/>
<g id="t91944013">
<text xml:space="preserve" x="638.99976" y="365.4961" font-family="Sans,Helvetica" fill="rgb(102,51,102)" font-size="14"/>
</g>
</g>
<g id="la207072002">
<path id="s207072002" d="M 709.9999,340.0 780.0,380.0 " fill="none" stroke-width="2.0" stroke="rgb(102,51,102)"/>
<path id="s264752769" d="M 768.19574,382.15845 780.0,380.0 775.86664,368.73434 " fill="none" stroke-width="2.0" stroke="rgb(102,51,102)"/>
<g id="t207072002">
<text xml:space="preserve" x="748.99994" y="365.4961" font-family="Sans,Helvetica" fill="rgb(102,51,102)" font-size="14"/>
</g>
</g>
<g id="la217750547">
<path id="s217750547" d="M 740.0,219.99965 709.99976,260.0 " fill="none" stroke-width="2.0" stroke="rgb(102,51,102)"/>
<path id="s29649702" d="M 709.32214,248.01915 709.99976,260.0 721.6911,257.29587 " fill="none" stroke-width="2.0" stroke="rgb(102,51,102)"/>
<g id="t217750547">
<text xml:space="preserve" x="728.9999" y="245.49591" font-family="Sans,Helvetica" fill="rgb(102,51,102)" font-size="14"/>
</g>
</g>
<g id="la200568400">
<path id="s200568400" d="M 609.99976,140.0 610.0,180.0 " fill="none" stroke-width="2.0" stroke="rgb(102,51,102)"/>
<path id="s246113127" d="M 602.26935,170.82195 610.0,180.0 617.7305,170.82184 " fill="none" stroke-width="2.0" stroke="rgb(102,51,102)"/>
<g id="t200568400">
<text xml:space="preserve" x="613.9999" y="165.4961" font-family="Sans,Helvetica" fill="rgb(102,51,102)" font-size="14"/>
</g>
</g>
<g id="la42960969">
<path id="s42960969" d="M 530.0,139.99997 570.0,180.0 " fill="none" stroke-width="2.0" stroke="rgb(102,51,102)"/>
<path id="s267183380" d="M 558.0437,178.97646 570.0,180.0 568.9765,168.04373 " fill="none" stroke-width="2.0" stroke="rgb(102,51,102)"/>
<g id="t42960969">
<text xml:space="preserve" x="554.0" y="165.49608" font-family="Sans,Helvetica" fill="rgb(102,51,102)" font-size="14"/>
</g>
</g>
<g id="la68777294">
<path id="s68777294" d="M 739.9988,119.999985 739.99927,160.0 " fill="none" stroke-width="2.0" stroke="rgb(102,51,102)"/>
<path id="s119656893" d="M 732.26855,150.82199 739.99927,160.0 747.7298,150.8218 " fill="none" stroke-width="2.0" stroke="rgb(102,51,102)"/>
<g id="t68777294">
<text xml:space="preserve" x="743.999" y="145.4961" font-family="Sans,Helvetica" fill="rgb(102,51,102)" font-size="14"/>
</g>
</g>
<g id="la149481071">
<path id="s149481071" d="M 669.9999,340.0 700.0,460.0 " fill="none" stroke-width="2.0" stroke="rgb(102,51,102)"/>
<path id="s209458098" d="M 690.2742,452.9709 700.0,460.0 705.27374,449.22098 " fill="none" stroke-width="2.0" stroke="rgb(102,51,102)"/>
<g id="t149481071">
<text xml:space="preserve" x="688.99994" y="405.4961" font-family="Sans,Helvetica" fill="rgb(102,51,102)" font-size="14"/>
</g>
</g>
<g id="la171581308">
<path id="s171581308" d="M 739.9997,320.0 780.0,340.0 " fill="none" stroke-width="2.0" stroke="rgb(102,51,102)"/>
<path id="s209768195" d="M 768.3336,342.80994 780.0,340.0 775.24805,328.98096 " fill="none" stroke-width="2.0" stroke="rgb(102,51,102)"/>
<g id="t171581308">
<text xml:space="preserve" x="763.9999" y="335.4961" font-family="Sans,Helvetica" fill="rgb(102,51,102)" font-size="14"/>
</g>
</g>
<g id="la104816645">
<path id="s104816645" d="M 739.9996,280.0 780.0,260.0 " fill="none" stroke-width="2.0" stroke="rgb(102,51,102)"/>
<path id="s20790912" d="M 744.7515,268.981 739.9996,280.0 751.66595,282.80994 " fill="none" stroke-width="2.0" stroke="rgb(102,51,102)"/>
<g id="t104816645">
<text xml:space="preserve" x="763.99976" y="275.4961" font-family="Sans,Helvetica" fill="rgb(102,51,102)" font-size="14"/>
</g>
</g>
<g id="la18585690">
<path id="s18585690" d="M 400.0,380.0 409.99988,340.0 " fill="none" stroke-width="2.0" stroke="rgb(102,51,102)"/>
<path id="s119459001" d="M 394.7262,369.221 400.0,380.0 409.7258,372.97086 " fill="none" stroke-width="2.0" stroke="rgb(102,51,102)"/>
<g id="t18585690">
<text xml:space="preserve" x="408.99994" y="365.10352" font-family="Sans,Helvetica" fill="rgb(102,51,102)" font-size="13"/>
</g>
</g>
</svg>
