<?xml version="1.0" encoding="UTF-8"?><svg xmlns="http://www.w3.org/2000/svg" xmlns:xlink="http://www.w3.org/1999/xlink" width="1020.0" height="520.0" viewBox="130.0 70.0 1020.0 520.0" version="1.1">
<rect x="130.0" y="70.0" width="1020.0" height="520.0" fill="rgb(255,255,255)"/>
<g id="s131903519">
<polygon id="s131903519" points="240.0,260.0 999.99976,260.0 1000.00006,339.99982 240.0,340.0 " fill="rgb(217,204,140)" stroke-width="2.0" stroke="rgb(102,51,102)"/>
<g id="t131903519">
<text xml:space="preserve" x="590.0" y="313.34766" font-family="Sans,Helvetica" fill="rgb(102,51,102)" font-size="34">MIR</text>
</g>
</g>
<g id="s228237164">
<polygon id="s228237164" points="160.0,280.0 200.0,280.0 199.99998,320.0 160.0,319.99997 " fill="none" stroke-width="0.0" stroke="rgb(102,51,102)"/>
<g id="t228237164">
<text xml:space="preserve" x="164.5" y="307.85156" font-family="Sans,Helvetica" fill="rgb(102,51,102)" font-size="20">API</text>
</g>
</g>
<g id="s15792437">
<polygon id="s15792437" points="500.0,120.0 540.0,120.0 539.99976,160.0 500.0,159.99995 " fill="rgb(217,204,140)" stroke-width="2.0" stroke="rgb(102,51,102)"/>
<g id="t15792437">
<text xml:space="preserve" x="513.5" y="147.85156" font-family="Sans,Helvetica" fill="rgb(102,51,102)" font-size="20">C</text>
</g>
</g>
<g id="s109474250">
<polygon id="s109474250" points="760.0,120.0 860.0,120.0 859.9984,159.99997 760.0,160.0 " fill="rgb(192,202,51)" stroke-width="2.0" stroke="rgb(102,51,102)"/>
<g id="t109474250">
<text xml:space="preserve" x="773.0" y="147.85156" font-family="Sans,Helvetica" fill="rgb(102,51,102)" font-size="20">LLVM IR</text>
</g>
</g>
<g id="s170274619">
<polygon id="s170274619" points="380.0,180.0 459.99936,180.0 460.0,219.99994 380.0,220.0 " fill="none" stroke-width="2.0" stroke="rgb(102,51,102)"/>
<g id="t170274619">
<text xml:space="preserve" x="392.5" y="207.0664" font-family="Sans,Helvetica" fill="rgb(102,51,102)" font-size="18">WASM</text>
</g>
</g>
<g id="s122177112">
<polygon id="s122177112" points="700.0,180.0 739.999,180.0 740.0,219.99997 700.0,220.0 " fill="none" stroke-width="2.0" stroke="rgb(102,51,102)"/>
<g id="t122177112">
<text xml:space="preserve" x="704.0" y="207.0664" font-family="Sans,Helvetica" fill="rgb(102,51,102)" font-size="18">C++</text>
</g>
</g>
<g id="s256177073">
<polygon id="s256177073" points="920.00006,120.0 979.9999,120.0 980.0,159.99995 920.00006,160.0 " fill="none" stroke-width="2.0" stroke="rgb(102,51,102)"/>
<g id="t256177073">
<text xml:space="preserve" x="932.0" y="147.0664" font-family="Sans,Helvetica" fill="rgb(102,51,102)" font-size="18">Rust</text>
</g>
</g>
<g id="s243392662">
<polygon id="s243392662" points="160.0,380.0 240.00003,380.0 239.99991,440.0 160.0,439.9999 " fill="rgb(217,204,140)" stroke-width="2.0" stroke="rgb(102,51,102)"/>
<g id="t243392662">
<text xml:space="preserve" x="183.00002" y="404.58008" font-family="Sans,Helvetica" fill="rgb(102,51,102)" font-size="20">MIR</text>
<text xml:space="preserve" x="173.00002" y="431.12305" font-family="Sans,Helvetica" fill="rgb(102,51,102)" font-size="20">binary</text>
</g>
</g>
<g id="s163480599">
<polygon id="s163480599" points="260.0,380.0 320.0,380.0 319.99994,439.9993 260.0,440.0 " fill="rgb(217,204,140)" stroke-width="2.0" stroke="rgb(102,51,102)"/>
<g id="t163480599">
<text xml:space="preserve" x="273.0" y="404.58008" font-family="Sans,Helvetica" fill="rgb(102,51,102)" font-size="20">MIR</text>
<text xml:space="preserve" x="272.5" y="431.12305" font-family="Sans,Helvetica" fill="rgb(102,51,102)" font-size="20">text</text>
</g>
</g>
<g id="s52916228">
<polygon id="s52916228" points="560.0,500.0 640.0,500.0 639.9999,560.0 560.0,560.0 " fill="rgb(217,204,140)" stroke-width="2.0" stroke="rgb(102,51,102)"/>
<g id="t52916228">
<text xml:space="preserve" x="573.0" y="537.0664" font-family="Sans,Helvetica" fill="rgb(102,51,102)" font-size="18">x86-64</text>
</g>
</g>
<g id="s50600429">
<polygon id="s50600429" points="660.0,500.0 739.9999,500.0 740.0,560.0 660.0,559.9997 " fill="rgb(217,204,140)" stroke-width="2.0" stroke="rgb(102,51,102)"/>
<g id="t50600429">
<text xml:space="preserve" x="667.5" y="537.0664" font-family="Sans,Helvetica" fill="rgb(102,51,102)" font-size="18">aarch64</text>
</g>
</g>
<g id="s49508386">
<polygon id="s49508386" points="460.0,500.0 540.0,500.0 540.0,560.0 460.0,560.0 " fill="rgb(217,204,140)" stroke-width="2.0" stroke="rgb(102,51,102)"/>
<g id="t49508386">
<text xml:space="preserve" x="473.0" y="525.1221" font-family="Sans,Helvetica" fill="rgb(102,51,102)" font-size="18">PPC64</text>
<text xml:space="preserve" x="475.5" y="549.01074" font-family="Sans,Helvetica" fill="rgb(102,51,102)" font-size="18">BE/LE</text>
</g>
</g>
<g id="s169691827">
<polygon id="s169691827" points="860.0,500.0 940.0,500.0 939.9992,560.0 860.0,560.0 " fill="none" stroke-width="2.0" stroke="rgb(102,51,102)"/>
<g id="t169691827">
<text xml:space="preserve" x="868.5" y="537.0664" font-family="Sans,Helvetica" fill="rgb(102,51,102)" font-size="18">MIPS64</text>
</g>
</g>
<g id="s78481520">
<polygon id="s78481520" points="160.0,160.0 239.99998,160.0 240.00005,220.0 160.0,219.99998 " fill="rgb(217,204,140)" stroke-width="2.0" stroke="rgb(102,51,102)"/>
<g id="t78481520">
<text xml:space="preserve" x="183.00003" y="184.58008" font-family="Sans,Helvetica" fill="rgb(102,51,102)" font-size="20">MIR</text>
<text xml:space="preserve" x="173.00003" y="211.12305" font-family="Sans,Helvetica" fill="rgb(102,51,102)" font-size="20">binary</text>
</g>
</g>
<g id="s68511721">
<polygon id="s68511721" points="280.0,160.0 340.0,160.0 340.0,219.99998 280.0,220.0 " fill="rgb(217,204,140)" stroke-width="2.0" stroke="rgb(102,51,102)"/>
<g id="t68511721">
<text xml:space="preserve" x="293.0" y="184.58008" font-family="Sans,Helvetica" fill="rgb(102,51,102)" font-size="20">MIR</text>
<text xml:space="preserve" x="292.5" y="211.12305" font-family="Sans,Helvetica" fill="rgb(102,51,102)" font-size="20">text</text>
</g>
</g>
<g id="s167537774">
<ellipse id="s167537774" cx="920.0" cy="390.0" rx="60.0" ry="30.0" fill="rgb(217,204,140)" stroke-width="2.0" stroke="rgb(102,51,102)"/>
<g id="t167537774">
<text xml:space="preserve" x="877.5" y="397.0664" font-family="Sans,Helvetica" fill="rgb(102,51,102)" font-size="18">Interpreter</text>
</g>
</g>
<g id="s77061903">
<ellipse id="s77061903" cx="750.0" cy="430.0" rx="70.0" ry="30.0" fill="rgb(217,204,140)" stroke-width="2.0" stroke="rgb(102,51,102)"/>
<g id="t77061903">
<text xml:space="preserve" x="705.0" y="437.85156" font-family="Sans,Helvetica" fill="rgb(102,51,102)" font-size="20">Generator</text>
</g>
</g>
<g id="s255507356">
<polygon id="s255507356" points="1020.0001,140.0 1119.9988,140.0 1120.0,200.0 1020.0001,199.99927 " fill="none" stroke-width="2.0" stroke="rgb(102,51,102)"/>
<g id="t255507356">
<text xml:space="preserve" x="1048.5" y="164.58008" font-family="Sans,Helvetica" fill="rgb(102,51,102)" font-size="20">Java</text>
<text xml:space="preserve" x="1029.5" y="191.12305" font-family="Sans,Helvetica" fill="rgb(102,51,102)" font-size="20">bytecode</text>
</g>
</g>
<g id="s131307941">
<polygon id="s131307941" points="1020.0,400.0 1120.0005,400.0 1119.999,460.0 1020.0,459.99966 " fill="none" stroke-width="2.0" stroke="rgb(102,51,102)"/>
<g id="t131307941">
<text xml:space="preserve" x="1048.5002" y="424.58008" font-family="Sans,Helvetica" fill="rgb(102,51,102)" font-size="20">Java</text>
<text xml:space="preserve" x="1029.5002" y="451.12305" font-family="Sans,Helvetica" fill="rgb(102,51,102)" font-size="20">bytecode</text>
</g>
</g>
<g id="s143057274">
<polygon id="s143057274" points="1040.0,100.0 1100.0,100.0 1099.9983,119.99997 1040.0,120.0 " fill="none" stroke-width="0.0" stroke="rgb(102,51,102)"/>
<g id="t143057274"/>
</g>
<g id="s142433579">
<polygon id="s142433579" points="1060.0,240.0 1119.9995,240.0 1119.9995,280.0 1060.0,280.0 " fill="none" stroke-width="2.0" stroke="rgb(102,51,102)"/>
<g id="t142433579">
<text xml:space="preserve" x="1075.4998" y="267.85156" font-family="Sans,Helvetica" fill="rgb(102,51,102)" font-size="20">CIL</text>
</g>
</g>
<g id="s168162696">
<polygon id="s168162696" points="1060.0,320.0 1120.0,320.0 1120.0,360.0 1060.0,360.0 " fill="none" stroke-width="2.0" stroke="rgb(102,51,102)"/>
<g id="t168162696">
<text xml:space="preserve" x="1075.5" y="347.85156" font-family="Sans,Helvetica" fill="rgb(102,51,102)" font-size="20">CIL</text>
</g>
</g>
<g id="s76098337">
<polygon id="s76098337" points="760.0,500.0 840.0,500.0 839.99994,559.9999 760.0,560.0 " fill="rgb(217,204,140)" stroke-width="2.0" stroke="rgb(102,51,102)"/>
<g id="t76098337">
<text xml:space="preserve" x="776.0" y="537.0664" font-family="Sans,Helvetica" fill="rgb(102,51,102)" font-size="18">s390x</text>
</g>
</g>
<g id="s101817158">
<polygon id="s101817158" points="959.99994,500.0 1040.0,500.0 1039.9995,559.9999 959.99994,560.0 " fill="none" stroke-width="2.0" stroke="rgb(102,51,102)"/>
<g id="t101817158">
<text xml:space="preserve" x="975.0" y="537.0664" font-family="Sans,Helvetica" fill="rgb(102,51,102)" font-size="18">RISCV</text>
</g>
</g>
<g id="s15900935">
<polygon id="s15900935" points="340.0,380.0 420.0,380.0 420.0,420.0 340.0,419.99997 " fill="none" stroke-width="2.0" stroke="rgb(102,51,102)"/>
<g id="t15900935">
<text xml:space="preserve" x="352.5" y="407.0664" font-family="Sans,Helvetica" fill="rgb(102,51,102)" font-size="18">WASM</text>
</g>
</g>
<g id="s113828404">
<polygon id="s113828404" points="440.0,380.0 480.0,380.0 480.0,420.0 440.0,419.99994 " fill="rgb(217,204,140)" stroke-width="2.0" stroke="rgb(102,51,102)"/>
<g id="t113828404">
<text xml:space="preserve" x="454.0" y="407.0664" font-family="Sans,Helvetica" fill="rgb(102,51,102)" font-size="18">C</text>
</g>
</g>
<g id="s11294813">
<ellipse id="s11294813" cx="599.99994" cy="200.0" rx="40.0" ry="20.0" fill="none" stroke-width="2.0" stroke="rgb(102,51,102)"/>
<g id="t11294813">
<text xml:space="preserve" x="581.99994" y="207.0664" font-family="Sans,Helvetica" fill="rgb(102,51,102)" font-size="18">GCC</text>
</g>
</g>
<g id="s20719058">
<ellipse id="s20719058" cx="580.0" cy="410.0" rx="80.0" ry="30.0" fill="none" stroke-width="2.0" stroke="rgb(102,51,102)"/>
<g id="t20719058">
<text xml:space="preserve" x="562.0" y="405.12207" font-family="Sans,Helvetica" fill="rgb(102,51,102)" font-size="18">GCC</text>
<text xml:space="preserve" x="537.0" y="429.01074" font-family="Sans,Helvetica" fill="rgb(102,51,102)" font-size="18">LibGCCJIT</text>
</g>
</g>
<g id="la210650787">
<path id="s210650787" d="M 200.0,300.0 240.0,299.99957 " fill="none" stroke-width="2.0" stroke="rgb(102,51,102)"/>
<path id="s186282042" d="M 230.82198,307.7303 240.0,299.99957 230.82181,292.26904 " fill="none" stroke-width="2.0" stroke="rgb(102,51,102)"/>
<g id="t210650787">
<text xml:space="preserve" x="220.0" y="292.20584" font-family="Sans,Helvetica" fill="rgb(102,51,102)" font-size="14"/>
</g>
</g>
<g id="la120319392">
<path id="s120319392" d="M 200.00002,380.0 285.59943,339.99933 " fill="none" stroke-width="2.0" stroke="rgb(102,51,102)"/>
<path id="s32178760" d="M 205.04224,369.11075 200.00002,380.0 211.58784,383.11804 " fill="none" stroke-width="2.0" stroke="rgb(102,51,102)"/>
<g id="t120319392">
<text xml:space="preserve" x="246.79971" y="365.49576" font-family="Sans,Helvetica" fill="rgb(102,51,102)" font-size="14"/>
</g>
</g>
<g id="la165354841">
<path id="s165354841" d="M 346.39987,339.99936 290.0,380.0 " fill="none" stroke-width="2.0" stroke="rgb(102,51,102)"/>
<path id="s124917985" d="M 293.0142,368.3847 290.0,380.0 301.9586,380.9961 " fill="none" stroke-width="2.0" stroke="rgb(102,51,102)"/>
<g id="t165354841">
<text xml:space="preserve" x="322.19995" y="365.4958" font-family="Sans,Helvetica" fill="rgb(102,51,102)" font-size="14"/>
</g>
</g>
<g id="la18009374">
<path id="s18009374" d="M 809.9992,159.99998 799.9999,260.0 " fill="none" stroke-width="2.0" stroke="rgb(102,51,102)"/>
<path id="s237983238" d="M 793.2208,250.09827 799.9999,260.0 808.60535,251.63661 " fill="none" stroke-width="2.0" stroke="rgb(102,51,102)"/>
<g id="t18009374">
<text xml:space="preserve" x="808.9996" y="215.4961" font-family="Sans,Helvetica" fill="rgb(102,51,102)" font-size="14"/>
</g>
</g>
<g id="la45394431">
<path id="s45394431" d="M 519.9999,159.99997 519.9999,260.0 " fill="none" stroke-width="2.0" stroke="rgb(102,51,102)"/>
<path id="s83993799" d="M 512.2693,250.8219 519.9999,260.0 527.73047,250.8219 " fill="none" stroke-width="2.0" stroke="rgb(102,51,102)"/>
<g id="t45394431">
<text xml:space="preserve" x="523.9999" y="215.49608" font-family="Sans,Helvetica" fill="rgb(102,51,102)" font-size="14"/>
</g>
</g>
<g id="la217203660">
<path id="s217203660" d="M 420.0,219.99997 439.99988,260.0 " fill="none" stroke-width="2.0" stroke="rgb(102,51,102)"/>
<path id="s181533428" d="M 428.98083,255.24806 439.99988,260.0 442.8098,248.33362 " fill="none" stroke-width="2.0" stroke="rgb(102,51,102)"/>
<g id="t217203660">
<text xml:space="preserve" x="433.99994" y="245.49608" font-family="Sans,Helvetica" fill="rgb(102,51,102)" font-size="14"/>
</g>
</g>
<g id="la261568021">
<path id="s261568021" d="M 539.9999,140.0 760.0,140.0 " fill="none" stroke-width="2.0" stroke="rgb(102,51,102)"/>
<path id="s43409949" d="M 750.8219,147.7306 760.0,140.0 750.8219,132.26938 " fill="none" stroke-width="2.0" stroke="rgb(102,51,102)"/>
<g id="t261568021">
<text xml:space="preserve" x="649.99994" y="132.20604" font-family="Sans,Helvetica" fill="rgb(102,51,102)" font-size="14"/>
</g>
</g>
<g id="la253402410">
<path id="s253402410" d="M 310.0,220.0 358.74963,260.0 " fill="none" stroke-width="2.0" stroke="rgb(102,51,102)"/>
<path id="s190499986" d="M 346.75064,260.15445 358.74963,260.0 356.55798,248.20184 " fill="none" stroke-width="2.0" stroke="rgb(102,51,102)"/>
<g id="t253402410">
<text xml:space="preserve" x="338.37482" y="245.4961" font-family="Sans,Helvetica" fill="rgb(102,51,102)" font-size="14"/>
</g>
</g>
<g id="la45344539">
<path id="s45344539" d="M 200.00003,220.0 263.74976,260.0 " fill="none" stroke-width="2.0" stroke="rgb(102,51,102)"/>
<path id="s183092835" d="M 251.86656,261.67023 263.74976,260.0 260.08408,248.5736 " fill="none" stroke-width="2.0" stroke="rgb(102,51,102)"/>
<g id="t45344539">
<text xml:space="preserve" x="235.8749" y="245.4961" font-family="Sans,Helvetica" fill="rgb(102,51,102)" font-size="14"/>
</g>
</g>
<g id="la15061176">
<path id="s15061176" d="M 899.99994,339.99985 920.0,360.0 " fill="none" stroke-width="2.0" stroke="rgb(102,51,102)"/>
<path id="s59626080" d="M 908.04376,358.97644 920.0,360.0 918.9765,348.04373 " fill="none" stroke-width="2.0" stroke="rgb(102,51,102)"/>
<g id="t15061176">
<text xml:space="preserve" x="914.0" y="355.49603" font-family="Sans,Helvetica" fill="rgb(102,51,102)" font-size="14"/>
</g>
</g>
<g id="la230825617">
<path id="s230825617" d="M 500.0,500.0 685.3284,441.4805 " fill="none" stroke-width="2.0" stroke="rgb(102,51,102)"/>
<path id="s263979801" d="M 506.4244,489.86456 500.0,500.0 511.0799,504.60825 " fill="none" stroke-width="2.0" stroke="rgb(102,51,102)"/>
<g id="t230825617">
<text xml:space="preserve" x="592.6642" y="462.94632" font-family="Sans,Helvetica" fill="rgb(102,51,102)" font-size="14"/>
</g>
</g>
<g id="la102588918">
<path id="s102588918" d="M 600.0,500.0 700.5025,451.2132 " fill="none" stroke-width="2.0" stroke="rgb(102,51,102)"/>
<path id="s173350878" d="M 604.8808,489.0374 600.0,500.0 611.6326,502.94647 " fill="none" stroke-width="2.0" stroke="rgb(102,51,102)"/>
<g id="t102588918">
<text xml:space="preserve" x="654.2512" y="481.1027" font-family="Sans,Helvetica" fill="rgb(102,51,102)" font-size="14"/>
</g>
</g>
<g id="la144693751">
<path id="s144693751" d="M 723.21216,457.71637 699.99994,500.0 " fill="none" stroke-width="2.0" stroke="rgb(102,51,102)"/>
<path id="s162031039" d="M 697.64,488.23434 699.99994,500.0 711.1933,495.67462 " fill="none" stroke-width="2.0" stroke="rgb(102,51,102)"/>
<g id="t144693751">
<text xml:space="preserve" x="715.606" y="484.35428" font-family="Sans,Helvetica" fill="rgb(102,51,102)" font-size="14"/>
</g>
</g>
<g id="la209928292">
<path id="s209928292" d="M 799.4975,451.2132 900.0,500.0 " fill="none" stroke-width="2.0" stroke="rgb(102,51,102)"/>
<path id="s208516236" d="M 888.3674,502.94647 900.0,500.0 895.1192,489.0374 " fill="none" stroke-width="2.0" stroke="rgb(102,51,102)"/>
<g id="t209928292">
<text xml:space="preserve" x="853.7488" y="481.1027" font-family="Sans,Helvetica" fill="rgb(102,51,102)" font-size="14"/>
</g>
</g>
<g id="la47780557">
<path id="s47780557" d="M 979.99994,339.99982 1070.0002,400.0 " fill="none" stroke-width="2.0" stroke="rgb(102,51,102)"/>
<path id="s134264789" d="M 1058.0754,401.34116 1070.0002,400.0 1066.6517,388.47665 " fill="none" stroke-width="2.0" stroke="rgb(102,51,102)"/>
<g id="t47780557">
<text xml:space="preserve" x="1029.0001" y="375.496" font-family="Sans,Helvetica" fill="rgb(102,51,102)" font-size="14"/>
</g>
</g>
<g id="la28682114">
<path id="s28682114" d="M 1050.0,199.99948 979.99994,260.0 " fill="none" stroke-width="2.0" stroke="rgb(102,51,102)"/>
<path id="s68115434" d="M 981.93744,248.15744 979.99994,260.0 991.9995,259.89645 " fill="none" stroke-width="2.0" stroke="rgb(102,51,102)"/>
<g id="t28682114">
<text xml:space="preserve" x="1019.0" y="235.49583" font-family="Sans,Helvetica" fill="rgb(102,51,102)" font-size="14"/>
</g>
</g>
<g id="la65937043">
<path id="s65937043" d="M 739.999,180.0 760.0,160.0 " fill="none" stroke-width="2.0" stroke="rgb(102,51,102)"/>
<path id="s159882971" d="M 758.9762,171.95624 760.0,160.0 748.0437,161.02324 " fill="none" stroke-width="2.0" stroke="rgb(102,51,102)"/>
<g id="t65937043">
<text xml:space="preserve" x="753.9995" y="175.4961" font-family="Sans,Helvetica" fill="rgb(102,51,102)" font-size="14"/>
</g>
</g>
<g id="la40238800">
<path id="s40238800" d="M 920.00006,140.0 859.9992,139.99998 " fill="none" stroke-width="2.0" stroke="rgb(102,51,102)"/>
<path id="s159878520" d="M 869.1773,132.26938 859.9992,139.99998 869.1773,147.7306 " fill="none" stroke-width="2.0" stroke="rgb(102,51,102)"/>
<g id="t40238800">
<text xml:space="preserve" x="889.99963" y="132.20605" font-family="Sans,Helvetica" fill="rgb(102,51,102)" font-size="14"/>
</g>
</g>
<g id="la233901769">
<path id="s233901769" d="M 1069.9991,119.999985 1069.9995,140.0 " fill="none" stroke-width="2.0" stroke="rgb(102,51,102)"/>
<path id="s245496913" d="M 1062.2687,130.82204 1069.9995,140.0 1077.73,130.82175 " fill="none" stroke-width="2.0" stroke="rgb(102,51,102)"/>
<g id="t233901769">
<text xml:space="preserve" x="1073.9994" y="135.4961" font-family="Sans,Helvetica" fill="rgb(102,51,102)" font-size="14"/>
</g>
</g>
<g id="la177912270">
<path id="s177912270" d="M 1000.0,319.9999 1060.0,340.0 " fill="none" stroke-width="2.0" stroke="rgb(102,51,102)"/>
<path id="s226446518" d="M 1048.8483,344.43152 1060.0,340.0 1053.7375,329.7637 " fill="none" stroke-width="2.0" stroke="rgb(102,51,102)"/>
<g id="t177912270">
<text xml:space="preserve" x="1030.0" y="322.206" font-family="Sans,Helvetica" fill="rgb(102,51,102)" font-size="14"/>
</g>
</g>
<g id="la198316271">
<path id="s198316271" d="M 999.9998,279.9999 1060.0,260.0 " fill="none" stroke-width="2.0" stroke="rgb(102,51,102)"/>
<path id="s56053175" d="M 1006.2623,269.76364 999.9998,279.9999 1011.15155,284.43146 " fill="none" stroke-width="2.0" stroke="rgb(102,51,102)"/>
<g id="t198316271">
<text xml:space="preserve" x="1029.9999" y="262.206" font-family="Sans,Helvetica" fill="rgb(102,51,102)" font-size="14"/>
</g>
</g>
<g id="la24393724">
<path id="s24393724" d="M 750.0,400.0 740.0,339.99988 " fill="none" stroke-width="2.0" stroke="rgb(102,51,102)"/>
<path id="s140773668" d="M 740.8657,392.21768 750.0,400.0 756.1166,389.67587 " fill="none" stroke-width="2.0" stroke="rgb(102,51,102)"/>
<g id="t24393724">
<text xml:space="preserve" x="749.0" y="375.10345" font-family="Sans,Helvetica" fill="rgb(102,51,102)" font-size="13"/>
</g>
</g>
<g id="la7523973">
<path id="s7523973" d="M 776.78784,457.71637 800.0,500.0 " fill="none" stroke-width="2.0" stroke="rgb(102,51,102)"/>
<path id="s54070413" d="M 788.80664,495.67462 800.0,500.0 802.3599,488.23434 " fill="none" stroke-width="2.0" stroke="rgb(102,51,102)"/>
<g id="t7523973">
<text xml:space="preserve" x="792.3939" y="483.9617" font-family="Sans,Helvetica" fill="rgb(102,51,102)" font-size="13"/>
</g>
</g>
<g id="la195863770">
<path id="s195863770" d="M 814.6716,441.4805 1000.0,500.0 " fill="none" stroke-width="2.0" stroke="rgb(102,51,102)"/>
<path id="s53182018" d="M 988.9201,504.60825 1000.0,500.0 993.57556,489.86456 " fill="none" stroke-width="2.0" stroke="rgb(102,51,102)"/>
<g id="t195863770">
<text xml:space="preserve" x="907.3358" y="463.2173" font-family="Sans,Helvetica" fill="rgb(102,51,102)" font-size="13"/>
</g>
</g>
<g id="la223923467">
<path id="s223923467" d="M 429.9995,339.9995 380.0,380.0 " fill="none" stroke-width="2.0" stroke="rgb(102,51,102)"/>
<path id="s50925139" d="M 382.3375,368.22986 380.0,380.0 391.9962,380.30295 " fill="none" stroke-width="2.0" stroke="rgb(102,51,102)"/>
<g id="t223923467">
<text xml:space="preserve" x="408.99976" y="365.10327" font-family="Sans,Helvetica" fill="rgb(102,51,102)" font-size="13"/>
</g>
</g>
<g id="la248174568">
<path id="s248174568" d="M 480.00003,339.99994 460.0,380.0 " fill="none" stroke-width="2.0" stroke="rgb(102,51,102)"/>
<path id="s74093456" d="M 457.1901,368.33362 460.0,380.0 471.01904,375.24808 " fill="none" stroke-width="2.0" stroke="rgb(102,51,102)"/>
<g id="t248174568">
<text xml:space="preserve" x="474.0" y="365.1035" font-family="Sans,Helvetica" fill="rgb(102,51,102)" font-size="13"/>
</g>
</g>
<g id="la261541377">
<path id="s261541377" d="M 639.99994,200.0 700.0,200.0 " fill="none" stroke-width="2.0" stroke="rgb(102,51,102)"/>
<path id="s196535433" d="M 649.17804,192.2694 639.99994,200.0 649.17804,207.7306 " fill="none" stroke-width="2.0" stroke="rgb(102,51,102)"/>
<g id="t261541377">
<text xml:space="preserve" x="670.0" y="192.47705" font-family="Sans,Helvetica" fill="rgb(102,51,102)" font-size="13"/>
</g>
</g>
<g id="la197145766">
<path id="s197145766" d="M 539.99976,160.0 584.6926,181.52242 " fill="none" stroke-width="2.0" stroke="rgb(102,51,102)"/>
<path id="s24591502" d="M 573.0693,184.50534 584.6926,181.52242 579.7775,170.5752 " fill="none" stroke-width="2.0" stroke="rgb(102,51,102)"/>
<g id="t197145766">
<text xml:space="preserve" x="566.3462" y="175.86472" font-family="Sans,Helvetica" fill="rgb(102,51,102)" font-size="13"/>
</g>
</g>
<g id="la256192231">
<path id="s256192231" d="M 599.99994,220.0 599.9999,260.0 " fill="none" stroke-width="2.0" stroke="rgb(102,51,102)"/>
<path id="s135019695" d="M 592.2693,250.82188 599.9999,260.0 607.7305,250.8219 " fill="none" stroke-width="2.0" stroke="rgb(102,51,102)"/>
<g id="t256192231">
<text xml:space="preserve" x="603.9999" y="245.10352" font-family="Sans,Helvetica" fill="rgb(102,51,102)" font-size="13"/>
</g>
</g>
<g id="la40471188">
<path id="s40471188" d="M 580.0,339.9999 580.0,380.0 " fill="none" stroke-width="2.0" stroke="rgb(102,51,102)"/>
<path id="s101537980" d="M 572.2694,370.8219 580.0,380.0 587.7306,370.8219 " fill="none" stroke-width="2.0" stroke="rgb(102,51,102)"/>
<g id="t40471188">
<text xml:space="preserve" x="584.0" y="365.10345" font-family="Sans,Helvetica" fill="rgb(102,51,102)" font-size="13"/>
</g>
</g>
</svg>
