<?xml version="1.0" encoding="UTF-8"?><svg xmlns="http://www.w3.org/2000/svg" xmlns:xlink="http://www.w3.org/1999/xlink" width="740.0" height="540.0" viewBox="130.0 70.0 740.0 540.0" version="1.1">
<rect x="130.0" y="70.0" width="740.0" height="540.0" fill="rgb(255,255,255)"/>
<g id="s196449097">
<polygon id="s196449097" points="240.0,260.0 739.9995,260.0 739.99976,340.0 240.0,340.0 " fill="rgb(217,204,140)" stroke-width="2.0" stroke="rgb(102,51,102)"/>
<g id="t196449097">
<text xml:space="preserve" x="459.99988" y="313.34766" font-family="Sans,Helvetica" fill="rgb(102,51,102)" font-size="34">MIR</text>
</g>
</g>
<g id="s44442702">
<polygon id="s44442702" points="160.0,280.0 200.0,280.0 199.99998,320.0 160.0,319.99997 " fill="none" stroke-width="0.0" stroke="rgb(102,51,102)"/>
<g id="t44442702">
<text xml:space="preserve" x="164.5" y="307.85156" font-family="Sans,Helvetica" fill="rgb(102,51,102)" font-size="20">API</text>
</g>
</g>
<g id="s35744111">
<polygon id="s35744111" points="480.0,180.0 519.9997,180.0 519.9998,220.0 480.0,219.99995 " fill="rgb(217,204,140)" stroke-width="2.0" stroke="rgb(102,51,102)"/>
<g id="t35744111">
<text xml:space="preserve" x="493.4999" y="207.85156" font-family="Sans,Helvetica" fill="rgb(102,51,102)" font-size="20">C</text>
</g>
</g>
<g id="s20178556">
<polygon id="s20178556" points="560.0,180.0 660.0,180.0 659.9984,219.99997 560.0,220.0 " fill="rgb(217,204,140)" stroke-width="2.0" stroke="rgb(102,51,102)"/>
<g id="t20178556">
<text xml:space="preserve" x="573.0" y="207.85156" font-family="Sans,Helvetica" fill="rgb(102,51,102)" font-size="20">LLVM IR</text>
</g>
</g>
<g id="s54205189">
<polygon id="s54205189" points="360.0,180.0 439.99936,180.0 440.0,219.99994 360.0,220.0 " fill="rgb(217,204,140)" stroke-width="2.0" stroke="rgb(102,51,102)"/>
<g id="t54205189">
<text xml:space="preserve" x="372.5" y="207.0664" font-family="Sans,Helvetica" fill="rgb(102,51,102)" font-size="18">WASM</text>
</g>
</g>
<g id="s222574426">
<polygon id="s222574426" points="580.0,100.0 639.9983,100.0 640.0,140.0 580.0,140.0 " fill="rgb(217,204,140)" stroke-width="2.0" stroke="rgb(102,51,102)"/>
<g id="t222574426">
<text xml:space="preserve" x="594.0" y="127.06641" font-family="Sans,Helvetica" fill="rgb(102,51,102)" font-size="18">C++</text>
</g>
</g>
<g id="s142945675">
<polygon id="s142945675" points="500.00003,100.0 559.9999,100.0 560.0,139.99995 500.00003,140.0 " fill="rgb(217,204,140)" stroke-width="2.0" stroke="rgb(102,51,102)"/>
<g id="t142945675">
<text xml:space="preserve" x="512.0" y="127.06641" font-family="Sans,Helvetica" fill="rgb(102,51,102)" font-size="18">Rust</text>
</g>
</g>
<g id="s152497768">
<polygon id="s152497768" points="160.0,380.0 240.00003,380.0 239.99991,440.0 160.0,439.9999 " fill="rgb(217,204,140)" stroke-width="2.0" stroke="rgb(102,51,102)"/>
<g id="t152497768">
<text xml:space="preserve" x="183.00002" y="404.58008" font-family="Sans,Helvetica" fill="rgb(102,51,102)" font-size="20">MIR</text>
<text xml:space="preserve" x="173.00002" y="431.12305" font-family="Sans,Helvetica" fill="rgb(102,51,102)" font-size="20">binary</text>
</g>
</g>
<g id="s131555969">
<polygon id="s131555969" points="260.0,380.0 320.0,380.0 319.99994,439.9993 260.0,440.0 " fill="rgb(217,204,140)" stroke-width="2.0" stroke="rgb(102,51,102)"/>
<g id="t131555969">
<text xml:space="preserve" x="273.0" y="404.58008" font-family="Sans,Helvetica" fill="rgb(102,51,102)" font-size="20">MIR</text>
<text xml:space="preserve" x="272.5" y="431.12305" font-family="Sans,Helvetica" fill="rgb(102,51,102)" font-size="20">text</text>
</g>
</g>
<g id="s125726502">
<polygon id="s125726502" points="620.0,380.0 659.99927,380.0 660.0,420.0 620.0,419.99966 " fill="rgb(217,204,140)" stroke-width="2.0" stroke="rgb(102,51,102)"/>
<g id="t125726502">
<text xml:space="preserve" x="633.5" y="407.85156" font-family="Sans,Helvetica" fill="rgb(102,51,102)" font-size="20">C</text>
</g>
</g>
<g id="s68622183">
<polygon id="s68622183" points="280.0,520.0 360.0,520.0 359.9999,580.0 280.0,580.0 " fill="rgb(217,204,140)" stroke-width="2.0" stroke="rgb(102,51,102)"/>
<g id="t68622183">
<text xml:space="preserve" x="293.0" y="557.0664" font-family="Sans,Helvetica" fill="rgb(102,51,102)" font-size="18">x86-64</text>
</g>
</g>
<g id="s127961364">
<polygon id="s127961364" points="380.0,520.0 459.99988,520.0 460.0,580.0 380.0,579.9997 " fill="rgb(217,204,140)" stroke-width="2.0" stroke="rgb(102,51,102)"/>
<g id="t127961364">
<text xml:space="preserve" x="387.5" y="557.0664" font-family="Sans,Helvetica" fill="rgb(102,51,102)" font-size="18">aarch64</text>
</g>
</g>
<g id="s43427261">
<polygon id="s43427261" points="180.00002,520.0 259.99994,520.0 259.99994,580.0 180.00002,580.0 " fill="rgb(217,204,140)" stroke-width="2.0" stroke="rgb(102,51,102)"/>
<g id="t43427261">
<text xml:space="preserve" x="192.99997" y="545.1221" font-family="Sans,Helvetica" fill="rgb(102,51,102)" font-size="18">PPC64</text>
<text xml:space="preserve" x="195.49997" y="569.01074" font-family="Sans,Helvetica" fill="rgb(102,51,102)" font-size="18">BE/LE</text>
</g>
</g>
<g id="s231888818">
<polygon id="s231888818" points="580.0,520.0 660.0,520.0 659.9992,580.0 580.0,580.0 " fill="rgb(217,204,140)" stroke-width="2.0" stroke="rgb(102,51,102)"/>
<g id="t231888818">
<text xml:space="preserve" x="588.5" y="557.0664" font-family="Sans,Helvetica" fill="rgb(102,51,102)" font-size="18">MIPS64</text>
</g>
</g>
<g id="s250856195">
<polygon id="s250856195" points="159.99998,160.0 239.99994,160.0 240.0,220.0 159.99998,219.99998 " fill="rgb(217,204,140)" stroke-width="2.0" stroke="rgb(102,51,102)"/>
<g id="t250856195">
<text xml:space="preserve" x="183.0" y="184.58008" font-family="Sans,Helvetica" fill="rgb(102,51,102)" font-size="20">MIR</text>
<text xml:space="preserve" x="173.0" y="211.12305" font-family="Sans,Helvetica" fill="rgb(102,51,102)" font-size="20">binary</text>
</g>
</g>
<g id="s176628352">
<polygon id="s176628352" points="260.0,160.0 320.0,160.0 320.0,219.99998 260.0,220.0 " fill="rgb(217,204,140)" stroke-width="2.0" stroke="rgb(102,51,102)"/>
<g id="t176628352">
<text xml:space="preserve" x="273.0" y="184.58008" font-family="Sans,Helvetica" fill="rgb(102,51,102)" font-size="20">MIR</text>
<text xml:space="preserve" x="272.5" y="211.12305" font-family="Sans,Helvetica" fill="rgb(102,51,102)" font-size="20">text</text>
</g>
</g>
<g id="s118284473">
<ellipse id="s118284473" cx="540.0" cy="410.0" rx="60.0" ry="30.0" fill="rgb(217,204,140)" stroke-width="2.0" stroke="rgb(102,51,102)"/>
<g id="t118284473">
<text xml:space="preserve" x="497.5" y="417.0664" font-family="Sans,Helvetica" fill="rgb(102,51,102)" font-size="18">Interpreter</text>
</g>
</g>
<g id="s84557054">
<ellipse id="s84557054" cx="400.0" cy="430.0" rx="60.000004" ry="30.0" fill="rgb(217,204,140)" stroke-width="2.0" stroke="rgb(102,51,102)"/>
<g id="t84557054">
<text xml:space="preserve" x="355.0" y="437.85156" font-family="Sans,Helvetica" fill="rgb(102,51,102)" font-size="20">Generator</text>
</g>
</g>
<g id="s241536095">
<polygon id="s241536095" points="680.0,160.0 799.9986,160.0 800.0,220.0 680.0,219.9993 " fill="rgb(217,204,140)" stroke-width="2.0" stroke="rgb(102,51,102)"/>
<g id="t241536095">
<text xml:space="preserve" x="718.5" y="184.58008" font-family="Sans,Helvetica" fill="rgb(102,51,102)" font-size="20">Java</text>
<text xml:space="preserve" x="699.5" y="211.12305" font-family="Sans,Helvetica" fill="rgb(102,51,102)" font-size="20">bytecode</text>
</g>
</g>
<g id="s41674412">
<polygon id="s41674412" points="720.0,380.0 840.0,380.0 839.99805,440.0 720.0,439.99966 " fill="rgb(217,204,140)" stroke-width="2.0" stroke="rgb(102,51,102)"/>
<g id="t41674412">
<text xml:space="preserve" x="758.5" y="404.58008" font-family="Sans,Helvetica" fill="rgb(102,51,102)" font-size="20">Java</text>
<text xml:space="preserve" x="739.5" y="431.12305" font-family="Sans,Helvetica" fill="rgb(102,51,102)" font-size="20">bytecode</text>
</g>
</g>
<g id="s68276085">
<polygon id="s68276085" points="700.0,100.0 780.0,100.0 779.99756,119.99996 700.0,120.0 " fill="none" stroke-width="0.0" stroke="rgb(102,51,102)"/>
<g id="t68276085"/>
</g>
<g id="s38349578">
<polygon id="s38349578" points="660.0,460.0 740.0,460.0 739.9996,499.99994 660.0,500.0 " fill="rgb(217,204,140)" stroke-width="2.0" stroke="rgb(102,51,102)"/>
<g id="t38349578">
<text xml:space="preserve" x="672.5" y="487.0664" font-family="Sans,Helvetica" fill="rgb(102,51,102)" font-size="18">WASM</text>
</g>
</g>
<g id="s134254459">
<polygon id="s134254459" points="780.0,240.0 840.0,240.0 839.99994,280.0 780.0,280.0 " fill="rgb(217,204,140)" stroke-width="2.0" stroke="rgb(102,51,102)"/>
<g id="t134254459">
<text xml:space="preserve" x="795.5" y="267.85156" font-family="Sans,Helvetica" fill="rgb(102,51,102)" font-size="20">CIL</text>
</g>
</g>
<g id="s135709080">
<polygon id="s135709080" points="780.0,320.0 839.99994,320.0 840.0,360.0 780.0,360.0 " fill="rgb(217,204,140)" stroke-width="2.0" stroke="rgb(102,51,102)"/>
<g id="t135709080">
<text xml:space="preserve" x="795.5" y="347.85156" font-family="Sans,Helvetica" fill="rgb(102,51,102)" font-size="20">CIL</text>
</g>
</g>
<g id="s71101937">
<polygon id="s71101937" points="480.0,520.0 560.0,520.0 559.99994,579.9999 480.0,580.0 " fill="rgb(217,204,140)" stroke-width="2.0" stroke="rgb(102,51,102)"/>
<g id="t71101937">
<text xml:space="preserve" x="496.0" y="557.0664" font-family="Sans,Helvetica" fill="rgb(102,51,102)" font-size="18">s390x</text>
</g>
</g>
<g id="la131526102">
<path id="s131526102" d="M 200.0,300.0 240.0,300.0 " fill="none" stroke-width="2.0" stroke="rgb(102,51,102)"/>
<path id="s209627223" d="M 230.8219,307.73062 240.0,300.0 230.8219,292.26938 " fill="none" stroke-width="2.0" stroke="rgb(102,51,102)"/>
<g id="t131526102">
<text xml:space="preserve" x="220.0" y="292.20605" font-family="Sans,Helvetica" fill="rgb(102,51,102)" font-size="14"/>
</g>
</g>
<g id="la194794204">
<path id="s194794204" d="M 200.00002,380.0 269.99988,340.0 " fill="none" stroke-width="2.0" stroke="rgb(102,51,102)"/>
<path id="s83263461" d="M 204.13338,368.7343 200.00002,380.0 211.8043,382.15842 " fill="none" stroke-width="2.0" stroke="rgb(102,51,102)"/>
<g id="t194794204">
<text xml:space="preserve" x="238.99994" y="365.4961" font-family="Sans,Helvetica" fill="rgb(102,51,102)" font-size="14"/>
</g>
</g>
<g id="la134900410">
<path id="s134900410" d="M 309.99988,340.0 290.0,380.0 " fill="none" stroke-width="2.0" stroke="rgb(102,51,102)"/>
<path id="s248532331" d="M 287.19006,368.33362 290.0,380.0 301.01904,375.24805 " fill="none" stroke-width="2.0" stroke="rgb(102,51,102)"/>
<g id="t134900410">
<text xml:space="preserve" x="303.99994" y="365.4961" font-family="Sans,Helvetica" fill="rgb(102,51,102)" font-size="14"/>
</g>
</g>
<g id="la34193608">
<path id="s34193608" d="M 609.9992,219.99998 589.99976,260.0 " fill="none" stroke-width="2.0" stroke="rgb(102,51,102)"/>
<path id="s160707937" d="M 587.18976,248.33365 589.99976,260.0 601.01874,255.24797 " fill="none" stroke-width="2.0" stroke="rgb(102,51,102)"/>
<g id="t34193608">
<text xml:space="preserve" x="603.9995" y="245.4961" font-family="Sans,Helvetica" fill="rgb(102,51,102)" font-size="14"/>
</g>
</g>
<g id="la107247750">
<path id="s107247750" d="M 499.9999,219.99997 489.99976,260.0 " fill="none" stroke-width="2.0" stroke="rgb(102,51,102)"/>
<path id="s52712775" d="M 484.726,249.22096 489.99976,260.0 499.7256,252.97092 " fill="none" stroke-width="2.0" stroke="rgb(102,51,102)"/>
<g id="t107247750">
<text xml:space="preserve" x="498.99982" y="245.49608" font-family="Sans,Helvetica" fill="rgb(102,51,102)" font-size="14"/>
</g>
</g>
<g id="la73277812">
<path id="s73277812" d="M 400.0,219.99997 409.99976,260.0 " fill="none" stroke-width="2.0" stroke="rgb(102,51,102)"/>
<path id="s234735261" d="M 400.274,252.97083 409.99976,260.0 415.2736,249.22101 " fill="none" stroke-width="2.0" stroke="rgb(102,51,102)"/>
<g id="t73277812">
<text xml:space="preserve" x="408.99988" y="245.49608" font-family="Sans,Helvetica" fill="rgb(102,51,102)" font-size="14"/>
</g>
</g>
<g id="la33527570">
<path id="s33527570" d="M 439.99966,199.99998 480.0,199.99997 " fill="none" stroke-width="2.0" stroke="rgb(102,51,102)"/>
<path id="s63373027" d="M 449.17776,192.26936 439.99966,199.99998 449.17776,207.73059 " fill="none" stroke-width="2.0" stroke="rgb(102,51,102)"/>
<g id="t33527570">
<text xml:space="preserve" x="459.99982" y="192.20604" font-family="Sans,Helvetica" fill="rgb(102,51,102)" font-size="14"/>
</g>
</g>
<g id="la66445536">
<path id="s66445536" d="M 519.99976,200.0 560.0,200.00003 " fill="none" stroke-width="2.0" stroke="rgb(102,51,102)"/>
<path id="s125120409" d="M 550.8219,207.73064 560.0,200.00003 550.8219,192.26941 " fill="none" stroke-width="2.0" stroke="rgb(102,51,102)"/>
<g id="t66445536">
<text xml:space="preserve" x="539.9999" y="192.20607" font-family="Sans,Helvetica" fill="rgb(102,51,102)" font-size="14"/>
</g>
</g>
<g id="la180097630">
<path id="s180097630" d="M 290.0,220.0 309.99976,260.0 " fill="none" stroke-width="2.0" stroke="rgb(102,51,102)"/>
<path id="s39888447" d="M 298.98074,255.24803 309.99976,260.0 312.80972,248.33363 " fill="none" stroke-width="2.0" stroke="rgb(102,51,102)"/>
<g id="t180097630">
<text xml:space="preserve" x="303.99988" y="245.4961" font-family="Sans,Helvetica" fill="rgb(102,51,102)" font-size="14"/>
</g>
</g>
<g id="la159918860">
<path id="s159918860" d="M 200.0,220.0 269.99976,260.0 " fill="none" stroke-width="2.0" stroke="rgb(102,51,102)"/>
<path id="s56634453" d="M 258.19547,262.15842 269.99976,260.0 265.8664,248.73433 " fill="none" stroke-width="2.0" stroke="rgb(102,51,102)"/>
<g id="t159918860">
<text xml:space="preserve" x="238.99988" y="245.4961" font-family="Sans,Helvetica" fill="rgb(102,51,102)" font-size="14"/>
</g>
</g>
<g id="la204666474">
<path id="s204666474" d="M 529.9999,340.0 540.0,380.0 " fill="none" stroke-width="2.0" stroke="rgb(102,51,102)"/>
<path id="s147023707" d="M 530.2742,372.97092 540.0,380.0 545.27374,369.22098 " fill="none" stroke-width="2.0" stroke="rgb(102,51,102)"/>
<g id="t204666474">
<text xml:space="preserve" x="538.99994" y="365.4961" font-family="Sans,Helvetica" fill="rgb(102,51,102)" font-size="14"/>
</g>
</g>
<g id="la1240056">
<path id="s1240056" d="M 219.99997,520.0 344.56723,441.4805 " fill="none" stroke-width="2.0" stroke="rgb(102,51,102)"/>
<path id="s96745681" d="M 223.64201,508.56604 219.99997,520.0 231.8866,521.6456 " fill="none" stroke-width="2.0" stroke="rgb(102,51,102)"/>
<g id="t1240056">
<text xml:space="preserve" x="286.2836" y="486.23636" font-family="Sans,Helvetica" fill="rgb(102,51,102)" font-size="14"/>
</g>
</g>
<g id="la8523574">
<path id="s8523574" d="M 320.0,520.0 377.039,457.71637 " fill="none" stroke-width="2.0" stroke="rgb(102,51,102)"/>
<path id="s29826615" d="M 320.49753,508.0103 320.0,520.0 331.89978,518.45245 " fill="none" stroke-width="2.0" stroke="rgb(102,51,102)"/>
<g id="t8523574">
<text xml:space="preserve" x="352.5195" y="494.35428" font-family="Sans,Helvetica" fill="rgb(102,51,102)" font-size="14"/>
</g>
</g>
<g id="la42389412">
<path id="s42389412" d="M 400.0,460.0 419.99994,520.0 " fill="none" stroke-width="2.0" stroke="rgb(102,51,102)"/>
<path id="s58888461" d="M 409.76367,513.7375 419.99994,520.0 424.4315,508.84827 " fill="none" stroke-width="2.0" stroke="rgb(102,51,102)"/>
<g id="t42389412">
<text xml:space="preserve" x="413.99997" y="495.4961" font-family="Sans,Helvetica" fill="rgb(102,51,102)" font-size="14"/>
</g>
</g>
<g id="la64481474">
<path id="s64481474" d="M 455.43277,441.4805 620.0,520.0 " fill="none" stroke-width="2.0" stroke="rgb(102,51,102)"/>
<path id="s65365715" d="M 608.3875,523.02484 620.0,520.0 615.0455,509.0706 " fill="none" stroke-width="2.0" stroke="rgb(102,51,102)"/>
<g id="t64481474">
<text xml:space="preserve" x="541.7164" y="486.23636" font-family="Sans,Helvetica" fill="rgb(102,51,102)" font-size="14"/>
</g>
</g>
<g id="la137576976">
<path id="s137576976" d="M 629.9999,340.0 639.99963,380.0 " fill="none" stroke-width="2.0" stroke="rgb(102,51,102)"/>
<path id="s72626441" d="M 630.27386,372.97083 639.99963,380.0 645.2735,369.221 " fill="none" stroke-width="2.0" stroke="rgb(102,51,102)"/>
<g id="t137576976">
<text xml:space="preserve" x="638.99976" y="365.4961" font-family="Sans,Helvetica" fill="rgb(102,51,102)" font-size="14"/>
</g>
</g>
<g id="la79679246">
<path id="s79679246" d="M 709.9999,340.0 780.0,380.0 " fill="none" stroke-width="2.0" stroke="rgb(102,51,102)"/>
<path id="s160800047" d="M 768.19574,382.15845 780.0,380.0 775.86664,368.73434 " fill="none" stroke-width="2.0" stroke="rgb(102,51,102)"/>
<g id="t79679246">
<text xml:space="preserve" x="748.99994" y="365.4961" font-family="Sans,Helvetica" fill="rgb(102,51,102)" font-size="14"/>
</g>
</g>
<g id="la200437564">
<path id="s200437564" d="M 740.0,219.99965 709.99976,260.0 " fill="none" stroke-width="2.0" stroke="rgb(102,51,102)"/>
<path id="s142988485" d="M 709.32214,248.01915 709.99976,260.0 721.6911,257.29587 " fill="none" stroke-width="2.0" stroke="rgb(102,51,102)"/>
<g id="t200437564">
<text xml:space="preserve" x="728.9999" y="245.49591" font-family="Sans,Helvetica" fill="rgb(102,51,102)" font-size="14"/>
</g>
</g>
<g id="la221105690">
<path id="s221105690" d="M 609.99976,140.0 610.0,180.0 " fill="none" stroke-width="2.0" stroke="rgb(102,51,102)"/>
<path id="s57204043" d="M 602.26935,170.82195 610.0,180.0 617.7305,170.82184 " fill="none" stroke-width="2.0" stroke="rgb(102,51,102)"/>
<g id="t221105690">
<text xml:space="preserve" x="613.9999" y="165.4961" font-family="Sans,Helvetica" fill="rgb(102,51,102)" font-size="14"/>
</g>
</g>
<g id="la169165608">
<path id="s169165608" d="M 530.0,139.99997 570.0,180.0 " fill="none" stroke-width="2.0" stroke="rgb(102,51,102)"/>
<path id="s242481217" d="M 558.0437,178.97646 570.0,180.0 568.9765,168.04373 " fill="none" stroke-width="2.0" stroke="rgb(102,51,102)"/>
<g id="t169165608">
<text xml:space="preserve" x="554.0" y="165.49608" font-family="Sans,Helvetica" fill="rgb(102,51,102)" font-size="14"/>
</g>
</g>
<g id="la4895206">
<path id="s4895206" d="M 739.9988,119.999985 739.99927,160.0 " fill="none" stroke-width="2.0" stroke="rgb(102,51,102)"/>
<path id="s266732327" d="M 732.26855,150.82199 739.99927,160.0 747.7298,150.8218 " fill="none" stroke-width="2.0" stroke="rgb(102,51,102)"/>
<g id="t4895206">
<text xml:space="preserve" x="743.999" y="145.4961" font-family="Sans,Helvetica" fill="rgb(102,51,102)" font-size="14"/>
</g>
</g>
<g id="la17787348">
<path id="s17787348" d="M 669.9999,340.0 700.0,460.0 " fill="none" stroke-width="2.0" stroke="rgb(102,51,102)"/>
<path id="s63362941" d="M 690.2742,452.9709 700.0,460.0 705.27374,449.22098 " fill="none" stroke-width="2.0" stroke="rgb(102,51,102)"/>
<g id="t17787348">
<text xml:space="preserve" x="688.99994" y="405.4961" font-family="Sans,Helvetica" fill="rgb(102,51,102)" font-size="14"/>
</g>
</g>
<g id="la150996594">
<path id="s150996594" d="M 739.9997,320.0 780.0,340.0 " fill="none" stroke-width="2.0" stroke="rgb(102,51,102)"/>
<path id="s86354627" d="M 768.3336,342.80994 780.0,340.0 775.24805,328.98096 " fill="none" stroke-width="2.0" stroke="rgb(102,51,102)"/>
<g id="t150996594">
<text xml:space="preserve" x="763.9999" y="335.4961" font-family="Sans,Helvetica" fill="rgb(102,51,102)" font-size="14"/>
</g>
</g>
<g id="la14896960">
<path id="s14896960" d="M 739.9996,280.0 780.0,260.0 " fill="none" stroke-width="2.0" stroke="rgb(102,51,102)"/>
<path id="s242118265" d="M 744.7515,268.981 739.9996,280.0 751.66595,282.80994 " fill="none" stroke-width="2.0" stroke="rgb(102,51,102)"/>
<g id="t14896960">
<text xml:space="preserve" x="763.99976" y="275.4961" font-family="Sans,Helvetica" fill="rgb(102,51,102)" font-size="14"/>
</g>
</g>
<g id="la88348606">
<path id="s88348606" d="M 400.0,400.0 409.99988,340.0 " fill="none" stroke-width="2.0" stroke="rgb(102,51,102)"/>
<path id="s137244703" d="M 393.88342,389.67587 400.0,400.0 409.13428,392.21765 " fill="none" stroke-width="2.0" stroke="rgb(102,51,102)"/>
<g id="t88348606">
<text xml:space="preserve" x="408.99994" y="375.10352" font-family="Sans,Helvetica" fill="rgb(102,51,102)" font-size="13"/>
</g>
</g>
<g id="la89005932">
<path id="s89005932" d="M 442.42642,451.2132 520.0,520.0 " fill="none" stroke-width="2.0" stroke="rgb(102,51,102)"/>
<path id="s157186357" d="M 508.00388,519.6948 520.0,520.0 518.2618,508.12656 " fill="none" stroke-width="2.0" stroke="rgb(102,51,102)"/>
<g id="t89005932">
<text xml:space="preserve" x="485.2132" y="490.7101" font-family="Sans,Helvetica" fill="rgb(102,51,102)" font-size="13"/>
</g>
</g>
</svg>
